<?xml version="1.0" encoding="utf-8"?>
<!-- Generator: Adobe Illustrator 27.5.0, SVG Export Plug-In . SVG Version: 6.00 Build 0)  -->
<svg version="1.1" xmlns="http://www.w3.org/2000/svg" xmlns:xlink="http://www.w3.org/1999/xlink" x="0px" y="0px"
	 viewBox="0 0 500 500" style="enable-background:new 0 0 500 500;" xml:space="preserve">
<g id="Floor">
	<ellipse id="Floor_16_" style="fill:#F0F0F0;" cx="249.998" cy="343.328" rx="231.528" ry="129.833"/>
</g>
<g id="Shadows_1_">
	<path id="Shadow_2_" style="fill:#E0E0E0;" d="M41.312,357.969l63.497,36.664c0.568,0.328,1.488,0.328,2.055,0l167.617-96.778
		c0.568-0.328,1.488-0.328,2.055,0l105.906,61.151c0.568,0.328,1.488,0.328,2.055,0l63.504-36.657c0.568-0.328,0.568-0.859,0-1.187
		l-171.459-99.002c-0.568-0.328-1.488-0.328-2.055,0L41.312,356.783C40.745,357.11,40.745,357.642,41.312,357.969z"/>
	<ellipse id="Shadow_1_" style="fill:#E0E0E0;" cx="267.307" cy="378.813" rx="71.557" ry="41.314"/>
</g>
<g id="Kitchen_1_">
	<g id="Kitchen">
		<g>
			<path id="XMLID_262_" style="fill:#455A64;" d="M388.534,341.462H378.28l1.638,10.002h0.016c0.076,0.45,0.397,0.889,0.994,1.234
				c1.369,0.79,3.589,0.79,4.958,0c0.597-0.345,0.918-0.784,0.994-1.234h0.016L388.534,341.462z"/>
			<path id="XMLID_283_" style="fill:#455A64;" d="M438.663,312.521h-10.254l1.638,10.001h0.016c0.076,0.45,0.397,0.889,0.994,1.234
				c1.369,0.79,3.589,0.79,4.958,0c0.597-0.345,0.918-0.784,0.994-1.234h0.016L438.663,312.521z"/>
		</g>
		<g>
			<path id="XMLID_309_" style="fill:#455A64;" d="M100.646,377.108H110.9l-1.638,10.001h-0.016
				c-0.076,0.45-0.397,0.889-0.994,1.234c-1.369,0.79-3.589,0.79-4.958,0c-0.597-0.345-0.918-0.784-0.994-1.234h-0.016
				L100.646,377.108z"/>
			<path id="XMLID_301_" style="fill:#455A64;" d="M50.517,348.166h10.254l-1.638,10.001h-0.016
				c-0.076,0.45-0.397,0.889-0.994,1.234c-1.369,0.79-3.589,0.79-4.958,0c-0.597-0.345-0.918-0.784-0.994-1.234h-0.016
				L50.517,348.166z"/>
		</g>
		<g>
			<polygon style="fill:#F5F5F5;" points="275.497,186.892 383.407,249.228 383.408,350.367 275.497,288.031 			"/>
			<polygon style="fill:#F5F5F5;" points="47.989,251.454 47.989,352.589 105.831,385.987 105.831,284.848 			"/>
			<polygon style="fill:#FAFAFA;" points="383.407,249.228 441.307,215.833 441.307,316.973 383.408,350.367 			"/>
			<polygon style="fill:#FAFAFA;" points="105.831,385.987 275.497,288.031 275.497,186.892 105.831,284.848 			"/>
			<polygon style="fill:#E6E6E6;" points="153.885,358.241 155.901,357.077 155.901,255.937 153.885,257.102 			"/>
			<polygon style="fill:#E6E6E6;" points="225.31,316.973 227.326,315.808 227.326,214.669 225.31,215.833 			"/>
			<polygon style="fill:#E6E6E6;" points="330.49,319.781 328.473,318.617 328.473,217.478 330.49,218.642 			"/>
			<g>
				<path style="fill:#27DEBF;" d="M40.285,252.641l0,2.079c0,0.655,0.46,1.452,1.028,1.78l63.497,36.664
					c0.568,0.328,1.488,0.328,2.055,0l167.617-96.778c0.568-0.328,1.488-0.328,2.055,0l105.906,61.151
					c0.568,0.328,1.488,0.328,2.055,0l63.503-36.656c0.568-0.328,1.028-1.124,1.028-1.78v-2.079c0-0.655-0.46-1.452-1.028-1.78
					L276.543,116.24c-0.568-0.328-1.488-0.328-2.055,0L41.312,250.861C40.745,251.189,40.285,251.986,40.285,252.641z"/>
				<path style="opacity:0.65;fill:#FFFFFF;" d="M40.285,252.641l0,2.079c0,0.655,0.46,1.452,1.028,1.78l63.497,36.664
					c0.568,0.328,1.488,0.328,2.055,0l167.617-96.778c0.568-0.328,1.488-0.328,2.055,0l105.906,61.151
					c0.568,0.328,1.488,0.328,2.055,0l63.503-36.656c0.568-0.328,1.028-1.124,1.028-1.78v-2.079c0-0.655-0.46-1.452-1.028-1.78
					L276.543,116.24c-0.568-0.328-1.488-0.328-2.055,0L41.312,250.861C40.745,251.189,40.285,251.986,40.285,252.641z"/>
				<g style="opacity:0.5;">
					<path style="fill:#27DEBF;" d="M105.838,288.952v4.462c-0.37,0-0.741-0.085-1.025-0.247l-63.501-36.669
						c-0.57-0.323-1.025-1.12-1.025-1.775v-2.079c0-0.579,0.361-1.272,0.835-1.652c-0.37,0.332-0.304,0.769,0.19,1.054l63.501,36.67
						C105.097,288.876,105.458,288.952,105.838,288.952z"/>
					<path style="fill:#27DEBF;" d="M383.474,253.328v4.452c-0.37,0-0.75-0.076-1.035-0.247l-105.904-61.145
						c-0.285-0.171-0.655-0.247-1.025-0.247v-4.452c0.37,0,0.74,0.085,1.025,0.247l105.904,61.145
						C382.724,253.252,383.104,253.328,383.474,253.328z"/>
				</g>
				<g>
					<path style="fill:#27DEBF;" d="M41.312,252.048l63.497,36.664c0.568,0.328,1.488,0.328,2.055,0l167.617-96.778
						c0.568-0.328,1.488-0.328,2.055,0l105.906,61.151c0.568,0.328,1.488,0.328,2.055,0l63.504-36.657
						c0.568-0.328,0.568-0.859,0-1.187L276.543,116.24c-0.568-0.328-1.488-0.328-2.055,0L41.312,250.861
						C40.745,251.189,40.745,251.72,41.312,252.048z"/>
					<path style="opacity:0.8;fill:#FFFFFF;" d="M41.312,252.048l63.497,36.664c0.568,0.328,1.488,0.328,2.055,0l167.617-96.778
						c0.568-0.328,1.488-0.328,2.055,0l105.906,61.151c0.568,0.328,1.488,0.328,2.055,0l63.504-36.657
						c0.568-0.328,0.568-0.859,0-1.187L276.543,116.24c-0.568-0.328-1.488-0.328-2.055,0L41.312,250.861
						C40.745,251.189,40.745,251.72,41.312,252.048z"/>
				</g>
			</g>
		</g>
		<g>
			<path style="fill:#455A64;" d="M153.846,252.493l-49.876-28.794c-1.135-0.655-1.135-1.718,0-2.373l65.3-37.7
				c1.135-0.655,2.975-0.655,4.111,0l49.872,28.794c1.135,0.655,1.135,1.718,0,2.373l-65.297,37.7
				C156.821,253.149,154.981,253.149,153.846,252.493z"/>
			<g>
				<g>
					<path style="fill:#E0E0E0;" d="M159.756,241.522c-3.404,0-6.809-0.748-9.401-2.244c-2.578-1.49-3.998-3.49-3.998-5.634
						c0-2.143,1.42-4.144,3.998-5.634c5.184-2.992,13.619-2.992,18.803,0c2.578,1.489,3.998,3.489,3.998,5.634
						c0,2.144-1.419,4.145-3.998,5.634C166.566,240.774,163.161,241.522,159.756,241.522z M159.757,226.467
						c-3.276,0-6.552,0.72-9.046,2.16c-2.349,1.356-3.642,3.138-3.642,5.016c0,1.879,1.293,3.661,3.642,5.017
						c4.988,2.879,13.105,2.879,18.091,0c2.349-1.356,3.642-3.138,3.642-5.017c0-1.879-1.293-3.661-3.642-5.016
						C166.308,227.188,163.032,226.467,159.757,226.467z"/>
				</g>
				<g>
					<path style="fill:#E0E0E0;" d="M136.619,228.165c-3.404,0-6.809-0.748-9.401-2.244c-2.578-1.49-3.998-3.49-3.998-5.634
						c0-2.144,1.42-4.145,3.998-5.635c5.185-2.993,13.62-2.992,18.803,0l0,0c2.578,1.489,3.998,3.489,3.998,5.634
						c0,2.144-1.419,4.145-3.998,5.634C143.429,227.416,140.024,228.165,136.619,228.165z M136.62,213.109
						c-3.276,0-6.551,0.719-9.046,2.16c-2.349,1.356-3.642,3.138-3.642,5.017c0,1.878,1.293,3.66,3.642,5.016
						c4.988,2.879,13.105,2.879,18.091,0c2.349-1.356,3.642-3.138,3.642-5.017c0-1.879-1.293-3.661-3.642-5.016l0,0
						C143.172,213.83,139.895,213.109,136.62,213.109z"/>
				</g>
				<g>
					<path style="fill:#E0E0E0;" d="M190.605,223.712c-3.405,0-6.809-0.748-9.401-2.244c-2.579-1.49-3.998-3.49-3.998-5.635
						c0-2.144,1.42-4.145,3.998-5.634c5.185-2.993,13.619-2.992,18.802,0c2.578,1.489,3.998,3.489,3.998,5.634
						c0,2.144-1.419,4.145-3.998,5.635C197.414,222.964,194.009,223.712,190.605,223.712z M190.605,208.656
						c-3.276,0-6.55,0.72-9.045,2.161c-2.349,1.355-3.642,3.137-3.642,5.016s1.293,3.661,3.642,5.017
						c4.986,2.88,13.101,2.88,18.09,0c2.349-1.356,3.642-3.138,3.642-5.017s-1.293-3.661-3.642-5.016l0,0
						C197.157,209.376,193.88,208.656,190.605,208.656z"/>
				</g>
				<g>
					<path style="fill:#E0E0E0;" d="M167.467,210.353c-3.405,0.001-6.809-0.747-9.401-2.243c-2.579-1.49-3.998-3.49-3.998-5.635
						c0-2.144,1.42-4.145,3.998-5.634c5.185-2.993,13.62-2.992,18.803,0l0,0c2.578,1.489,3.998,3.489,3.998,5.634
						c0,2.144-1.42,4.145-3.998,5.634C174.277,209.605,170.871,210.353,167.467,210.353z M167.468,195.298
						c-3.276,0-6.552,0.72-9.046,2.161c-2.349,1.355-3.642,3.137-3.642,5.016c0,1.879,1.293,3.661,3.642,5.017
						c4.988,2.879,13.104,2.88,18.091-0.001c2.349-1.355,3.642-3.137,3.642-5.016c0-1.879-1.293-3.661-3.642-5.016l0,0
						C174.019,196.019,170.743,195.298,167.468,195.298z"/>
				</g>
			</g>
		</g>
		<g>
			<path style="fill:#455A64;" d="M161.812,268.078l57.586-33.247c1.135-0.655,2.055-0.124,2.055,1.187v56.32
				c0,1.311-0.92,2.904-2.055,3.56l-57.585,33.247c-1.135,0.655-2.055,0.124-2.055-1.187l0-56.32
				C159.757,270.327,160.677,268.733,161.812,268.078z"/>
			<g>
				<path style="fill:#37474F;" d="M164.748,323.221c-0.277,0-0.538-0.068-0.772-0.202c-0.54-0.313-0.839-0.932-0.838-1.742
					l0.001-47.414c0-1.484,1.007-3.228,2.293-3.97l49.874-28.795c0.702-0.406,1.386-0.456,1.927-0.145
					c0.541,0.312,0.84,0.931,0.84,1.742v47.414c0,1.484-1.007,3.228-2.293,3.971l-49.875,28.794
					C165.505,323.105,165.112,323.221,164.748,323.221z M165.906,270.715c-0.985,0.569-1.818,2.012-1.818,3.149l-0.001,47.414
					c0,0.451,0.132,0.786,0.364,0.92c0.232,0.132,0.588,0.081,0.978-0.144l49.875-28.794c0.985-0.569,1.818-2.012,1.818-3.149
					v-47.414c0-0.451-0.132-0.786-0.364-0.92c-0.232-0.133-0.589-0.081-0.979,0.144L165.906,270.715z"/>
			</g>
		</g>
		<path style="fill:#455A64;" d="M161.813,333.597l57.585-33.247c1.135-0.655,2.055-0.124,2.055,1.187v8.611
			c0,1.311-0.92,2.905-2.054,3.561l-57.543,33.27c-1.135,0.656-2.058,0.125-2.062-1.185l-0.028-8.636
			C159.761,335.846,160.678,334.252,161.813,333.597z"/>
		<g id="XMLID_6088_">
			<path id="XMLID_6106_" style="fill:#455A64;" d="M121.197,292.786c0,0.695,2.081,0.057,4.648-1.425l6.127-3.526
				c2.567-1.482,4.648-3.259,4.649-3.954l0.001-1.259l-15.424,8.905C121.197,291.527,121.197,292.091,121.197,292.786z"/>
		</g>
		<g id="XMLID_6107_">
			<path id="XMLID_6108_" style="fill:#455A64;" d="M244.589,221.545c0,0.695,2.081,0.058,4.648-1.425l6.127-3.526
				c2.567-1.482,4.648-3.259,4.648-3.954l0.001-1.259l-15.424,8.905C244.589,220.286,244.589,220.85,244.589,221.545z"/>
		</g>
		<g id="XMLID_6109_">
			<path id="XMLID_6110_" style="fill:#455A64;" d="M310.142,223.771c0,0.695-2.081,0.057-4.648-1.425l-6.127-3.526
				c-2.567-1.482-4.648-3.259-4.649-3.954l0-1.259l15.424,8.905C310.142,222.512,310.142,223.076,310.142,223.771z"/>
		</g>
		<g id="XMLID_6111_">
			<path id="XMLID_6112_" style="fill:#455A64;" d="M364.127,254.94c0,0.695-2.081,0.058-4.648-1.425l-6.127-3.526
				c-2.567-1.482-4.648-3.259-4.649-3.954l0-1.259l15.424,8.905C364.127,253.681,364.127,254.245,364.127,254.94z"/>
		</g>
		<g id="XMLID_6113_">
			<path id="XMLID_6114_" style="fill:#455A64;" d="M364.127,281.655c0,0.695-2.081,0.057-4.648-1.425l-6.127-3.526
				c-2.567-1.482-4.648-3.259-4.649-3.954l0-1.259l15.424,8.905C364.127,280.396,364.127,280.96,364.127,281.655z"/>
		</g>
		<g id="XMLID_6115_">
			<path id="XMLID_6116_" style="fill:#455A64;" d="M364.127,308.37c0,0.695-2.081,0.058-4.648-1.425l-6.127-3.526
				c-2.567-1.482-4.648-3.259-4.649-3.954l0-1.259l15.424,8.905C364.127,307.111,364.127,307.675,364.127,308.37z"/>
		</g>
		<polygon style="fill:#E6E6E6;" points="329.422,251.454 383.407,282.623 383.407,284.849 329.422,253.681 		"/>
		<polygon style="fill:#E6E6E6;" points="329.423,278.17 383.408,309.338 383.408,311.565 329.423,280.397 		"/>
	</g>
	<g id="Eggs">
		<path id="XMLID_6076_" style="opacity:0.15;" d="M58.675,250.128l17.321-10c0.859-0.496,2.252-0.496,3.112,0l43.633,25.178
			c0.859,0.496,0.859,1.3,0,1.797l-17.32,10c-0.859,0.496-2.252,0.496-3.112,0l-43.633-25.178
			C57.816,251.429,57.816,250.624,58.675,250.128z"/>
		<g id="XMLID_428_">
			<g id="XMLID_1217_">
				<g id="XMLID_6073_">
					<path id="XMLID_6075_" style="fill:#27DEBF;" d="M73.309,248.861c0,2.691-2.181,5.727-4.872,5.727
						c-2.691,0-4.873-3.036-4.873-5.727c0-2.691,2.181-4.872,4.873-4.872C71.127,243.988,73.309,246.169,73.309,248.861z"/>
					<path id="XMLID_6074_" style="opacity:0.6;" d="M73.309,248.861c0,2.691-2.181,5.727-4.872,5.727
						c-2.691,0-4.873-3.036-4.873-5.727c0-2.691,2.181-4.872,4.873-4.872C71.127,243.988,73.309,246.169,73.309,248.861z"/>
				</g>
				<g id="XMLID_6070_">
					<path id="XMLID_6072_" style="fill:#27DEBF;" d="M82.046,253.901c0,2.691-2.181,5.727-4.872,5.727s-4.873-3.036-4.873-5.727
						s2.182-4.872,4.873-4.872S82.046,251.21,82.046,253.901z"/>
					<path id="XMLID_6071_" style="opacity:0.6;" d="M82.046,253.901c0,2.691-2.181,5.727-4.872,5.727s-4.873-3.036-4.873-5.727
						s2.182-4.872,4.873-4.872S82.046,251.21,82.046,253.901z"/>
				</g>
				<g id="XMLID_6067_">
					<path id="XMLID_6069_" style="fill:#27DEBF;" d="M90.783,258.948c0,2.691-2.181,5.727-4.872,5.727s-4.872-3.036-4.872-5.727
						c0-2.691,2.181-4.872,4.872-4.872S90.783,256.258,90.783,258.948z"/>
					<path id="XMLID_6068_" style="opacity:0.6;" d="M90.783,258.948c0,2.691-2.181,5.727-4.872,5.727s-4.872-3.036-4.872-5.727
						c0-2.691,2.181-4.872,4.872-4.872S90.783,256.258,90.783,258.948z"/>
				</g>
				<g id="XMLID_6064_">
					<path id="XMLID_6066_" style="fill:#27DEBF;" d="M99.52,264c0,2.691-2.181,5.727-4.872,5.727s-4.872-3.036-4.872-5.727
						c0-2.691,2.181-4.872,4.872-4.872S99.52,261.309,99.52,264z"/>
					<path id="XMLID_6065_" style="opacity:0.6;" d="M99.52,264c0,2.691-2.181,5.727-4.872,5.727s-4.872-3.036-4.872-5.727
						c0-2.691,2.181-4.872,4.872-4.872S99.52,261.309,99.52,264z"/>
				</g>
				<g id="XMLID_6061_">
					<path id="XMLID_6063_" style="fill:#27DEBF;" d="M108.257,269.056c0,2.691-2.182,5.727-4.873,5.727
						c-2.691,0-4.872-3.036-4.872-5.727s2.181-4.872,4.872-4.872C106.076,264.184,108.257,266.365,108.257,269.056z"/>
					<path id="XMLID_6062_" style="opacity:0.6;" d="M108.257,269.056c0,2.691-2.182,5.727-4.873,5.727
						c-2.691,0-4.872-3.036-4.872-5.727s2.181-4.872,4.872-4.872C106.076,264.184,108.257,266.365,108.257,269.056z"/>
				</g>
				<g id="XMLID_6058_">
					<path id="XMLID_6060_" style="fill:#27DEBF;" d="M117.9,263.396c0,2.691-2.181,5.727-4.872,5.727s-4.872-3.036-4.872-5.727
						c0-2.691,2.181-4.872,4.872-4.872S117.9,260.705,117.9,263.396z"/>
					<path id="XMLID_6059_" style="opacity:0.6;" d="M117.9,263.396c0,2.691-2.181,5.727-4.872,5.727s-4.872-3.036-4.872-5.727
						c0-2.691,2.181-4.872,4.872-4.872S117.9,260.705,117.9,263.396z"/>
				</g>
				<path id="XMLID_1416_" style="fill:#27DEBF;" d="M123.38,260.452c0.003-0.325-0.21-0.65-0.64-0.898l-43.633-25.178
					c-0.859-0.496-2.253-0.496-3.112,0l-17.321,10c-0.431,0.249-0.643,0.574-0.64,0.899c0.003,0.301,0.002,1.384,0,1.685
					c-0.003,0.325,0.21,0.65,0.64,0.898l43.633,25.178c0.859,0.496,2.252,0.496,3.112,0l17.32-10c0.43-0.248,0.643-0.573,0.64-0.898
					C123.378,261.836,123.378,260.754,123.38,260.452z"/>
				<path id="XMLID_1415_" style="opacity:0.2;" d="M123.38,260.452c0.003-0.325-0.21-0.65-0.64-0.898l-43.633-25.178
					c-0.859-0.496-2.253-0.496-3.112,0l-17.321,10c-0.431,0.249-0.643,0.574-0.64,0.899c0.003,0.301,0.002,1.384,0,1.685
					c-0.003,0.325,0.21,0.65,0.64,0.898l43.633,25.178c0.859,0.496,2.252,0.496,3.112,0l17.32-10c0.43-0.248,0.643-0.573,0.64-0.898
					C123.378,261.836,123.378,260.754,123.38,260.452z"/>
				<path id="XMLID_1414_" style="opacity:0.1;" d="M103.891,271.727v1.682c-0.568,0-1.142-0.122-1.581-0.374l-43.632-25.179
					c-0.431-0.244-0.647-0.568-0.647-0.898c0.007-0.302,0.007-1.38,0-1.682c0,0.323,0.216,0.647,0.647,0.898l43.632,25.179
					C102.749,271.605,103.316,271.727,103.891,271.727z"/>
				<path id="XMLID_1413_" style="fill:#27DEBF;" d="M58.675,244.376l17.321-10c0.859-0.496,2.252-0.496,3.112,0l43.633,25.178
					c0.859,0.496,0.859,1.3,0,1.797l-17.32,10c-0.859,0.496-2.252,0.496-3.112,0l-43.633-25.178
					C57.816,245.677,57.816,244.872,58.675,244.376z"/>
				<g id="XMLID_1219_">
					<path id="XMLID_1406_" style="opacity:0.1;" d="M106.755,267.685c1.86-1.074,1.868-2.812,0.016-3.881
						c-1.852-1.069-4.872-1.067-6.746,0.004c-1.874,1.072-1.881,2.809-0.015,3.881C101.874,268.761,104.894,268.759,106.755,267.685
						z"/>
					<path id="XMLID_1405_" style="opacity:0.1;" d="M116.397,262.115c1.86-1.074,1.867-2.812,0.016-3.881
						c-1.852-1.069-4.872-1.067-6.746,0.004c-1.874,1.072-1.881,2.809-0.016,3.881C111.517,263.191,114.537,263.189,116.397,262.115
						z"/>
					<path id="XMLID_1400_" style="opacity:0.1;" d="M98.018,262.635c1.86-1.074,1.868-2.812,0.015-3.881
						c-1.852-1.069-4.872-1.067-6.746,0.004c-1.874,1.072-1.881,2.809-0.016,3.881C93.137,263.712,96.157,263.71,98.018,262.635z"/>
					<path id="XMLID_1252_" style="opacity:0.1;" d="M107.66,257.066c1.86-1.074,1.868-2.812,0.015-3.881
						c-1.852-1.069-4.872-1.067-6.746,0.004c-1.874,1.072-1.881,2.809-0.016,3.881C102.779,258.142,105.8,258.14,107.66,257.066z"/>
					<path id="XMLID_1251_" style="opacity:0.1;" d="M89.281,257.586c1.86-1.074,1.868-2.812,0.015-3.881
						c-1.852-1.069-4.872-1.067-6.746,0.004c-1.874,1.072-1.881,2.809-0.016,3.881C84.4,258.662,87.42,258.66,89.281,257.586z"/>
					<path id="XMLID_1250_" style="opacity:0.1;" d="M98.923,252.016c1.861-1.074,1.868-2.812,0.016-3.881
						c-1.852-1.069-4.872-1.067-6.746,0.004c-1.874,1.072-1.881,2.809-0.016,3.881C94.042,253.092,97.063,253.09,98.923,252.016z"/>
					<path id="XMLID_1229_" style="opacity:0.1;" d="M80.543,252.536c1.86-1.074,1.867-2.812,0.015-3.881
						c-1.852-1.069-4.872-1.068-6.746,0.004c-1.874,1.072-1.881,2.81-0.016,3.881C75.663,253.612,78.683,253.611,80.543,252.536z"/>
					<path id="XMLID_1228_" style="opacity:0.1;" d="M90.186,246.967c1.861-1.074,1.868-2.812,0.016-3.881
						c-1.852-1.069-4.872-1.067-6.746,0.004c-1.874,1.072-1.881,2.809-0.015,3.881C85.305,248.043,88.325,248.041,90.186,246.967z"
						/>
					<path id="XMLID_1221_" style="opacity:0.1;" d="M71.806,247.487c1.861-1.074,1.868-2.812,0.016-3.881
						c-1.852-1.069-4.872-1.067-6.746,0.004c-1.874,1.072-1.881,2.809-0.015,3.881C66.926,248.563,69.946,248.561,71.806,247.487z"
						/>
					<path id="XMLID_1220_" style="opacity:0.1;" d="M81.449,241.917c1.861-1.074,1.868-2.812,0.016-3.881
						c-1.852-1.069-4.872-1.068-6.746,0.004c-1.874,1.072-1.881,2.81-0.015,3.881C76.568,242.993,79.588,242.991,81.449,241.917z"/>
				</g>
			</g>
			<path id="XMLID_1216_" style="fill:#FFFFFA;" d="M117.551,260.093c0,0.079,0,0.158-0.007,0.23
				c-0.014,0.323-0.065,0.639-0.151,0.941c-0.23,0.309-0.561,0.596-0.999,0.848c-1.861,1.078-4.879,1.078-6.74,0.007
				c-0.431-0.244-0.762-0.532-0.992-0.833c-0.086-0.309-0.144-0.632-0.158-0.963c0-0.072-0.007-0.151-0.007-0.23
				c0-0.079,0.007-0.158,0.007-0.23c0.007-0.201,0.014-0.402,0.036-0.596c0.201-2.17,1.157-4.118,2.609-5.576
				c0.481-0.481,1.142-0.776,1.875-0.776c0.733,0,1.401,0.295,1.876,0.776c1.444,1.444,2.4,3.377,2.601,5.526
				c0.022,0.216,0.036,0.431,0.043,0.647C117.551,259.935,117.551,260.014,117.551,260.093z"/>
			<path id="XMLID_1215_" style="fill:#FFFFFA;" d="M108.814,255.038c0,0.079,0,0.158-0.007,0.23
				c-0.014,0.323-0.065,0.64-0.151,0.941c-0.23,0.309-0.561,0.596-0.999,0.848c-1.861,1.078-4.879,1.078-6.74,0.007
				c-0.431-0.244-0.762-0.532-0.992-0.834c-0.086-0.309-0.144-0.632-0.158-0.963c0-0.072-0.007-0.151-0.007-0.23
				c0-0.079,0.007-0.158,0.007-0.23c0.007-0.201,0.014-0.402,0.036-0.596c0.201-2.17,1.157-4.117,2.608-5.576
				c0.481-0.481,1.143-0.776,1.875-0.776c0.733,0,1.401,0.295,1.876,0.776c1.444,1.444,2.4,3.377,2.601,5.526
				c0.022,0.216,0.036,0.431,0.043,0.647C108.814,254.88,108.814,254.959,108.814,255.038z"/>
			<path id="XMLID_1214_" style="fill:#FFFFFA;" d="M107.909,265.663c0,0.079,0,0.158-0.007,0.23
				c-0.014,0.323-0.065,0.64-0.151,0.941c-0.23,0.309-0.561,0.596-0.999,0.848c-1.861,1.078-4.879,1.078-6.74,0.007
				c-0.431-0.244-0.762-0.532-0.992-0.834c-0.086-0.309-0.144-0.632-0.158-0.963c0-0.072-0.007-0.151-0.007-0.23
				c0-0.079,0.007-0.158,0.007-0.23c0.007-0.201,0.014-0.402,0.036-0.596c0.201-2.17,1.157-4.118,2.608-5.576
				c0.481-0.481,1.143-0.776,1.875-0.776c0.733,0,1.401,0.295,1.876,0.776c1.444,1.444,2.4,3.377,2.601,5.526
				c0.022,0.216,0.036,0.431,0.043,0.647C107.909,265.505,107.909,265.584,107.909,265.663z"/>
			<path id="XMLID_1213_" style="fill:#FFFFFA;" d="M99.172,260.608c0,0.079,0,0.158-0.007,0.23
				c-0.014,0.323-0.065,0.64-0.151,0.941c-0.23,0.309-0.561,0.596-0.999,0.848c-1.861,1.078-4.879,1.078-6.74,0.007
				c-0.431-0.244-0.762-0.532-0.992-0.833c-0.086-0.309-0.144-0.632-0.158-0.963c0-0.072-0.007-0.151-0.007-0.23
				s0.007-0.158,0.007-0.23c0.007-0.201,0.014-0.402,0.036-0.596c0.201-2.17,1.157-4.117,2.609-5.576
				c0.481-0.481,1.142-0.776,1.875-0.776c0.733,0,1.401,0.295,1.876,0.776c1.444,1.444,2.4,3.377,2.601,5.526
				c0.022,0.216,0.036,0.431,0.043,0.647C99.172,260.45,99.172,260.529,99.172,260.608z"/>
			<path id="XMLID_1212_" style="fill:#FFFFFA;" d="M100.077,249.983c0,0.079,0,0.158-0.007,0.23
				c-0.014,0.323-0.065,0.64-0.151,0.941c-0.23,0.309-0.56,0.596-0.999,0.848c-1.861,1.078-4.879,1.078-6.74,0.007
				c-0.431-0.244-0.762-0.532-0.992-0.833c-0.086-0.309-0.144-0.632-0.158-0.963c0-0.072-0.007-0.151-0.007-0.23
				s0.007-0.158,0.007-0.23c0.007-0.201,0.014-0.402,0.036-0.596c0.201-2.17,1.157-4.117,2.608-5.576
				c0.481-0.481,1.143-0.776,1.875-0.776c0.733,0,1.401,0.295,1.876,0.776c1.444,1.444,2.4,3.377,2.601,5.526
				c0.022,0.216,0.036,0.431,0.043,0.647C100.077,249.825,100.077,249.904,100.077,249.983z"/>
			<path id="XMLID_1211_" style="fill:#FFFFFA;" d="M91.34,244.928c0,0.079,0,0.158-0.007,0.23c-0.014,0.323-0.065,0.64-0.151,0.941
				c-0.23,0.309-0.561,0.596-0.999,0.848c-1.861,1.078-4.879,1.078-6.74,0.007c-0.431-0.244-0.762-0.532-0.992-0.833
				c-0.086-0.309-0.144-0.632-0.158-0.963c0-0.072-0.007-0.151-0.007-0.23c0-0.079,0.007-0.158,0.007-0.23
				c0.007-0.201,0.014-0.402,0.036-0.596c0.201-2.17,1.157-4.118,2.608-5.576c0.481-0.481,1.143-0.776,1.875-0.776
				c0.733,0,1.401,0.295,1.876,0.776c1.444,1.444,2.4,3.377,2.601,5.526c0.022,0.215,0.036,0.431,0.043,0.647
				C91.34,244.77,91.34,244.85,91.34,244.928z"/>
		</g>
	</g>
	<g id="Cooking_Pot">
		<path id="XMLID_6104_" style="opacity:0.15;" d="M421.462,220.368l-33.943,19.588c-1.839,1.062-4.821,1.062-6.66,0l-37.073-21.404
			c-1.839-1.062-1.839-2.783,0-3.845l33.943-19.588c1.839-1.062,4.821-1.062,6.66,0l37.073,21.404
			C423.302,217.585,423.302,219.306,421.462,220.368z"/>
		<g id="XMLID_6097_">
			<path id="XMLID_6103_" style="fill:#27DEBF;" d="M342.417,211.228c0.014-0.681,0.469-1.358,1.37-1.878l33.943-19.588
				c1.839-1.062,4.821-1.062,6.66,0l37.073,21.404c0.921,0.532,1.376,1.227,1.37,1.923c-0.005,0.645,0.007,2.982,0,3.637
				c-0.007,0.686-0.462,1.369-1.37,1.893l-33.943,19.588c-1.839,1.062-4.821,1.062-6.66,0l-37.073-21.404
				c-0.921-0.532-1.376-1.228-1.37-1.923C342.422,214.234,342.404,211.888,342.417,211.228z"/>
			<path id="XMLID_6102_" style="opacity:0.1;" d="M342.417,211.228c0.014-0.681,0.469-1.358,1.37-1.878l33.943-19.588
				c1.839-1.062,4.821-1.062,6.66,0l37.073,21.404c0.921,0.532,1.376,1.227,1.37,1.923c-0.005,0.645,0.007,2.982,0,3.637
				c-0.007,0.686-0.462,1.369-1.37,1.893l-33.943,19.588c-1.839,1.062-4.821,1.062-6.66,0l-37.073-21.404
				c-0.921-0.532-1.376-1.228-1.37-1.923C342.422,214.234,342.404,211.888,342.417,211.228z"/>
			<path id="XMLID_6101_" style="fill:#27DEBF;" d="M421.462,215.011l-33.943,19.588c-1.839,1.062-4.821,1.062-6.66,0
				l-37.073-21.404c-1.839-1.062-1.839-2.783,0-3.845l33.943-19.588c1.839-1.062,4.821-1.062,6.66,0l37.073,21.404
				C423.302,212.228,423.302,213.949,421.462,215.011z"/>
			<path id="XMLID_6099_" style="fill:#27DEBF;" d="M384.189,235.399v3.607c1.207,0,2.407-0.269,3.33-0.8l33.946-19.585
				c0.908-0.523,1.361-1.207,1.369-1.9c0.008-0.631-0.008-2.807,0-3.545c-0.031,0.661-0.492,1.33-1.369,1.838l-33.946,19.585
				C386.596,235.13,385.397,235.399,384.189,235.399z"/>
			<path id="XMLID_6098_" style="opacity:0.2;" d="M384.189,235.399v3.607c1.207,0,2.407-0.269,3.33-0.8l33.946-19.585
				c0.908-0.523,1.361-1.207,1.369-1.9c0.008-0.631-0.008-2.807,0-3.545c-0.031,0.661-0.492,1.33-1.369,1.838l-33.946,19.585
				C386.596,235.13,385.397,235.399,384.189,235.399z"/>
		</g>
		<path id="XMLID_6087_" style="opacity:0.15;" d="M404.343,198.52c11.374,6.567,11.375,17.214,0.001,23.781
			c-11.374,6.567-29.815,6.567-41.19,0c-11.375-6.567-11.375-17.214-0.001-23.781C374.527,191.953,392.968,191.953,404.343,198.52z"
			/>
		<g id="XMLID_6079_">
			<path id="XMLID_6086_" style="fill:#E0E0E0;" d="M359.2,188.595c0.266,0,0.524-0.138,0.667-0.385
				c0.212-0.368,0.086-0.838-0.282-1.051l-3.124-1.803c-0.549-0.317-0.851-0.703-0.851-1.087c0-0.442,0.385-0.919,1.057-1.307
				l5.835-3.369c1.598-0.924,4.201-0.977,5.684-0.119l3.124,1.803c0.367,0.212,0.838,0.086,1.051-0.282
				c0.213-0.368,0.086-0.838-0.282-1.051l-3.124-1.803c-1.968-1.138-5.139-1.085-7.222,0.119l-5.835,3.369
				c-1.161,0.671-1.826,1.632-1.826,2.639c0,0.958,0.575,1.817,1.62,2.42l3.124,1.803
				C358.937,188.562,359.069,188.595,359.2,188.595z"/>
			<path id="XMLID_6085_" style="fill:#263238;" d="M356.079,191.764c-0.001-4.088,2.699-8.177,8.102-11.297
				c10.806-6.239,28.327-6.24,39.134,0c5.403,3.119,8.103,7.208,8.103,11.296c-0.001,3.027-0.001,14.936,0,17.962
				c0.001,4.088-2.699,8.176-8.102,11.296c-10.806,6.239-28.327,6.239-39.134,0c-5.404-3.12-8.104-7.209-8.103-11.297
				C356.08,206.697,356.08,194.791,356.079,191.764z"/>
			<path id="XMLID_6084_" style="fill:#37474F;" d="M403.315,180.467c10.807,6.239,10.807,16.355,0.001,22.594
				c-10.806,6.239-28.327,6.239-39.134,0c-10.807-6.239-10.807-16.354-0.001-22.594
				C374.987,174.228,392.508,174.228,403.315,180.467z"/>
			<path id="XMLID_6083_" style="fill:#263238;" d="M401.703,181.817c9.916,5.494,9.917,14.401,0.001,19.895
				c-9.916,5.494-25.993,5.494-35.91,0c-9.916-5.493-9.917-14.4-0.001-19.895C375.709,176.323,391.786,176.323,401.703,181.817z"/>
			<path id="XMLID_6082_" style="fill:#27DEBF;" d="M365.793,188.701c9.916-5.494,25.993-5.494,35.91,0
				c3.365,1.864,5.585,4.122,6.666,6.506c-1.081,2.383-3.301,4.641-6.665,6.505c-9.916,5.494-25.993,5.494-35.91,0
				c-3.365-1.864-5.585-4.122-6.666-6.506C360.209,192.822,362.428,190.565,365.793,188.701z"/>
			<path id="XMLID_6081_" style="fill:#E0E0E0;" d="M402.85,212.78c1.346,0,2.718-0.315,3.798-0.938l5.835-3.369
				c1.157-0.668,1.82-1.628,1.82-2.634c0-0.963-0.581-1.828-1.634-2.436l-3.144-1.815c-0.367-0.212-0.837-0.087-1.051,0.282
				c-0.212,0.368-0.086,0.838,0.282,1.051l3.144,1.815c0.558,0.322,0.865,0.714,0.865,1.104c0,0.442-0.383,0.916-1.051,1.301
				l-5.835,3.369c-1.597,0.922-4.2,0.976-5.685,0.119l-3.123-1.804c-0.367-0.213-0.838-0.087-1.051,0.282
				c-0.212,0.368-0.086,0.838,0.282,1.051l3.123,1.804C400.373,212.508,401.6,212.78,402.85,212.78z"/>
			<path id="XMLID_6080_" style="opacity:0.5;fill:#E0E0E0;" d="M405.11,195.587c0,0,1.71-10.38-5.301-19.37
				c-2.373-3.043-8.798-5.441-12.495-6.425c-2.974-0.792-6.847-1.762-8.452-4.824c-0.434-0.828-0.595-1.778-0.598-2.713
				c-0.007-2.162,0.801-4.266,1.963-6.09c2.332-3.66,7.191-6.661,5.344-11.634c-0.863-2.325-3.075-4.583-5.744-4.398
				c-0.608,0.042-1.216,0.146-1.786,0.361c-0.911,0.344-1.71,0.975-2.255,1.781c1.268-0.49,4.448-1.34,5.87,2.267
				c1.422,3.607-5.304,7.772-7.924,9.693c-2.925,2.145-5.898,4.673-7.036,8.249c-0.998,3.134-0.072,6.382,1.482,9.168
				c1.625,2.913,2.603,5.596,1.895,9.054c-0.632,3.086-2.457,5.208-4.522,7.438c-2.079,2.245-3.936,4.558-3.936,7.785
				C368.255,206.302,400.093,207.007,405.11,195.587z"/>
		</g>
	</g>
</g>
<g id="Character">
	<g id="Character_1_">
		<g id="Botom_1_">
			<g id="XMLID_96_">
				<g id="XMLID_97_">
					<path id="XMLID_104_" style="fill:#FFA8A7;" d="M233.571,365.624c3.416,1.967,7.831,1.93,12.012,0.341l2.774-22.448
						l-14.169,1.384L233.571,365.624z"/>
					<path id="XMLID_103_" style="fill:#FFA8A7;" d="M275.892,354.441c2.847,6.322,7.527,4.516,13.241,0.411l0.168-23.274
						l-14.706,0.766L275.892,354.441z"/>
					<g>
						<path id="XMLID_102_" style="fill:#263238;" d="M258.287,387.681c0.372,0.37,0.183,2.823-0.258,3.472
							c-0.473,0.696-3.134,2.832-7.836,3.029c-4.493,0.188-8.48-0.536-11.062-2.286c-2.583-1.75-3.803-3.631-3.974-6.193
							c-0.172-2.562,0.186-5.018-0.973-7.02c-1.07-1.849-2.801-3.948-3.162-4.944c-0.785-2.167,0.124-5.203,0.124-5.203
							L258.287,387.681z"/>
						<path id="XMLID_101_" style="fill:#455A64;" d="M246.647,365.019c0.048,0.95,0.18,1.897,0.463,2.856
							c0.591,2,1.523,3.894,2.579,5.7c0.544,0.93,1.12,1.845,1.791,2.694c1.308,1.654,2.953,3.029,4.343,4.62
							c1.39,1.591,2.554,3.504,2.605,5.587c0.086,3.522-3.766,4.604-6.721,5.04c-3.155,0.465-6.499,0.198-9.536-0.764
							c-3.379-1.07-5.759-3.783-6.224-7.2c-0.133-0.981-0.044-1.978-0.13-2.964c-0.197-2.249-1.296-4.332-2.552-6.234
							c-0.728-1.104-1.524-2.184-1.999-3.411c-0.852-2.205-0.044-4.632,0.606-6.783c0.562-1.858,1.198-3.96,1.852-3.764
							c-0.008,0.378-0.05,0.78,0.122,1.129c0.204,0.414,0.363,0.645,0.486,1.123c0.127,0.499,0.276,0.995,0.491,1.464
							c0.328,0.716,0.825,1.379,1.509,1.769c0.083-1.326,0.167-2.653,0.25-3.979c0.026-0.41,0.066-0.855,0.341-1.16
							c0.28-0.309,0.726-0.391,1.138-0.455c2.498-0.388,5.042-0.777,7.542-0.399c0.375,0.057,0.787,0.156,0.997,0.472
							c0.172,0.259,0.159,0.594,0.141,0.904C246.666,362.544,246.585,363.784,246.647,365.019z"/>
					</g>
					<g>
						<path id="XMLID_100_" style="fill:#263238;" d="M313.828,368.694c0.373,0.768,0.275,2.214-0.157,3.133
							c-0.432,0.919-5.202,3.646-11.66,3.25c-6.458-0.397-10.907-2.971-13.378-4.586c-2.471-1.615-5.035-1.904-8.233-2.068
							c-3.198-0.164-7.405-1.733-8.115-3.224c-0.71-1.491,0.081-4.071,0.081-4.071L313.828,368.694z"/>
						<path id="XMLID_99_" style="fill:#455A64;" d="M287.765,348.997c0.557-0.208,1.114-0.416,1.672-0.624
							c0.307-0.115,0.646-0.23,0.954-0.116c0.414,0.153,0.578,0.639,0.691,1.065c0.23,0.871,0.329,2.003,0.721,2.801
							c0.356,0.724,1.217,1.385,1.823,1.892c1.574,1.315,3.38,2.342,5.186,3.3c2.116,1.121,4.187,1.988,6.371,2.954
							c2.227,0.986,5.179,1.579,6.924,2.74c2.544,1.692,2.896,5.98,0.02,7.692c-2.481,1.476-9.023,3.099-15.906,1.194
							c-3.749-1.038-7.928-5.013-12.843-5.367c-3.126-0.226-9.039-1.068-11.065-3.429c-0.75-1.048,0.223-4.389,1.021-7.274
							c0.871-3.148,1.18-8.066,2.223-7.796c0.08,1.045,0.987,1.644,1.541,2.518c0.49,0.771,0.767,1.655,1.136,2.49
							c0.369,0.836,0.865,1.662,1.643,2.14s1.897,0.5,2.53-0.159c0.915-0.954,0.361-2.62,1.023-3.765
							c0.449-0.776,1.354-1.143,2.195-1.456C286.338,349.53,287.052,349.263,287.765,348.997z"/>
					</g>
					<path id="XMLID_98_" style="fill:#37474F;" d="M238.861,201.381c-1.545,24.607-4.044,78.895-4.044,78.895
						c-0.351,3.057-1.48,10.405-2.038,21.436c-0.809,15.997-0.832,51.687-0.832,51.687s9,3.95,16.09,1.24
						c0,0,7.956-50.898,10.867-66.607c2.558-13.802,7.544-39.799,7.544-39.799l2.332,33.632c0,0-0.798,9.615,0.542,20.322
						c0.913,7.293,4.279,39.83,4.279,39.83s9.059,2.698,17.212-0.732c0,0,0.669-51.701,0.999-58.421
						c0.375-7.661,1.976-86.428,1.976-86.428L238.861,201.381z"/>
					<path style="fill:#263238;" d="M266.447,248.234l4.244-20.075c0,0,10.125-0.582,15.869-6.047c0,0-1.158,5.49-13.952,8.424
						l-4.249,20.314l-0.422,18.888L266.447,248.234z"/>
				</g>
			</g>
		</g>
		<g>
			<path id="XMLID_95_" style="fill:#FFA8A7;" d="M337.403,142.626c-5.379,11.036-10.005,18.964-14.396,26.317
				c-3.348,5.607-7.943,12.325-12.952,10.107c-1.976-0.875-6.955-5.169-9.157-7.679c-13.802-15.732-17.185-24.786-23.236-34.974
				l3.515-16.046c9.779-0.302,13.102,7.862,18.213,16.956c4.649,8.271,8.259,14.846,12.035,20.59
				c5.659-8.206,12.976-18.242,16.91-24.059c3.63-5.368,6.929-9.954,9.941-12.753c3.012-2.798,7.419-4.496,9.857-1.08
				c2.438,3.415,3.749,11.641,1.311,14.653c-2.438,3.012-4.427,3.712-7.152,5.144S338.259,140.869,337.403,142.626z"/>
			<path style="fill:#F28F8F;" d="M337.887,127.326l-0.674,1.204c0,0,1.177,4.248-1.113,7.16c0,0,1.66-0.981,2.405-2.584
				c0,0,1.66,4.351,2.519,6.068c0.164,0.327,0.375,0.643,0.606,0.947c0.215-0.1,0.427-0.195,0.663-0.319
				c0.858-0.451,1.643-0.829,2.392-1.23C342.402,134.148,337.887,127.326,337.887,127.326z"/>
			<g>
				<path style="fill:#37474F;" d="M335.952,114.775l-4.395,2.459c2.947,5.268,8.697,17.952,10.758,21.635
					c0.996,1.78,3.246,2.416,5.026,1.42c1.78-0.996,2.416-3.246,1.42-5.026C346.7,131.58,338.9,120.044,335.952,114.775z"/>
				<path style="fill:#455A64;" d="M334.807,114.238c1.135,0.015,1.585,0.819,1.004,1.794c-0.581,0.976-1.972,1.754-3.108,1.739
					c-1.135-0.015-1.585-0.819-1.004-1.794C332.28,115.002,333.671,114.223,334.807,114.238z"/>
				<g>
					<path style="fill:#E0E0E0;" d="M333.926,116.31c-0.168,0.094-0.382,0.034-0.476-0.134l-15.212-27.191
						c-0.094-0.168-0.034-0.382,0.134-0.476s0.381-0.034,0.476,0.134l15.213,27.191C334.154,116.002,334.094,116.215,333.926,116.31
						z"/>
				</g>
				<g>
					<path style="fill:#E0E0E0;" d="M334.607,115.874c-0.168,0.094-0.381,0.034-0.476-0.134c-5.384-9.624-5.689-13.246-5.957-16.441
						c-0.133-1.587-0.259-3.086-1.029-5.195c-1.016-2.782-2.485-4.599-4.249-5.253c-1.76-0.654-3.326-0.023-4.103,0.412
						c-0.168,0.094-0.382,0.034-0.476-0.134c-0.094-0.168-0.034-0.382,0.134-0.476c0.882-0.493,2.663-1.208,4.688-0.457
						c1.989,0.737,3.558,2.646,4.662,5.669c0.802,2.197,0.932,3.741,1.069,5.377c0.263,3.125,0.56,6.666,5.871,16.158
						C334.836,115.567,334.775,115.78,334.607,115.874z"/>
				</g>
				<g>
					<path style="fill:#E0E0E0;" d="M334.177,115.095c-0.168,0.094-0.382,0.034-0.476-0.134c-5.249-9.382-6.834-13.846-8.107-17.433
						c-0.188-0.53-0.371-1.045-0.559-1.558c-1.286-3.511-3.334-5.627-4.793-6.169c-0.329-0.122-0.797-0.225-1.16-0.022
						c-0.168,0.094-0.381,0.034-0.476-0.134c-0.094-0.168-0.034-0.381,0.134-0.476c0.471-0.264,1.074-0.271,1.743-0.023
						c1.492,0.553,3.752,2.609,5.207,6.584c0.189,0.514,0.372,1.031,0.561,1.563c1.264,3.561,2.838,7.994,8.059,17.325
						C334.406,114.788,334.346,115.001,334.177,115.095z"/>
				</g>
				<g>
					<path style="fill:#E0E0E0;" d="M332.994,112.926c-0.168,0.094-0.381,0.034-0.476-0.134c-2.86-5.111-2.801-9.163-2.75-12.737
						c0.043-2.953,0.079-5.504-1.43-8.201c-1.885-3.37-4.925-4.549-8.13-3.151c-0.177,0.077-0.383-0.004-0.46-0.181
						c-0.077-0.176-0.002-0.373,0.181-0.46c3.569-1.555,6.941-0.265,9.02,3.451c1.601,2.862,1.561,5.626,1.519,8.553
						c-0.05,3.485-0.107,7.437,2.661,12.385C333.223,112.619,333.162,112.832,332.994,112.926z"/>
				</g>
				<g>
					<path style="fill:#E0E0E0;" d="M333.197,116.663c-0.168,0.094-0.382,0.034-0.476-0.134
						c-5.311-9.492-8.172-11.599-10.699-13.458c-1.321-0.972-2.569-1.891-4.021-3.724c-1.999-2.523-2.804-4.858-2.392-6.939
						c0.419-2.118,1.961-3.262,2.842-3.755c0.168-0.094,0.382-0.034,0.476,0.134c0.094,0.168,0.034,0.381-0.134,0.476
						c-0.777,0.435-2.134,1.439-2.498,3.281c-0.365,1.845,0.414,4.047,2.254,6.369c1.394,1.759,2.606,2.651,3.889,3.595
						c2.582,1.901,5.509,4.056,10.894,13.679C333.426,116.356,333.365,116.569,333.197,116.663z"/>
				</g>
				<g>
					<path style="fill:#E0E0E0;" d="M332.759,115.889c-0.168,0.094-0.382,0.034-0.476-0.134
						c-5.223-9.335-8.177-12.994-10.552-15.936c-0.354-0.438-0.697-0.864-1.036-1.292c-2.626-3.321-3.195-6.322-2.885-7.883
						c0.139-0.7,0.461-1.21,0.932-1.474c0.168-0.094,0.382-0.034,0.476,0.134c0.094,0.168,0.034,0.381-0.134,0.476
						c-0.362,0.203-0.519,0.655-0.588,1c-0.303,1.526,0.429,4.38,2.748,7.313c0.338,0.427,0.681,0.851,1.032,1.287
						c2.391,2.961,5.367,6.647,10.618,16.033C332.987,115.582,332.927,115.795,332.759,115.889z"/>
				</g>
				<g>
					<path style="fill:#E0E0E0;" d="M331.529,113.745c-0.168,0.094-0.382,0.034-0.476-0.134c-2.768-4.948-6.165-6.967-9.162-8.748
						c-2.517-1.495-4.893-2.908-6.494-5.77c-2.079-3.716-1.414-7.265,1.778-9.492c0.17-0.112,0.376-0.071,0.486,0.087
						c0.111,0.158,0.072,0.376-0.087,0.487c-2.868,2.001-3.454,5.207-1.568,8.577c1.509,2.698,3.702,4.001,6.241,5.51
						c3.073,1.826,6.556,3.896,9.416,9.008C331.758,113.438,331.698,113.651,331.529,113.745z"/>
				</g>
			</g>
			<path style="fill:#FFA8A7;" d="M341.299,118.962c-2.232,1.885-2.794,6.872-2.232,9.611c0.562,2.739,1.756,6.041,3.442,6.884
				c1.686,0.843,5.865-0.864,5.865-0.864L341.299,118.962z"/>
			<path style="fill:#F28F8F;" d="M339.019,128.29c-0.134-1.792,1.262-2.424,2.28-4.123c0.98-1.635-0.001-3.897-0.339-4.875
				C339.081,121.301,338.573,125.656,339.019,128.29z"/>
			<path style="fill:#FFA8A7;" d="M329.029,132.817c0.674-2.334,2.099-7.084,3.388-8.576c1.289-1.493,4.614-3.664,6.513-5.563
				c1.9-1.9,3.404,2.782,1.464,5.089c-1.939,2.307-3.182,4.765-3.182,4.765L329.029,132.817z"/>
			<path style="fill:#E6E6E6;" d="M278.33,120.035c4.106-0.111,8.688-1.129,13.487,4.397c4.799,5.526,19.633,32.576,19.633,32.576
				l5.146-7.76l13.106,9.941c0,0-8.726,14.994-11.562,18.404c-2.836,3.41-6.908,4.21-11.271,0.938
				c-4.363-3.272-25.691-30.104-25.691-30.104L278.33,120.035z"/>
			<polygon style="fill:#455A64;" points="314.038,153.105 327.387,163.115 326.861,163.996 			"/>
		</g>
		<g id="XMLID_93_">
			<path id="XMLID_94_" style="fill:#F0F0F0;" d="M244.679,121.085c0,0-12.505,1.877-11.894,18.249l3.801,29.596l1.521,35.828
				c8.076,9.15,43.874,8.48,56.131-0.732c0,0,0.828-45.82,0-63.641c-0.588-12.669-5.08-20.887-18.37-20.355l-15.115,0.092
				L244.679,121.085z"/>
		</g>
		<g>
			<path style="fill:#FFA8A7;" d="M203.449,171.034l34.052-24.588c8.789-7.769,8.199-21.421,7.178-25.361
				c-8.448,0.225-13.757,0.557-27.088,13.082c-9.004,8.459-27.499,24.068-31.143,28.948"/>
			<path style="fill:#E6E6E6;" d="M246.795,120.959c-11.399-0.612-12.505-1.244-24.516,7.448
				c-12.011,8.692-35.56,31.813-36.982,34.24l18.152,8.388l36.507-23.82C239.956,147.214,247.763,137.691,246.795,120.959z"/>
		</g>
		<g id="XMLID_78_">
			<g id="XMLID_86_">
				<path id="XMLID_92_" style="fill:#455A64;" d="M276.998,139.803c0-0.909,0.737-1.646,1.646-1.646
					c0.909,0,1.646,0.737,1.646,1.646c0,0.909-0.737,1.646-1.646,1.646C277.735,141.449,276.998,140.712,276.998,139.803z"/>
				<circle id="XMLID_91_" style="fill:#455A64;" cx="279.088" cy="151.459" r="1.646"/>
				<path id="XMLID_90_" style="fill:#455A64;" d="M277.886,163.115c0-0.909,0.737-1.646,1.646-1.646s1.646,0.737,1.646,1.646
					c0,0.909-0.737,1.646-1.646,1.646S277.886,164.024,277.886,163.115z"/>
				<path id="XMLID_89_" style="fill:#455A64;" d="M278.33,174.771c0-0.909,0.737-1.646,1.646-1.646
					c0.909,0,1.646,0.737,1.646,1.646s-0.737,1.646-1.646,1.646C279.067,176.417,278.33,175.68,278.33,174.771z"/>
				<path id="XMLID_88_" style="fill:#455A64;" d="M278.774,186.427c0-0.909,0.737-1.646,1.646-1.646s1.646,0.737,1.646,1.646
					s-0.737,1.646-1.646,1.646S278.774,187.336,278.774,186.427z"/>
				<path id="XMLID_87_" style="fill:#455A64;" d="M279.217,198.083c0-0.909,0.737-1.646,1.646-1.646s1.646,0.737,1.646,1.646
					c0,0.909-0.737,1.646-1.646,1.646S279.217,198.992,279.217,198.083z"/>
			</g>
			<g id="XMLID_79_">
				<circle id="XMLID_85_" style="fill:#455A64;" cx="265.035" cy="140.98" r="1.646"/>
				<path id="XMLID_84_" style="fill:#455A64;" d="M263.833,152.636c0-0.909,0.737-1.646,1.646-1.646
					c0.909,0,1.646,0.737,1.646,1.646c0,0.909-0.737,1.646-1.646,1.646C264.57,154.282,263.833,153.545,263.833,152.636z"/>
				<path id="XMLID_83_" style="fill:#455A64;" d="M264.277,164.292c0-0.909,0.737-1.646,1.646-1.646
					c0.909,0,1.646,0.737,1.646,1.646s-0.737,1.646-1.646,1.646C265.014,165.938,264.277,165.201,264.277,164.292z"/>
				<path id="XMLID_82_" style="fill:#455A64;" d="M264.721,175.948c0-0.909,0.737-1.646,1.646-1.646s1.646,0.737,1.646,1.646
					c0,0.909-0.737,1.646-1.646,1.646S264.721,176.857,264.721,175.948z"/>
				<path id="XMLID_81_" style="fill:#455A64;" d="M265.165,187.604c0-0.909,0.737-1.646,1.646-1.646
					c0.909,0,1.646,0.737,1.646,1.646c0,0.909-0.737,1.646-1.646,1.646C265.902,189.25,265.165,188.513,265.165,187.604z"/>
				<path id="XMLID_80_" style="fill:#455A64;" d="M265.609,199.26c0-0.909,0.737-1.646,1.646-1.646
					c0.909,0,1.646,0.737,1.646,1.646c0,0.909-0.737,1.646-1.646,1.646C266.345,200.906,265.609,200.169,265.609,199.26z"/>
			</g>
		</g>
		<path id="XMLID_77_" style="fill:#E0E0E0;" d="M268.737,130.778c6.261,0.934,15.001,0.814,15.401,4.579
			c0.317,2.987,3.057,69.827,4.194,69.381s-2.508-64.337-2.569-67.81c-0.065-3.702-0.691-4.655-4.148-5.402
			C278.157,130.777,268.737,130.778,268.737,130.778z"/>
		<g id="XMLID_62_">
			<path id="XMLID_76_" style="fill:#263238;" d="M256.216,87.051c0,9.404,7.32,17.028,16.349,17.028
				c9.029,0,15.027-7.717,16.349-17.028c2.172-15.306-7.32-17.028-16.349-17.028S256.216,77.647,256.216,87.051z"/>
			<g id="XMLID_70_">
				<path id="XMLID_75_" style="fill:#263238;" d="M247.875,93.94c0,0,2.507,12.27,3.513,14.286
					c1.006,2.016,3.083,2.589,3.083,2.589l-0.175-8.632L247.875,93.94z"/>
				<path id="XMLID_74_" style="fill:#263238;" d="M251.022,76.362c0,0-1.798-0.45-3.708,2.534
					c-1.637,2.559-2.009,8.305,0.561,15.044l4.723,0.565L251.022,76.362z"/>
				<path id="XMLID_73_" style="fill:#FFA8A7;" d="M254.015,94.509c-0.947,0.589-2.298-1.306-3.467-2.579
					c-1.168-1.273-4.836-2.475-6.738,1.699c-1.938,4.254,1.339,8.299,4.064,9.654c4.874,2.423,6.421-1.1,6.421-1.1l0.395,19.435
					c6.868,10.623,22.542,12.02,16.831-0.514l-0.014-5.915c0,0,4.687,0.741,6.974,0.373c3.805-0.613,6.198-3.739,7.352-8.028
					c1.854-6.889,2.557-12.452,0.985-26.001c-1.724-14.85-18.307-15.005-27.263-9.134C250.6,78.271,254.015,94.509,254.015,94.509z"
					/>
				<path id="XMLID_72_" style="fill:#263238;" d="M274.685,80.497c-1.936-0.023-3.866-0.288-5.755-0.712
					c-1.848-0.415-3.494-0.831-5.929-2.251c-0.204,3.138-2.078,6.118-4.817,7.662c-0.525,0.296-1.116,0.58-1.373,1.124
					c-0.288,0.61-0.05,1.276,0.068,1.895c0.127,0.671,0.023,1.147-0.098,1.792c-0.301,1.597-0.515,3.136-1.079,4.676
					c-0.226,0.616-0.534,1.275-1.134,1.54c-1.101,0.487-1.417-0.914-1.874-1.546c-0.673-0.931-1.306-1.953-2.145-2.748
					c-0.764-0.724-0.893-2.285-1.058-3.25c-0.302-1.762-0.465-3.55-0.601-5.332c-0.114-1.508-0.266-3.044-0.26-4.557
					c0.007-1.698-0.026-3.427,0.396-5.086c0.776-3.048,3.843-5.534,6.52-6.939c7.843-4.115,16.943-2.947,25.461-2.7
					c1.2,0.035,2.497,0.104,3.426,0.866c1.253,1.027,1.349,2.875,1.343,4.495c-0.002,0.488,0.917,1.593,1.07,2.183
					c0.232,0.891,0.27,1.834,0.119,2.742c-0.34,2.062-1.375,3.054-3.124,4.008c-2.422,1.323-5.178,1.999-7.926,2.118
					C275.506,80.496,275.095,80.502,274.685,80.497z"/>
				<path id="XMLID_71_" style="fill:#F28F8F;" d="M271.508,115.19c0,0-8.493-1.782-11.462-3.426
					c-1.987-1.1-3.624-3.007-4.104-4.229c0,0,0.556,2.625,2.332,4.989c2.172,2.891,13.234,5.02,13.234,5.02L271.508,115.19z"/>
			</g>
			<g id="XMLID_63_">
				<path id="XMLID_69_" style="fill:#263238;" d="M269.467,92.297c0,1.017-0.762,1.84-1.702,1.837
					c-0.94-0.003-1.702-0.829-1.702-1.847c0-1.017,0.762-1.839,1.702-1.837C268.704,90.454,269.467,91.28,269.467,92.297z"/>
				<path id="XMLID_68_" style="fill:#263238;" d="M266.733,84.959l-3.641,2.093c-0.537-1.089-0.157-2.441,0.849-3.019
					C264.947,83.454,266.197,83.869,266.733,84.959z"/>
				<path id="XMLID_67_" style="fill:#F28F8F;" d="M270.738,104.542l3.885,1.518c-0.384,1.16-1.566,1.76-2.639,1.341
					C270.912,106.982,270.354,105.702,270.738,104.542z"/>
				<path id="XMLID_66_" style="fill:#263238;" d="M285.079,86.518l-3.32-2.663c0.677-0.99,1.969-1.196,2.886-0.461
					C285.562,84.129,285.756,85.528,285.079,86.518z"/>
				<path id="XMLID_65_" style="fill:#263238;" d="M283.621,91.793c0,1.017-0.762,1.84-1.702,1.836
					c-0.94-0.003-1.702-0.829-1.702-1.846c0-1.017,0.762-1.84,1.702-1.837C282.859,89.949,283.621,90.775,283.621,91.793z"/>
				<polygon id="XMLID_64_" style="fill:#F28F8F;" points="274.514,90.37 274.711,101.119 280.811,99.719 				"/>
			</g>
		</g>
		<g>
			<path id="XMLID_61_" style="fill:#E6E6E6;" d="M253.197,120.68c0,0,0-3.726,0-5.312c0-1.586,1.342-1.251,1.342-1.251l0.068,2.747
				c0.923,1.724,2.684,4.243,4.665,5.669c4.413,3.177,7.374,2.777,7.374,2.777l0.921,4.8c0,0-5.44,0.187-8.717-1.871
				C254.004,125.195,253.197,120.68,253.197,120.68z"/>
			<path id="XMLID_60_" style="fill:#E6E6E6;" d="M269.114,129.994l0.83-4.742c0,0,1.544-0.764,1.576-2.029
				c0.035-1.365,0.014-2.099,0.014-2.099l-0.016-5.506c0,0,1.263-0.148,1.402,1.081c0.115,1.024,0.569,8.159,0.569,8.159
				S274.607,129.437,269.114,129.994z"/>
		</g>
		<g id="XMLID_52_">
			<path id="XMLID_59_" style="fill:#27DEBF;" d="M206.813,159.706c-8.816,18.305-1.124,40.29,17.181,49.106
				s40.29,1.124,49.106-17.181L206.813,159.706z"/>
			<path id="XMLID_58_" style="opacity:0.2;" d="M206.813,159.706c-8.816,18.305-1.124,40.29,17.181,49.106
				s40.29,1.124,49.106-17.181L206.813,159.706z"/>
			<path id="XMLID_57_" style="fill:#27DEBF;" d="M223.037,150.851c-16.542,1.239-22.378,13.354-13.034,27.06
				c9.344,13.706,30.329,23.813,46.871,22.575s22.378-13.354,13.034-27.06C260.565,159.719,239.58,149.612,223.037,150.851z"/>
			<path id="XMLID_56_" style="fill:#27DEBF;" d="M224.19,153.397c-15.046,0.86-20.185,11.528-11.477,23.827
				c8.708,12.3,27.963,21.574,43.009,20.715c15.046-0.859,20.184-11.527,11.477-23.827
				C258.492,161.812,239.236,152.538,224.19,153.397z"/>
			<path id="XMLID_55_" style="opacity:0.2;" d="M224.19,153.397c-15.046,0.86-20.185,11.528-11.477,23.827
				c8.708,12.3,27.963,21.574,43.009,20.715c15.046-0.859,20.184-11.527,11.477-23.827
				C258.492,161.812,239.236,152.538,224.19,153.397z"/>
			<path style="opacity:0.1;" d="M224.19,153.397c-15.046,0.86-20.185,11.528-11.477,23.827c0.669,0.945,1.408,1.87,2.195,2.777
				c0.037-0.049,4.822-6.438,10.966-14.849c4.148-5.679,12.239-9.192,21.887-6.477C240.06,155.019,231.613,152.973,224.19,153.397z"
				/>
			<path id="XMLID_54_" style="fill:#B16668;" d="M209.719,171.822c0.696,1.746,1.686,3.556,2.994,5.403
				c8.708,12.3,27.963,21.574,43.009,20.715c2.851-0.163,5.344-0.679,7.457-1.491c0.796-3.811-0.126-8.288-3.026-12.916
				c-7.275-11.61-24.208-19.766-37.822-18.216C216.422,165.989,212.112,168.381,209.719,171.822z"/>
			<path id="XMLID_53_" style="fill:#9A4A4D;" d="M263.179,196.449c0.193-0.923,0.28-1.886,0.267-2.879
				c-6.727,2.891-17.285,1.264-30.189-6.456c-12.887-7.71-15.651-17.705-7.384-21.962c-1.198-0.005-2.385,0.032-3.543,0.164
				c-5.909,0.673-10.219,3.065-12.612,6.505c0.696,1.746,1.686,3.556,2.994,5.403c8.708,12.3,27.963,21.574,43.009,20.715
				C258.573,197.777,261.066,197.26,263.179,196.449z"/>
		</g>
		<path style="fill:#FFA8A7;" d="M230.154,202.168c-4.15-2.158-6.639-4.909-6.639-4.909c1.961,0.319,3.515,0.534,4.595,0.414
			c2.145-0.239,2.787-1.788,2.764-2.563c-0.019-0.603-1.51-0.438-3.756-1.391c-2.868-1.217-4.653-2.446-7.986-2.956
			c-1.242-0.19-2.89-0.059-4.97-2.354c-7.267-8.019-9.532-14.031-10.713-17.375l-17.19-7.661c-3.199,4.601-1.377,7.741,4.055,16.838
			c3.136,5.252,4.556,7.405,10.705,14.767c3.201,3.832,5.839,6.633,8.699,9.209c8.774,7.898,14.699,9.736,19.336,7.688
			C236.456,208.605,235.779,205.092,230.154,202.168z"/>
		<g>
			<path style="fill:#E6E6E6;" d="M203.449,171.034l-18.152-8.388c-1.422,2.426-1.981,3.761-0.675,8.388
				c1.307,4.627,8.056,14.513,8.056,14.513l13.026-9.131L203.449,171.034z"/>
			<polygon style="fill:#455A64;" points="190.095,181.573 204.406,173.443 190.669,182.484 			"/>
		</g>
		<g>
			<path style="fill:#27DEBF;" d="M246.319,88.531c0.512-0.554,1.081-1.09,1.668-1.608c3.159-2.782,7.097-5.02,11.404-6.667l0.019,0
				c9.653-3.672,24.678-4.985,29.462-1.059l-7.113-38.619c-8.96-3.212-20.494-2.588-30.146,1.084l-0.019,0
				c-4.307,1.647-8.245,3.884-11.404,6.667c-0.587,0.518-1.156,1.054-1.668,1.608L246.319,88.531z"/>
			<path style="opacity:0.1;" d="M246.319,88.531c0.512-0.554,1.081-1.09,1.668-1.608c3.159-2.782,7.097-5.02,11.404-6.667l0.019,0
				c9.653-3.672,24.678-4.985,29.462-1.059l-1.759-9.647c-4.784-3.926-19.81-2.612-29.462,1.059l-0.019,0
				c-4.307,1.647-8.245,3.885-11.404,6.667c-0.587,0.518-1.32,1.182-1.832,1.736L246.319,88.531z"/>
			<g style="opacity:0.1;">
				<path d="M284.068,64.369c-0.778-4.425-3.54-20.14-3.54-20.14s-0.075-0.433-0.168-0.967c-0.093-0.534-0.556-1.101-1.047-1.231
					c-0.49-0.13-0.803,0.299-0.692,0.933l3.693,21.03c0.111,0.634,0.599,1.214,1.083,1.315
					C283.883,65.411,284.18,65.003,284.068,64.369z"/>
				<path d="M274.236,42.404l3.717,21.173c0.111,0.634,0.583,1.158,1.054,1.182c0.471,0.024,0.762-0.46,0.65-1.093l-3.71-21.128
					c-0.111-0.634-0.584-1.189-1.057-1.225C274.418,41.276,274.125,41.77,274.236,42.404z"/>
				<path d="M269.947,42.396l3.732,21.253c0.111,0.634,0.576,1.124,1.039,1.103c0.463-0.021,0.748-0.545,0.637-1.178l-3.727-21.225
					c-0.111-0.634-0.577-1.144-1.041-1.131C270.122,41.231,269.836,41.762,269.947,42.396z"/>
				<path d="M265.721,42.745l3.743,21.319c0.111,0.634,0.571,1.097,1.027,1.043c0.457-0.055,0.737-0.607,0.626-1.241l-3.739-21.295
					c-0.111-0.634-0.573-1.114-1.031-1.066C265.891,41.553,265.61,42.111,265.721,42.745z"/>
				<path d="M261.549,43.398l3.753,21.374c0.111,0.634,0.566,1.072,1.017,0.985c0.451-0.086,0.728-0.665,0.616-1.298l-3.749-21.35
					c-0.111-0.634-0.57-1.088-1.022-1.008C261.712,42.18,261.437,42.764,261.549,43.398z"/>
				<path d="M257.427,44.34l3.764,21.434c0.111,0.634,0.561,1.044,1.006,0.924c0.445-0.12,0.718-0.724,0.606-1.358l-3.759-21.409
					c-0.111-0.634-0.566-1.062-1.012-0.949C257.585,43.095,257.315,43.706,257.427,44.34z"/>
				<path d="M253.294,44.705c-0.006,0.081-0.041,0.282,0.07,0.916l3.779,21.524c0.111,0.634,0.444,1.05,0.745,0.933
					c0.181-0.071,0.363-0.141,0.547-0.208c0.085-0.027,0.167-0.054,0.248-0.08c0.137-0.044,0.157-0.597,0.046-1.23l-3.773-21.487
					c-0.111-0.634-0.498-1.052-0.861-0.928c-0.222,0.075-0.334,0.113-0.549,0.192C253.495,44.35,253.31,44.497,253.294,44.705z"/>
				<path d="M249.378,47.335l3.795,21.614c0.111,0.634,0.545,0.968,0.974,0.756c0.429-0.212,0.691-0.889,0.58-1.523l-3.788-21.575
					c-0.111-0.634-0.555-0.993-0.986-0.792C249.522,46.017,249.267,46.701,249.378,47.335z"/>
				<path d="M245.478,49.541l3.815,21.725c0.111,0.634,0.534,0.917,0.953,0.646c0.419-0.271,0.674-0.995,0.563-1.629l-3.806-21.679
					c-0.111-0.634-0.548-0.948-0.969-0.689C245.612,48.174,245.367,48.908,245.478,49.541z"/>
				<path d="M241.614,51.269c-0.051,0.147-0.033,0.495,0.079,1.129l3.909,21.834c0.115,0.633,0.453,0.914,0.763,0.638
					c0.196-0.174,0.39-0.342,0.569-0.492c0.043-0.037,0.089-0.073,0.134-0.109c0.075-0.059,0.044-0.622-0.067-1.256l-3.833-21.832
					c-0.111-0.634-0.44-0.963-0.729-0.729c-0.176,0.142-0.349,0.285-0.519,0.431C241.851,50.941,241.662,51.13,241.614,51.269z"/>
			</g>
			<path style="opacity:0.1;" d="M244.395,79.012c0.512-0.554,1.245-1.218,1.832-1.736c3.159-2.782,7.097-5.02,11.404-6.667l0.019,0
				c3.806-1.448,8.447-2.529,12.966-3.067c0,0-7.789,0.891-14.737,4.294c-4.672,2.288-9.872,5.855-11.3,8.085L244.395,79.012z"/>
		</g>
	</g>
</g>
<g id="Shelves">
	<polygon id="Shadow_5_" style="fill:#E0E0E0;" points="51.509,117.529 51.509,137.737 115.869,100.579 115.869,80.912 	"/>
	<polygon id="Shadow_4_" style="fill:#E0E0E0;" points="51.509,167.298 51.509,187.507 115.869,150.349 115.869,130.681 	"/>
	<polygon id="Shadow_3_" style="fill:#E0E0E0;" points="448.601,98.51 448.601,118.719 384.242,81.561 384.242,61.894 	"/>
	<g id="Cans_1_">
		<g id="Shelf_2_">
			<path style="fill:#27DEBF;" d="M140.414,146.016v-3.593h-0.002c-0.011-0.342-0.251-0.689-0.72-0.958l-21.709-12.459
				c-0.922-0.529-2.416-0.529-3.337,0l-62.41,35.816c-0.469,0.269-0.708,0.616-0.719,0.958h-0.003v3.593h0.003
				c0.011,0.342,0.251,0.688,0.719,0.958l21.71,12.459c0.922,0.529,2.416,0.529,3.337,0l62.41-35.816
				c0.469-0.269,0.708-0.616,0.719-0.958H140.414z"/>
			<path style="opacity:0.65;fill:#FFFFFF;" d="M140.414,146.016v-3.593h-0.002c-0.011-0.342-0.251-0.689-0.72-0.958l-21.709-12.459
				c-0.922-0.529-2.416-0.529-3.337,0l-62.41,35.816c-0.469,0.269-0.708,0.616-0.719,0.958h-0.003v3.593h0.003
				c0.011,0.342,0.251,0.688,0.719,0.958l21.71,12.459c0.922,0.529,2.416,0.529,3.337,0l62.41-35.816
				c0.469-0.269,0.708-0.616,0.719-0.958H140.414z"/>
			<path style="fill:#27DEBF;" d="M52.235,166.738l21.709,12.459c0.922,0.529,2.416,0.529,3.338,0l62.41-35.816
				c0.922-0.529,0.922-1.386,0-1.915l-21.709-12.459c-0.922-0.529-2.416-0.529-3.337,0l-62.41,35.816
				C51.314,165.352,51.314,166.209,52.235,166.738z"/>
			<path style="opacity:0.8;fill:#FFFFFF;" d="M52.235,166.738l21.709,12.459c0.922,0.529,2.416,0.529,3.338,0l62.41-35.816
				c0.922-0.529,0.922-1.386,0-1.915l-21.709-12.459c-0.922-0.529-2.416-0.529-3.337,0l-62.41,35.816
				C51.314,165.352,51.314,166.209,52.235,166.738z"/>
			<path style="fill:#27DEBF;" d="M75.611,179.596v3.593c-0.601,0-1.202-0.138-1.665-0.398l-21.712-12.457
				c-0.47-0.268-0.709-0.621-0.717-0.958h-0.008v-3.593h0.008c0.005-0.137,0.059-0.274,0.137-0.407
				c-0.252,0.464-0.063,0.996,0.58,1.365l21.712,12.457C74.401,179.466,75.009,179.596,75.611,179.596z"/>
			<path style="opacity:0.5;fill:#FFFFFF;" d="M75.611,179.596v3.593c-0.601,0-1.202-0.138-1.665-0.398l-21.712-12.457
				c-0.47-0.268-0.709-0.621-0.717-0.958h-0.008v-3.593h0.008c0.005-0.137,0.059-0.274,0.137-0.407
				c-0.252,0.464-0.063,0.996,0.58,1.365l21.712,12.457C74.401,179.466,75.009,179.596,75.611,179.596z"/>
		</g>
		<g>
			<g>
				<path style="opacity:0.05;" d="M111.829,143.857c3.971,2.293,10.41,2.293,14.382,0c3.971-2.293,3.971-6.01,0-8.303
					c-3.971-2.293-10.41-2.293-14.382,0C107.858,137.846,107.858,141.564,111.829,143.857z"/>
				<g>
					<path style="fill:#EBEBEB;" d="M128.616,139.646h0.013v-17.145h-17.173v17.145h0.013c-0.072,1.321,0.756,2.655,2.502,3.663
						c3.353,1.936,8.79,1.936,12.143,0C127.86,142.301,128.688,140.967,128.616,139.646z"/>
					<path style="fill:#FAFAFA;" d="M113.971,126.007c3.353,1.936,8.79,1.936,12.143,0c3.353-1.936,3.353-5.075,0-7.011
						c-3.353-1.936-8.79-1.936-12.143,0C110.618,120.932,110.618,124.071,113.971,126.007z"/>
					<path style="fill:#EBEBEB;" d="M114.341,125.72c3.148,1.778,8.253,1.778,11.401,0c3.148-1.778,3.148-4.66,0-6.438
						c-3.148-1.778-8.253-1.778-11.401,0C111.193,121.06,111.193,123.943,114.341,125.72z"/>
					<path style="fill:#F5F5F5;" d="M125.743,120.115c-3.148-1.778-8.253-1.778-11.402,0c-1.386,0.783-2.161,1.78-2.326,2.802
						c0.165,1.023,0.94,2.02,2.326,2.802c3.148,1.778,8.253,1.778,11.401,0c1.386-0.783,2.161-1.78,2.326-2.802
						C127.904,121.895,127.129,120.898,125.743,120.115z"/>
					<path style="fill:#27DEBF;" d="M111.456,136.748c-0.012,1.277,0.827,2.557,2.515,3.531c3.353,1.936,8.79,1.936,12.143,0
						c1.676-0.968,2.515-2.237,2.515-3.505v-11.479c0,1.269-0.838,2.537-2.515,3.505c-3.353,1.936-8.79,1.936-12.143,0
						c-1.688-0.975-2.526-2.254-2.515-3.531V136.748z"/>
					<path style="opacity:0.05;" d="M123.559,144.324c-3.158,0.814-6.996,0.484-9.585-1.018c-1.747-1.004-2.575-2.337-2.505-3.663
						h-0.014v-17.143c0,1.27,0.842,2.54,2.519,3.509c0.267,0.154,0.54,0.295,0.828,0.414v15.311
						C114.801,143.166,119.587,144.871,123.559,144.324z"/>
					<g>
						<path style="fill:#E0E0E0;" d="M122.002,125.559l-0.911-0.526c-0.739-0.427-0.937-1.005-0.442-1.291
							c0.496-0.286,1.497-0.172,2.236,0.255l0.911,0.526c0.739,0.427,0.937,1.005,0.442,1.291
							C123.742,126.1,122.741,125.986,122.002,125.559z"/>
						<path style="fill:#F5F5F5;" d="M121.049,124.538c0.27,0.156,0.708,0.156,0.978,0c0.27-0.156,0.27-0.409,0-0.565
							c-0.27-0.156-0.708-0.156-0.978,0C120.779,124.13,120.779,124.382,121.049,124.538z"/>
						<path style="fill:#F5F5F5;" d="M122.854,125.514c0.27,0.156,0.708,0.156,0.978,0c0.27-0.156,0.27-0.409,0-0.565
							c-0.27-0.156-0.708-0.156-0.978,0C122.584,125.105,122.584,125.358,122.854,125.514z"/>
					</g>
				</g>
			</g>
			<g>
				<path style="opacity:0.05;" d="M96.169,152.88c3.971,2.293,10.41,2.293,14.382,0c3.971-2.293,3.971-6.01,0-8.303
					c-3.971-2.293-10.41-2.293-14.382,0C92.197,146.869,92.197,150.587,96.169,152.88z"/>
				<g>
					<path style="fill:#EBEBEB;" d="M112.955,148.67h0.013v-17.145H95.796v17.145h0.013c-0.072,1.321,0.756,2.655,2.502,3.663
						c3.353,1.936,8.79,1.936,12.143,0C112.199,151.324,113.028,149.99,112.955,148.67z"/>
					<path style="fill:#FAFAFA;" d="M98.311,135.03c3.353,1.936,8.79,1.936,12.143,0c3.353-1.936,3.353-5.075,0-7.011
						c-3.353-1.936-8.79-1.936-12.143,0C94.957,129.955,94.957,133.094,98.311,135.03z"/>
					<path style="fill:#EBEBEB;" d="M98.681,134.743c3.148,1.778,8.253,1.778,11.401,0c3.148-1.778,3.148-4.66,0-6.438
						c-3.148-1.778-8.253-1.778-11.401,0C95.533,130.083,95.533,132.966,98.681,134.743z"/>
					<path style="fill:#F5F5F5;" d="M110.083,129.138c-3.148-1.778-8.253-1.778-11.401,0c-1.386,0.783-2.161,1.78-2.326,2.803
						c0.165,1.023,0.94,2.02,2.326,2.802c3.148,1.778,8.253,1.778,11.401,0c1.386-0.783,2.161-1.78,2.326-2.802
						C112.243,130.918,111.469,129.921,110.083,129.138z"/>
					<path style="fill:#455A64;" d="M95.796,145.771c-0.011,1.277,0.827,2.557,2.515,3.531c3.353,1.936,8.79,1.936,12.143,0
						c1.677-0.968,2.515-2.237,2.515-3.505v-11.479c0,1.269-0.838,2.537-2.515,3.505c-3.353,1.936-8.79,1.936-12.143,0
						c-1.688-0.975-2.526-2.254-2.515-3.531V145.771z"/>
					<path style="opacity:0.05;" d="M107.898,153.347c-3.158,0.814-6.996,0.484-9.585-1.017c-1.747-1.004-2.575-2.337-2.505-3.663
						h-0.014v-17.143c0,1.27,0.842,2.54,2.519,3.508c0.267,0.154,0.54,0.295,0.828,0.414v15.311
						C99.141,152.189,103.927,153.894,107.898,153.347z"/>
					<g>
						<path style="fill:#E0E0E0;" d="M106.342,134.582l-0.911-0.526c-0.739-0.427-0.937-1.005-0.442-1.291
							c0.496-0.286,1.497-0.172,2.236,0.255l0.911,0.526c0.739,0.427,0.937,1.005,0.442,1.291
							C108.082,135.123,107.081,135.009,106.342,134.582z"/>
						<path style="fill:#F5F5F5;" d="M105.389,133.561c0.27,0.156,0.708,0.156,0.978,0c0.27-0.156,0.27-0.409,0-0.565
							c-0.27-0.156-0.708-0.156-0.978,0C105.119,133.152,105.119,133.405,105.389,133.561z"/>
						<path style="fill:#F5F5F5;" d="M107.194,134.537c0.27,0.156,0.708,0.156,0.978,0c0.27-0.156,0.27-0.409,0-0.565
							c-0.27-0.156-0.708-0.156-0.978,0C106.924,134.128,106.924,134.381,107.194,134.537z"/>
					</g>
				</g>
			</g>
			<g>
				<path style="opacity:0.05;" d="M64.848,170.926c3.971,2.293,10.41,2.293,14.382,0c3.971-2.293,3.971-6.01,0-8.303
					c-3.971-2.293-10.41-2.293-14.382,0C60.877,164.915,60.877,168.633,64.848,170.926z"/>
				<g>
					<path style="fill:#EBEBEB;" d="M81.635,166.716h0.013V149.57H64.475v17.145h0.013c-0.072,1.321,0.756,2.655,2.502,3.663
						c3.353,1.936,8.79,1.936,12.143,0C80.879,169.37,81.707,168.036,81.635,166.716z"/>
					<path style="fill:#FAFAFA;" d="M66.99,153.076c3.353,1.936,8.79,1.936,12.143,0c3.353-1.936,3.353-5.075,0-7.011
						c-3.353-1.936-8.79-1.936-12.143,0C63.637,148.001,63.637,151.14,66.99,153.076z"/>
					<path style="fill:#EBEBEB;" d="M67.361,152.79c3.148,1.778,8.253,1.778,11.401,0c3.148-1.778,3.148-4.66,0-6.438
						c-3.148-1.778-8.253-1.778-11.401,0C64.212,148.129,64.212,151.012,67.361,152.79z"/>
					<path style="fill:#F5F5F5;" d="M78.762,147.184c-3.148-1.778-8.253-1.778-11.401,0c-1.386,0.783-2.161,1.78-2.326,2.803
						c0.165,1.023,0.94,2.02,2.326,2.803c3.148,1.778,8.253,1.778,11.401,0c1.386-0.783,2.161-1.78,2.326-2.803
						C80.923,148.964,80.148,147.967,78.762,147.184z"/>
					<path style="fill:#27DEBF;" d="M64.475,163.817c-0.011,1.277,0.827,2.557,2.515,3.531c3.353,1.936,8.79,1.936,12.143,0
						c1.677-0.968,2.515-2.237,2.515-3.505v-11.479c0,1.269-0.838,2.537-2.515,3.505c-3.353,1.936-8.79,1.936-12.143,0
						c-1.688-0.975-2.526-2.254-2.515-3.531V163.817z"/>
					<path style="opacity:0.4;" d="M64.475,163.817c-0.011,1.277,0.827,2.557,2.515,3.531c3.353,1.936,8.79,1.936,12.143,0
						c1.677-0.968,2.515-2.237,2.515-3.505v-11.479c0,1.269-0.838,2.537-2.515,3.505c-3.353,1.936-8.79,1.936-12.143,0
						c-1.688-0.975-2.526-2.254-2.515-3.531V163.817z"/>
					<path style="opacity:0.05;" d="M76.578,171.393c-3.158,0.814-6.996,0.484-9.585-1.018c-1.747-1.004-2.575-2.337-2.505-3.663
						h-0.014V149.57c0,1.27,0.842,2.54,2.519,3.508c0.267,0.154,0.54,0.295,0.828,0.414v15.311
						C67.821,170.235,72.606,171.94,76.578,171.393z"/>
					<g>
						<path style="fill:#E0E0E0;" d="M75.021,152.628l-0.911-0.526c-0.739-0.427-0.937-1.005-0.442-1.291
							c0.495-0.286,1.496-0.172,2.236,0.255l0.911,0.526c0.739,0.427,0.937,1.005,0.442,1.291
							C76.761,153.169,75.76,153.055,75.021,152.628z"/>
						<path style="fill:#F5F5F5;" d="M74.068,151.607c0.27,0.156,0.708,0.156,0.978,0c0.27-0.156,0.27-0.409,0-0.565
							c-0.27-0.156-0.708-0.156-0.978,0C73.798,151.199,73.798,151.452,74.068,151.607z"/>
						<path style="fill:#F5F5F5;" d="M75.874,152.583c0.27,0.156,0.708,0.156,0.978,0c0.27-0.156,0.27-0.409,0-0.565
							c-0.27-0.156-0.708-0.156-0.978,0C75.604,152.174,75.604,152.427,75.874,152.583z"/>
					</g>
				</g>
			</g>
		</g>
	</g>
	<g id="Bottles">
		<g id="Shelf_1_">
			<path style="fill:#27DEBF;" d="M140.547,94.831v-3.593h-0.002c-0.011-0.341-0.251-0.689-0.719-0.958l-21.709-12.459
				c-0.922-0.529-2.416-0.529-3.337,0l-62.41,35.816c-0.469,0.269-0.708,0.616-0.719,0.958h-0.003v3.593h0.003
				c0.011,0.342,0.251,0.688,0.719,0.958l21.71,12.459c0.922,0.529,2.416,0.529,3.337,0l62.41-35.816
				c0.469-0.269,0.708-0.616,0.719-0.958H140.547z"/>
			<path style="opacity:0.65;fill:#FFFFFF;" d="M140.547,94.831v-3.593h-0.002c-0.011-0.341-0.251-0.689-0.719-0.958l-21.709-12.459
				c-0.922-0.529-2.416-0.529-3.337,0l-62.41,35.816c-0.469,0.269-0.708,0.616-0.719,0.958h-0.003v3.593h0.003
				c0.011,0.342,0.251,0.688,0.719,0.958l21.71,12.459c0.922,0.529,2.416,0.529,3.337,0l62.41-35.816
				c0.469-0.269,0.708-0.616,0.719-0.958H140.547z"/>
			<path style="fill:#27DEBF;" d="M52.368,115.553l21.709,12.459c0.922,0.529,2.416,0.529,3.338,0l62.41-35.816
				c0.922-0.529,0.922-1.386,0-1.915l-21.709-12.459c-0.922-0.529-2.416-0.529-3.337,0l-62.41,35.816
				C51.447,114.167,51.447,115.024,52.368,115.553z"/>
			<path style="opacity:0.8;fill:#FFFFFF;" d="M52.368,115.553l21.709,12.459c0.922,0.529,2.416,0.529,3.338,0l62.41-35.816
				c0.922-0.529,0.922-1.386,0-1.915l-21.709-12.459c-0.922-0.529-2.416-0.529-3.337,0l-62.41,35.816
				C51.447,114.167,51.447,115.024,52.368,115.553z"/>
			<path style="fill:#27DEBF;" d="M75.744,128.412v3.593c-0.601,0-1.202-0.138-1.665-0.398l-21.712-12.457
				c-0.47-0.268-0.709-0.621-0.717-0.958h-0.008v-3.593h0.008c0.005-0.137,0.059-0.274,0.137-0.407
				c-0.252,0.464-0.063,0.996,0.58,1.365l21.712,12.457C74.534,128.281,75.143,128.412,75.744,128.412z"/>
			<path style="opacity:0.5;fill:#FFFFFF;" d="M75.744,128.412v3.593c-0.601,0-1.202-0.138-1.665-0.398l-21.712-12.457
				c-0.47-0.268-0.709-0.621-0.717-0.958h-0.008v-3.593h0.008c0.005-0.137,0.059-0.274,0.137-0.407
				c-0.252,0.464-0.063,0.996,0.58,1.365l21.712,12.457C74.534,128.281,75.143,128.412,75.744,128.412z"/>
		</g>
		<g>
			<g id="XMLID_6132_">
				<path id="XMLID_6138_" style="opacity:0.05;" d="M112.265,93.807c-3.316-1.896-3.316-4.969,0-6.865
					c3.316-1.896,8.693-1.896,12.009,0c3.316,1.896,3.316,4.969,0,6.865C120.957,95.703,115.581,95.703,112.265,93.807z"/>
				<path id="XMLID_6137_" style="fill:#F0F0F0;" d="M124.59,64.379c-0.345-0.199-0.714-0.376-1.102-0.53
					c-0.716-0.286-1.201-0.962-1.201-1.733v-3.125h-6.907v3.125c0,0.771-0.484,1.447-1.2,1.733c-0.387,0.155-0.757,0.331-1.102,0.53
					c-1.59,0.918-2.384,2.717-2.384,3.92v21.02c0,1.203,0.795,2.406,2.384,3.324c3.179,1.835,8.333,1.835,11.511,0
					c1.589-0.918,2.384-2.12,2.384-3.323V68.298C126.975,67.096,126.18,65.296,124.59,64.379z"/>
				<path style="fill:#27DEBF;" d="M124.592,72.613c-3.177,1.816-8.328,1.816-11.504,0c-1.588-0.908-2.383-2.098-2.383-3.288v14.905
					c0,1.19,0.794,2.38,2.383,3.288c3.177,1.816,8.327,1.816,11.504,0c1.588-0.908,2.383-2.098,2.383-3.288V69.324
					C126.975,70.514,126.18,71.704,124.592,72.613z"/>
				<path id="XMLID_6136_" style="opacity:0.1;" d="M113.319,89.369c0-2.035,0-17.045,0-20.581c0-0.998,0.211-2.352,1.407-2.959
					c2.387-1.209,2.691-2.186,2.691-3.411c0-1.162,0-1.502,0-3.427h-2.036v3.125c0,0.771-0.484,1.447-1.2,1.733
					c-0.387,0.155-0.757,0.331-1.102,0.53c-1.59,0.918-2.384,2.717-2.384,3.92v21.02c0,1.203,0.795,2.406,2.384,3.323
					c2.287,1.321,5.594,1.686,8.454,1.106C114.919,94.204,113.319,91.398,113.319,89.369z"/>
				<path id="XMLID_6135_" style="fill:#37474F;" d="M122.496,58.063v0.922c0.004,0.55-0.362,1.103-1.092,1.526
					c-1.454,0.839-3.812,0.839-5.27,0c-0.362-0.21-0.637-0.452-0.817-0.713c-0.181-0.257-0.271-0.532-0.271-0.807v-0.937
					c0-0.083,0.007-0.166,0.029-0.25c0.09-0.467,0.445-0.919,1.06-1.273c0.018-0.011,0.036-0.022,0.054-0.029
					c1.461-0.81,3.78-0.799,5.216,0.029c0.615,0.354,0.973,0.807,1.063,1.27C122.489,57.889,122.496,57.976,122.496,58.063z"/>
				<path id="XMLID_6134_" style="fill:#263238;" d="M116.135,59.576c-1.455-0.84-1.455-2.202,0-3.042
					c1.455-0.84,3.814-0.84,5.269,0c1.455,0.84,1.455,2.202,0,3.042C119.95,60.416,117.59,60.416,116.135,59.576z"/>
				<path id="XMLID_6133_" style="fill:#37474F;" d="M122.496,55.212v2.329c0,0.087-0.007,0.174-0.029,0.26
					c-0.09,0.463-0.449,0.915-1.063,1.27c-0.651,0.376-1.483,0.582-2.329,0.618c-1.053,0.051-2.134-0.155-2.941-0.622
					c-0.362-0.21-0.633-0.448-0.817-0.709c-0.127-0.177-0.206-0.365-0.242-0.553c-0.022-0.083-0.029-0.17-0.029-0.253v-2.347
					c0-0.553,0.362-1.103,1.089-1.523c0.065-0.036,0.13-0.072,0.199-0.105c1.465-0.734,3.682-0.698,5.071,0.105
					C122.135,54.105,122.5,54.659,122.496,55.212z"/>
				<path style="fill:#455A64;" d="M122.496,55.194c0,1.183-1.668,2.142-3.726,2.142c-2.058,0-3.726-0.959-3.726-2.142
					c0-1.183,1.668-2.142,3.726-2.142C120.828,53.052,122.496,54.011,122.496,55.194z"/>
			</g>
			<g id="XMLID_6118_">
				<path id="XMLID_6124_" style="opacity:0.05;" d="M82.067,110.953c-3.316-1.896-3.316-4.969,0-6.865
					c3.316-1.896,8.693-1.896,12.009,0c3.316,1.896,3.316,4.969,0,6.865S85.383,112.848,82.067,110.953z"/>
				<path id="XMLID_6123_" style="fill:#27DEBF;" d="M94.393,81.524c-0.345-0.199-0.714-0.376-1.102-0.53
					c-0.716-0.286-1.2-0.962-1.2-1.733v-3.124h-6.907v3.124c0,0.771-0.484,1.447-1.2,1.733c-0.387,0.155-0.757,0.331-1.102,0.53
					c-1.59,0.918-2.384,2.717-2.384,3.92v21.02c0,1.203,0.795,2.406,2.384,3.323c3.179,1.835,8.333,1.835,11.511,0
					c1.589-0.918,2.384-2.12,2.384-3.323V85.444C96.777,84.241,95.982,82.442,94.393,81.524z"/>
				<path id="XMLID_6122_" style="opacity:0.1;" d="M83.121,106.514c0-2.035,0-17.045,0-20.581c0-0.998,0.21-2.352,1.407-2.958
					c2.387-1.209,2.691-2.186,2.691-3.411c0-1.162,0-1.502,0-3.427h-2.036v3.124c0,0.771-0.484,1.447-1.2,1.733
					c-0.388,0.155-0.757,0.331-1.102,0.53c-1.59,0.918-2.384,2.717-2.384,3.92v21.02c0,1.203,0.795,2.406,2.384,3.323
					c2.287,1.321,5.594,1.686,8.454,1.106C84.721,111.35,83.121,108.543,83.121,106.514z"/>
				<path id="XMLID_6121_" style="fill:#37474F;" d="M92.298,75.208v0.922c0.004,0.55-0.362,1.103-1.092,1.526
					c-1.454,0.839-3.813,0.839-5.27,0c-0.362-0.21-0.637-0.452-0.817-0.713c-0.181-0.257-0.271-0.532-0.271-0.807v-0.937
					c0-0.083,0.007-0.166,0.029-0.25c0.09-0.467,0.445-0.919,1.06-1.273c0.018-0.011,0.036-0.022,0.054-0.029
					c1.461-0.81,3.78-0.799,5.216,0.029c0.615,0.354,0.973,0.807,1.063,1.27C92.291,75.034,92.298,75.121,92.298,75.208z"/>
				<path id="XMLID_6120_" style="fill:#263238;" d="M85.938,76.721c-1.455-0.84-1.455-2.202,0-3.042c1.455-0.84,3.814-0.84,5.269,0
					c1.455,0.84,1.455,2.202,0,3.042C89.752,77.561,87.393,77.561,85.938,76.721z"/>
				<path id="XMLID_6119_" style="fill:#37474F;" d="M92.298,72.358v2.33c0,0.087-0.007,0.174-0.029,0.26
					c-0.09,0.463-0.449,0.915-1.063,1.27c-0.651,0.376-1.483,0.582-2.329,0.618c-1.053,0.051-2.134-0.156-2.941-0.622
					c-0.362-0.21-0.633-0.449-0.817-0.709c-0.127-0.177-0.206-0.365-0.242-0.553c-0.022-0.083-0.029-0.17-0.029-0.253V72.35
					c0-0.553,0.362-1.103,1.089-1.523c0.065-0.036,0.13-0.072,0.199-0.105c1.465-0.734,3.682-0.698,5.071,0.105
					C91.937,71.251,92.302,71.804,92.298,72.358z"/>
				<path style="fill:#455A64;" d="M92.298,72.339c0,1.183-1.668,2.142-3.726,2.142s-3.726-0.959-3.726-2.142
					c0-1.183,1.668-2.142,3.726-2.142S92.298,71.156,92.298,72.339z"/>
			</g>
			<g id="XMLID_2043_">
				<path id="XMLID_6078_" style="opacity:0.05;" d="M66.968,119.525c-3.316-1.896-3.316-4.969,0-6.865
					c3.316-1.896,8.693-1.896,12.009,0s3.316,4.969,0,6.865C75.66,121.421,70.284,121.421,66.968,119.525z"/>
				<path id="XMLID_2441_" style="fill:#F0F0F0;" d="M79.294,90.097c-0.345-0.199-0.714-0.376-1.102-0.53
					c-0.717-0.286-1.2-0.962-1.2-1.733v-3.125h-6.907v3.125c0,0.771-0.484,1.447-1.2,1.733c-0.388,0.155-0.757,0.331-1.102,0.53
					c-1.59,0.918-2.384,2.717-2.384,3.92v21.02c0,1.203,0.795,2.406,2.384,3.324c3.179,1.835,8.333,1.835,11.512,0
					c1.589-0.918,2.384-2.12,2.384-3.323V94.016C81.678,92.814,80.883,91.015,79.294,90.097z"/>
				<path style="fill:#455A64;" d="M79.295,98.331c-3.177,1.816-8.327,1.816-11.504,0c-1.588-0.908-2.383-2.098-2.383-3.288v14.905
					c0,1.19,0.794,2.38,2.383,3.288c3.177,1.816,8.328,1.816,11.504,0c1.589-0.908,2.383-2.098,2.383-3.288V95.042
					C81.678,96.232,80.884,97.423,79.295,98.331z"/>
				<path id="XMLID_2438_" style="opacity:0.1;" d="M68.022,115.087c0-2.035,0-17.045,0-20.581c0-0.999,0.211-2.353,1.407-2.959
					c2.387-1.209,2.691-2.186,2.691-3.411c0-1.162,0-1.502,0-3.427h-2.036v3.125c0,0.771-0.484,1.447-1.2,1.733
					c-0.388,0.155-0.757,0.331-1.102,0.53c-1.59,0.918-2.384,2.717-2.384,3.92v21.02c0,1.203,0.795,2.406,2.384,3.324
					c2.287,1.32,5.594,1.685,8.455,1.106C69.622,119.922,68.022,117.116,68.022,115.087z"/>
				<path id="XMLID_2142_" style="fill:#27DEBF;" d="M77.2,83.781v0.922c0.004,0.55-0.362,1.103-1.092,1.526
					c-1.454,0.839-3.812,0.839-5.27,0c-0.362-0.21-0.637-0.452-0.817-0.713c-0.181-0.257-0.271-0.532-0.271-0.807v-0.937
					c0-0.083,0.007-0.166,0.029-0.25c0.09-0.467,0.445-0.919,1.06-1.273c0.018-0.011,0.036-0.022,0.054-0.029
					c1.461-0.81,3.78-0.799,5.216,0.029c0.615,0.354,0.973,0.807,1.063,1.27C77.192,83.607,77.2,83.694,77.2,83.781z"/>
				<path id="XMLID_6126_" style="opacity:0.1;" d="M77.2,83.781v0.922c0.004,0.55-0.362,1.103-1.092,1.526
					c-1.454,0.839-3.812,0.839-5.27,0c-0.362-0.21-0.637-0.452-0.817-0.713c-0.181-0.257-0.271-0.532-0.271-0.807v-0.937
					c0-0.083,0.007-0.166,0.029-0.25c0.09-0.467,0.445-0.919,1.06-1.273c0.018-0.011,0.036-0.022,0.054-0.029
					c1.461-0.81,3.78-0.799,5.216,0.029c0.615,0.354,0.973,0.807,1.063,1.27C77.192,83.607,77.2,83.694,77.2,83.781z"/>
				<path id="XMLID_2045_" style="opacity:0.1;" d="M70.839,85.294c-1.455-0.84-1.455-2.202,0-3.042c1.455-0.84,3.814-0.84,5.269,0
					c1.455,0.84,1.455,2.202,0,3.042C74.653,86.134,72.294,86.134,70.839,85.294z"/>
				<path id="XMLID_2044_" style="fill:#27DEBF;" d="M77.2,80.93v2.329c0,0.087-0.007,0.174-0.029,0.261
					c-0.09,0.463-0.449,0.915-1.063,1.27c-0.651,0.376-1.483,0.582-2.329,0.619c-1.053,0.05-2.134-0.156-2.941-0.622
					c-0.362-0.21-0.633-0.449-0.817-0.709c-0.127-0.177-0.206-0.365-0.242-0.553c-0.022-0.083-0.029-0.17-0.029-0.253v-2.347
					c0-0.553,0.362-1.103,1.089-1.523c0.065-0.036,0.13-0.072,0.199-0.105c1.465-0.734,3.682-0.698,5.071,0.105
					C76.838,79.824,77.203,80.377,77.2,80.93z"/>
				<path id="XMLID_6125_" style="opacity:0.1;" d="M77.2,80.93v2.329c0,0.087-0.007,0.174-0.029,0.261
					c-0.09,0.463-0.449,0.915-1.063,1.27c-0.651,0.376-1.483,0.582-2.329,0.619c-1.053,0.05-2.134-0.156-2.941-0.622
					c-0.362-0.21-0.633-0.449-0.817-0.709c-0.127-0.177-0.206-0.365-0.242-0.553c-0.022-0.083-0.029-0.17-0.029-0.253v-2.347
					c0-0.553,0.362-1.103,1.089-1.523c0.065-0.036,0.13-0.072,0.199-0.105c1.465-0.734,3.682-0.698,5.071,0.105
					C76.838,79.824,77.203,80.377,77.2,80.93z"/>
				<path style="fill:#27DEBF;" d="M77.2,80.912c0,1.183-1.668,2.142-3.726,2.142s-3.726-0.959-3.726-2.142
					c0-1.183,1.668-2.142,3.726-2.142S77.2,79.729,77.2,80.912z"/>
			</g>
		</g>
	</g>
	<g id="Book_Shelf">
		<g id="Shelf">
			<path style="fill:#27DEBF;" d="M359.711,75.958v-3.593h0.002c0.011-0.341,0.251-0.689,0.72-0.958l21.71-12.459
				c0.922-0.529,2.416-0.529,3.337,0l62.41,35.816c0.469,0.269,0.708,0.616,0.719,0.958h0.003v3.593h-0.003
				c-0.011,0.342-0.251,0.688-0.719,0.958l-21.71,12.459c-0.922,0.529-2.416,0.529-3.337,0l-62.41-35.816
				c-0.469-0.269-0.708-0.616-0.719-0.958H359.711z"/>
			<path style="opacity:0.65;fill:#FFFFFF;" d="M359.711,75.958v-3.593h0.002c0.011-0.341,0.251-0.689,0.72-0.958l21.71-12.459
				c0.922-0.529,2.416-0.529,3.337,0l62.41,35.816c0.469,0.269,0.708,0.616,0.719,0.958h0.003v3.593h-0.003
				c-0.011,0.342-0.251,0.688-0.719,0.958l-21.71,12.459c-0.922,0.529-2.416,0.529-3.337,0l-62.41-35.816
				c-0.469-0.269-0.708-0.616-0.719-0.958H359.711z"/>
			<path style="fill:#27DEBF;" d="M447.889,96.679l-21.709,12.459c-0.922,0.529-2.416,0.529-3.338,0l-62.41-35.816
				c-0.922-0.529-0.922-1.386,0-1.915l21.71-12.459c0.922-0.529,2.416-0.529,3.337,0l62.41,35.816
				C448.811,95.293,448.811,96.151,447.889,96.679z"/>
			<path style="opacity:0.8;fill:#FFFFFF;" d="M447.889,96.679l-21.709,12.459c-0.922,0.529-2.416,0.529-3.338,0l-62.41-35.816
				c-0.922-0.529-0.922-1.386,0-1.915l21.71-12.459c0.922-0.529,2.416-0.529,3.337,0l62.41,35.816
				C448.811,95.293,448.811,96.151,447.889,96.679z"/>
			<path style="fill:#27DEBF;" d="M424.514,109.538v3.593c0.601,0,1.202-0.138,1.665-0.398l21.712-12.457
				c0.47-0.268,0.709-0.62,0.717-0.958h0.008v-3.593h-0.008c-0.005-0.137-0.059-0.274-0.137-0.407
				c0.252,0.464,0.063,0.996-0.58,1.365l-21.712,12.457C425.724,109.408,425.115,109.538,424.514,109.538z"/>
			<path style="opacity:0.5;fill:#FFFFFF;" d="M424.514,109.538v3.593c0.601,0,1.202-0.138,1.665-0.398l21.712-12.457
				c0.47-0.268,0.709-0.62,0.717-0.958h0.008v-3.593h-0.008c-0.005-0.137-0.059-0.274-0.137-0.407
				c0.252,0.464,0.063,0.996-0.58,1.365l-21.712,12.457C425.724,109.408,425.115,109.538,424.514,109.538z"/>
		</g>
		<g id="XMLID_6158_">
			<g id="XMLID_6159_">
				<polygon id="XMLID_6164_" points="412.851,79.151 394.457,89.637 364.071,72.199 382.463,61.711 				"/>
				<path id="XMLID_6163_" style="fill:#F5F5F5;" d="M394.248,88.84l17.743-10.183c-0.464-1.315-0.429-2.85,0.096-4.601
					L394.457,84.13C394.457,84.13,394.12,85.241,394.248,88.84z"/>
				<path id="XMLID_6162_" style="fill:#263238;" d="M395.362,82.693c-0.941,0.54-1.705,1.854-1.705,2.935v3.429
					c0,1.081,0.763,1.519,1.705,0.978L412.849,80l0.002-0.849l-17.253,9.838c-0.565,0.324-1.022,0.061-1.022-0.587l0.016-3.177
					c0.001-0.649,0.459-1.437,1.024-1.761l17.233-9.843v-0.963L395.362,82.693z"/>
				<path id="XMLID_6161_" style="fill:#455A64;" d="M412.849,72.66l-30.387-17.438l-17.485,10.034
					c-0.941,0.54-1.705,1.855-1.705,2.935l-0.001,3.43c0.001,0.538,0.19,0.918,0.5,1.096l30.387,17.438
					c-0.31-0.178-0.499-0.557-0.5-1.096l-0.003-3.431c0-1.08,0.764-2.395,1.705-2.935L412.849,72.66z"/>
				<path id="XMLID_6160_" style="fill:#37474F;" d="M394.155,83.957c-0.309,0.531-0.499,1.13-0.499,1.67l0.003,3.431
					c0.001,0.538,0.19,0.918,0.5,1.096l-30.387-17.438c-0.31-0.178-0.499-0.557-0.5-1.096l0.001-3.43c0-0.54,0.191-1.139,0.499-1.67
					L394.155,83.957z"/>
				<g>
					<path style="fill:#FFFFFF;" d="M365.988,72.021l0.136,0.039c0.083,0.025,0.088-0.041,0.088-0.171v-2.026
						c0-0.136-0.009-0.188-0.094-0.259l-0.13-0.115v-0.262l1.399,0.808l0.108,0.796l-0.193-0.024
						c-0.114-0.542-0.19-0.625-0.471-0.787l-0.201-0.116v1.135l0.134,0.077c0.207,0.119,0.22,0.123,0.263-0.21l0.158,0.06v1.1
						l-0.158-0.047c-0.043-0.418-0.023-0.481-0.235-0.603l-0.162-0.093v0.812c0,0.166,0.014,0.205,0.105,0.278l0.181,0.145v0.261
						l-0.929-0.536V72.021z"/>
					<path style="fill:#FFFFFF;" d="M367.894,73.122l0.137,0.04c0.07,0.018,0.073-0.045,0.073-0.167V71.85
						c0-0.197-0.008-0.254-0.096-0.327l-0.138-0.11l0.02-0.255l0.533,0.259l0.034,0.05l0.02,0.383l0.008,0.005
						c0.063-0.143,0.182-0.328,0.431-0.184c0.188,0.108,0.34,0.349,0.34,0.667c0,0.232-0.079,0.34-0.232,0.251
						c-0.127-0.074-0.198-0.207-0.198-0.333c0-0.061,0.014-0.123,0.065-0.238c-0.205-0.17-0.38,0.03-0.38,0.44v0.777
						c0,0.123,0.004,0.173,0.071,0.229l0.244,0.197v0.258l-0.929-0.537V73.122z"/>
					<path style="fill:#FFFFFF;" d="M369.633,73.344c0-0.803,0.306-1.08,0.737-0.832c0.345,0.2,0.566,0.633,0.566,1.161
						c0,0.131-0.011,0.299-0.036,0.424l-0.845-0.488c0.005,0.405,0.15,0.712,0.369,0.837c0.176,0.102,0.288,0.066,0.405-0.011
						l0.125,0.282c-0.114,0.157-0.3,0.319-0.633,0.128C369.851,74.575,369.633,73.924,369.633,73.344z M370.536,73.557
						c0.006-0.055,0.008-0.149,0.008-0.228c0-0.306-0.078-0.442-0.212-0.52c-0.19-0.109-0.267,0.13-0.278,0.469L370.536,73.557z"/>
					<path style="fill:#FFFFFF;" d="M371.411,75.152l0.137,0.039c0.073,0.021,0.073-0.045,0.073-0.167v-1.144
						c0-0.197-0.008-0.254-0.096-0.326l-0.139-0.111l0.02-0.255l0.535,0.26l0.034,0.051l0.021,0.4l0.007,0.004
						c0.077-0.16,0.188-0.341,0.471-0.178c0.382,0.221,0.462,0.612,0.462,1.013v1.079c0,0.118,0.007,0.162,0.087,0.229l0.133,0.112
						v0.262l-0.813-0.47v-0.257l0.102,0.024c0.074,0.02,0.086-0.013,0.086-0.135v-0.873c0-0.31-0.023-0.52-0.213-0.63
						c-0.181-0.105-0.292,0.006-0.292,0.399v0.795c0,0.122,0.009,0.171,0.071,0.229l0.119,0.117v0.258l-0.805-0.465V75.152z"/>
					<path style="fill:#FFFFFF;" d="M373.586,75.631c0-0.76,0.299-1.09,0.771-0.816c0.417,0.24,0.55,0.67,0.55,0.919
						c0,0.192-0.075,0.285-0.216,0.203c-0.067-0.039-0.209-0.146-0.209-0.357c0-0.065,0.028-0.123,0.087-0.242
						c-0.048-0.08-0.107-0.14-0.19-0.188c-0.265-0.153-0.37,0.145-0.37,0.621c0,0.515,0.147,0.832,0.369,0.959
						c0.181,0.104,0.289,0.065,0.411-0.008L374.906,77c-0.139,0.177-0.34,0.298-0.629,0.13
						C373.843,76.88,373.586,76.251,373.586,75.631z"/>
					<path style="fill:#FFFFFF;" d="M375.319,77.409l0.136,0.039c0.074,0.021,0.074-0.045,0.074-0.167v-2.284
						c0-0.153-0.02-0.199-0.108-0.276l-0.127-0.109l0.023-0.262l0.587,0.313l0.031,0.066v1.362l0.008,0.005
						c0.062-0.108,0.196-0.254,0.445-0.109c0.371,0.213,0.456,0.608,0.456,1.009v1.078c0,0.117,0.008,0.162,0.088,0.229l0.133,0.112
						v0.262l-0.814-0.47v-0.258l0.103,0.024c0.073,0.021,0.085-0.012,0.085-0.134v-0.874c0-0.309-0.023-0.519-0.212-0.629
						c-0.17-0.098-0.292,0.006-0.292,0.4v0.795c0,0.122,0.008,0.17,0.07,0.229l0.119,0.117v0.258l-0.804-0.464V77.409z"/>
					<path style="fill:#FFFFFF;" d="M378.328,79.146l0.162,0.046c0.065,0.02,0.076-0.03,0.076-0.183v-2.004
						c0-0.135,0-0.183-0.082-0.252l-0.157-0.138v-0.262l0.904,0.522c0.601,0.346,1.011,0.985,1.011,1.989
						c0,0.961-0.299,1.478-1.152,0.985l-0.763-0.44V79.146z M379.808,78.625c0-0.65-0.196-1.226-0.716-1.527l-0.106-0.06v2.419
						c0.031,0.025,0.114,0.087,0.177,0.123C379.708,79.895,379.808,79.31,379.808,78.625z"/>
					<path style="fill:#FFFFFF;" d="M380.756,79.766c0-0.803,0.306-1.081,0.736-0.832c0.346,0.199,0.566,0.633,0.566,1.16
						c0,0.131-0.011,0.299-0.036,0.425l-0.844-0.488c0.005,0.405,0.149,0.711,0.368,0.837c0.176,0.101,0.289,0.066,0.405-0.011
						l0.125,0.281c-0.113,0.157-0.3,0.32-0.632,0.128C380.974,80.997,380.756,80.347,380.756,79.766z M381.66,79.978
						c0.006-0.054,0.008-0.148,0.008-0.227c0-0.306-0.079-0.443-0.212-0.52c-0.19-0.11-0.267,0.13-0.278,0.469L381.66,79.978z"/>
					<path style="fill:#FFFFFF;" d="M382.565,81.139l0.209,0.099c0.088,0.43,0.244,0.603,0.388,0.686
						c0.134,0.077,0.213,0.014,0.213-0.157c0-0.472-0.799-0.592-0.799-1.483c0-0.415,0.21-0.604,0.553-0.406
						c0.119,0.069,0.252,0.202,0.32,0.32l0.023-0.122l0.164,0.095l0.032,0.777l-0.21-0.143c-0.056-0.334-0.178-0.544-0.334-0.633
						c-0.137-0.079-0.196-0.004-0.196,0.127c0,0.471,0.79,0.579,0.79,1.522c0,0.384-0.169,0.662-0.561,0.436
						c-0.167-0.097-0.289-0.241-0.36-0.352l-0.031,0.127l-0.157-0.09L382.565,81.139z"/>
					<path style="fill:#FFFFFF;" d="M384.208,82.087l0.209,0.099c0.087,0.43,0.244,0.603,0.388,0.686
						c0.134,0.077,0.213,0.014,0.213-0.157c0-0.471-0.799-0.592-0.799-1.483c0-0.415,0.209-0.604,0.552-0.406
						c0.119,0.069,0.252,0.202,0.32,0.32l0.023-0.122l0.164,0.095l0.032,0.777l-0.21-0.143c-0.057-0.334-0.178-0.544-0.334-0.633
						c-0.137-0.079-0.196-0.004-0.196,0.127c0,0.471,0.79,0.579,0.79,1.522c0,0.384-0.169,0.662-0.561,0.436
						c-0.167-0.096-0.289-0.241-0.36-0.352l-0.03,0.126l-0.156-0.09L384.208,82.087z"/>
					<path style="fill:#FFFFFF;" d="M385.818,82.689c0-0.804,0.306-1.081,0.737-0.832c0.345,0.198,0.566,0.632,0.566,1.16
						c0,0.131-0.011,0.299-0.036,0.424l-0.845-0.487c0.005,0.404,0.15,0.71,0.369,0.836c0.176,0.101,0.289,0.066,0.405-0.011
						l0.125,0.281c-0.114,0.158-0.3,0.32-0.633,0.129C386.037,83.92,385.818,83.27,385.818,82.689z M386.722,82.901
						c0.006-0.053,0.008-0.148,0.008-0.227c0-0.305-0.078-0.442-0.212-0.52c-0.19-0.109-0.267,0.13-0.278,0.469L386.722,82.901z"/>
					<path style="fill:#FFFFFF;" d="M387.598,84.498l0.137,0.039c0.071,0.019,0.073-0.046,0.073-0.168v-1.143
						c0-0.197-0.008-0.255-0.096-0.327l-0.138-0.11l0.02-0.255l0.533,0.258l0.034,0.051l0.02,0.382l0.009,0.006
						c0.062-0.144,0.181-0.328,0.43-0.184c0.188,0.107,0.34,0.349,0.34,0.667c0,0.231-0.079,0.339-0.233,0.25
						c-0.126-0.074-0.198-0.206-0.198-0.333c0-0.061,0.014-0.122,0.065-0.237c-0.205-0.171-0.38,0.029-0.38,0.44v0.777
						c0,0.122,0.004,0.172,0.071,0.229l0.244,0.197v0.258l-0.929-0.537V84.498z"/>
					<path style="fill:#FFFFFF;" d="M389.548,85.293v-1.306l-0.209-0.121v-0.288c0.24,0.095,0.311-0.016,0.343-0.597l0.229,0.093
						l0.042,0.055v0.751l0.413,0.239v0.34l-0.413-0.239v1.201c0,0.2,0.025,0.368,0.169,0.451c0.1,0.056,0.174,0.038,0.248,0.002
						l0.094,0.286c-0.119,0.119-0.284,0.151-0.476,0.04C389.704,86.037,389.548,85.724,389.548,85.293z"/>
					<path style="fill:#FFFFFF;" d="M390.888,85.943l0.21,0.099c0.087,0.43,0.243,0.603,0.388,0.687
						c0.133,0.076,0.213,0.014,0.213-0.157c0-0.471-0.799-0.592-0.799-1.484c0-0.414,0.209-0.603,0.552-0.405
						c0.118,0.068,0.252,0.202,0.319,0.319l0.023-0.122l0.164,0.095l0.032,0.778l-0.209-0.143c-0.057-0.334-0.179-0.544-0.334-0.634
						c-0.137-0.078-0.196-0.004-0.196,0.127c0,0.471,0.79,0.579,0.79,1.522c0,0.384-0.17,0.662-0.561,0.436
						c-0.167-0.096-0.289-0.241-0.36-0.352l-0.031,0.126l-0.156-0.09L390.888,85.943z"/>
				</g>
			</g>
		</g>
		<g id="XMLID_6148_">
			<polygon id="XMLID_6157_" style="fill:#27DEBF;" points="431.552,53.054 431.723,55.376 411.188,66.391 410.725,65.039 			"/>
			<polygon id="XMLID_6156_" style="opacity:0.35;" points="431.552,53.054 431.723,55.376 411.188,66.391 410.725,65.039 			"/>
			<polygon id="XMLID_6155_" style="fill:#F5F5F5;" points="410.998,65.577 430.89,54.095 434.349,56.092 414.066,67.958 			"/>
			<path id="XMLID_6154_" style="fill:#27DEBF;" d="M417.802,66.729l1.967,23.051c0,0.471-0.329,1.042-0.735,1.277l-11.54,6.679
				c-0.168,0.097-0.38,0.153-0.599,0.17l7.172-29.197c0.219-0.017,0.431-0.071,0.599-0.168l0.832-0.483L417.802,66.729z"/>
			<path id="XMLID_6153_" style="opacity:0.35;" d="M417.802,66.729l1.967,23.051c0,0.471-0.329,1.042-0.735,1.277l-11.54,6.679
				c-0.168,0.097-0.38,0.153-0.599,0.17l7.172-29.197c0.219-0.017,0.431-0.071,0.599-0.168l0.832-0.483L417.802,66.729z"/>
			<path id="XMLID_6152_" style="fill:#27DEBF;" d="M413.189,68.541l-2.056-1.762l-1.511-1.295c-0.154-0.246-0.334-0.43-0.238-0.631
				l-7.075,28.987l-0.011,0.023c-0.099,0.204-0.125,0.66,0.153,0.819l3.567,3.054c0.241,0.139,0.568,0.196,0.877,0.17l7.172-29.197
				C413.757,68.734,413.431,68.677,413.189,68.541z"/>
			<path id="XMLID_6151_" style="opacity:0.25;" d="M413.189,68.541l-2.056-1.762l-1.511-1.295c-0.154-0.246-0.334-0.43-0.238-0.631
				l-7.075,28.987l-0.011,0.023c-0.099,0.204-0.125,0.66,0.153,0.819l3.567,3.054c0.241,0.139,0.568,0.196,0.877,0.17l7.172-29.197
				C413.757,68.734,413.431,68.677,413.189,68.541z"/>
			<path id="XMLID_6150_" style="fill:#27DEBF;" d="M409.621,64.632c-0.407,0.235-0.306,0.498,0,0.852l3.569,3.056
				c0.407,0.235,1.068,0.235,1.475,0l3.137-1.812c0.407-0.235,0.479-0.575,0.161-0.759c-0.318-0.184-0.107-0.603-0.515-0.368
				l-3.276,1.89c-0.136,0.078-0.356,0.078-0.492,0l-2.608-2.264c-0.136-0.078-0.136-0.205,0-0.284l20.478-11.89l-0.981-0.566
				L409.621,64.632z"/>
			<path id="XMLID_6149_" style="opacity:0.15;" d="M409.621,64.632c-0.407,0.235-0.306,0.498,0,0.852l3.569,3.056
				c0.407,0.235,1.068,0.235,1.475,0l3.137-1.812c0.407-0.235,0.479-0.575,0.161-0.759c-0.318-0.184-0.107-0.603-0.515-0.368
				l-3.276,1.89c-0.136,0.078-0.356,0.078-0.492,0l-2.608-2.264c-0.136-0.078-0.136-0.205,0-0.284l20.478-11.89l-0.981-0.566
				L409.621,64.632z"/>
		</g>
		<g id="XMLID_6139_">
			<g id="XMLID_6140_">
				<polygon id="XMLID_6147_" style="fill:#27DEBF;" points="437.479,54.167 417.912,65.471 417.912,102.696 437.479,91.395 				"/>
				<polygon id="XMLID_6146_" style="opacity:0.15;" points="437.479,54.167 417.912,65.471 417.912,102.696 437.479,91.395 				"/>
				<path id="XMLID_6145_" style="fill:#F5F5F5;" d="M418.541,66.089l18.938-10.868c0.976,1.128,2.422,1.915,4.33,2.367
					L423.032,68.41C423.032,68.41,421.819,68.126,418.541,66.089z"/>
				<path id="XMLID_6144_" style="fill:#27DEBF;" d="M424.852,68.345c-1.005,0.577-2.634,0.577-3.639,0l-3.189-1.83
					c-1.005-0.577-1.005-1.512,0-2.088l18.664-10.711l0.791,0.451l-18.356,10.601c-0.603,0.346-0.603,0.907,0.001,1.252l2.964,1.681
					c0.603,0.346,1.581,0.345,2.184-0.001l18.35-10.58l0.895,0.514L424.852,68.345z"/>
				<path id="XMLID_6143_" style="opacity:0.55;fill:#FFFFFF;" d="M424.852,68.345c-1.005,0.577-2.634,0.577-3.639,0l-3.189-1.83
					c-1.005-0.577-1.005-1.512,0-2.088l18.664-10.711l0.791,0.451l-18.356,10.601c-0.603,0.346-0.603,0.907,0.001,1.252l2.964,1.681
					c0.603,0.346,1.581,0.345,2.184-0.001l18.35-10.58l0.895,0.514L424.852,68.345z"/>
				<path id="XMLID_6142_" style="fill:#27DEBF;" d="M443.514,57.633v37.226l-18.662,10.71c-1.004,0.577-2.635,0.577-3.639,0
					l-3.19-1.829c-0.5-0.288-0.752-0.664-0.752-1.044V65.469c0,0.38,0.252,0.756,0.752,1.044l3.19,1.834
					c1.004,0.576,2.635,0.576,3.639,0L443.514,57.633z"/>
				<path id="XMLID_6141_" style="opacity:0.15;" d="M423.033,68.78c-0.659,0-1.317-0.144-1.819-0.432l-3.19-1.834
					c-0.5-0.288-0.752-0.664-0.752-1.044v37.225c0,0.38,0.252,0.756,0.752,1.044l3.19,1.829c0.502,0.288,1.161,0.432,1.819,0.432
					V68.78z"/>
				<g>
					<path style="fill:#455A64;" d="M419.728,72.511c-0.003,0.046-0.005,0.11-0.005,0.193c-0.002,0.083-0.003,0.168-0.003,0.257
						c0,0.089,0.001,0.177,0.003,0.263c0,0.085,0.002,0.153,0.005,0.201c0.004,0.087,0.016,0.172,0.032,0.258
						c0.017,0.086,0.043,0.168,0.077,0.246c0.035,0.078,0.081,0.15,0.135,0.217c0.054,0.065,0.122,0.121,0.201,0.168
						c0.08,0.046,0.146,0.069,0.198,0.071c0.053,0,0.095-0.01,0.128-0.033c0.032-0.023,0.058-0.055,0.076-0.095
						c0.017-0.041,0.032-0.08,0.041-0.118c0.011-0.051,0.025-0.085,0.038-0.1c0.015-0.016,0.041-0.012,0.082,0.012l0.462,0.267
						c0.021,0.013,0.039,0.035,0.055,0.067c0.015,0.033,0.023,0.066,0.023,0.097c-0.003,0.184-0.033,0.34-0.088,0.472
						c-0.057,0.13-0.135,0.227-0.234,0.289c-0.099,0.063-0.215,0.091-0.348,0.085c-0.134-0.006-0.278-0.055-0.433-0.144
						c-0.169-0.098-0.32-0.224-0.454-0.379c-0.133-0.155-0.247-0.327-0.34-0.515c-0.095-0.189-0.167-0.388-0.217-0.596
						c-0.05-0.208-0.079-0.415-0.086-0.619c-0.005-0.151-0.007-0.312-0.007-0.482c0-0.17,0.003-0.332,0.007-0.485
						c0.004-0.197,0.033-0.371,0.085-0.52c0.052-0.15,0.124-0.265,0.218-0.345c0.093-0.081,0.207-0.121,0.341-0.122
						c0.134,0,0.286,0.049,0.455,0.146c0.156,0.09,0.299,0.208,0.433,0.356c0.133,0.147,0.249,0.309,0.348,0.487
						c0.099,0.177,0.177,0.363,0.234,0.559c0.055,0.196,0.086,0.387,0.088,0.573c0,0.032-0.008,0.056-0.023,0.071
						c-0.016,0.015-0.034,0.015-0.055,0.003l-0.462-0.267c-0.041-0.023-0.067-0.05-0.082-0.082
						c-0.014-0.032-0.027-0.081-0.038-0.145c-0.009-0.049-0.024-0.105-0.041-0.166c-0.017-0.06-0.044-0.122-0.076-0.182
						c-0.034-0.061-0.076-0.12-0.128-0.18c-0.052-0.058-0.117-0.111-0.198-0.158c-0.079-0.046-0.147-0.068-0.201-0.065
						c-0.054,0.004-0.099,0.024-0.135,0.061c-0.035,0.038-0.06,0.09-0.077,0.157C419.743,72.357,419.732,72.43,419.728,72.511z"/>
					<path style="fill:#455A64;" d="M421.112,78.402c0.003,0.056,0.004,0.126,0.004,0.211c0,0.086-0.001,0.155-0.004,0.208
						c-0.005,0.171-0.03,0.319-0.077,0.444c-0.047,0.125-0.112,0.221-0.194,0.288c-0.083,0.066-0.182,0.099-0.299,0.097
						c-0.116-0.002-0.247-0.045-0.39-0.127c-0.145-0.084-0.275-0.191-0.391-0.324c-0.117-0.133-0.216-0.279-0.298-0.441
						c-0.083-0.162-0.147-0.332-0.195-0.512c-0.047-0.179-0.074-0.357-0.078-0.534c-0.002-0.056-0.003-0.126-0.003-0.211
						c0-0.085,0.001-0.155,0.003-0.208c0.003-0.173,0.027-0.321,0.075-0.447c0.047-0.125,0.112-0.22,0.196-0.287
						c0.084-0.066,0.184-0.098,0.3-0.098c0.116,0,0.247,0.042,0.391,0.125c0.143,0.084,0.273,0.192,0.39,0.326
						c0.117,0.135,0.217,0.283,0.3,0.446c0.084,0.162,0.148,0.333,0.194,0.512C421.083,78.048,421.108,78.225,421.112,78.402z
						 M419.826,78.051c0.007,0.142,0.039,0.269,0.097,0.38c0.058,0.112,0.134,0.195,0.228,0.249
						c0.094,0.054,0.169,0.058,0.228,0.015c0.057-0.046,0.09-0.135,0.097-0.269c0.005-0.052,0.006-0.112,0.006-0.181
						c0-0.068-0.002-0.131-0.006-0.188c-0.007-0.142-0.04-0.269-0.097-0.38c-0.058-0.112-0.134-0.195-0.228-0.248
						c-0.095-0.055-0.17-0.059-0.228-0.016c-0.058,0.046-0.09,0.135-0.097,0.268c-0.005,0.052-0.007,0.113-0.007,0.181
						C419.819,77.931,419.822,77.994,419.826,78.051z"/>
					<path style="fill:#455A64;" d="M421.112,82.754c0.003,0.056,0.004,0.126,0.004,0.211c0,0.085-0.001,0.155-0.004,0.207
						c-0.005,0.171-0.03,0.32-0.077,0.444c-0.047,0.126-0.112,0.221-0.194,0.288c-0.083,0.067-0.182,0.099-0.299,0.097
						c-0.116-0.002-0.247-0.045-0.39-0.128c-0.145-0.083-0.275-0.191-0.391-0.323c-0.117-0.133-0.216-0.28-0.298-0.442
						c-0.083-0.162-0.147-0.332-0.195-0.511c-0.047-0.18-0.074-0.358-0.078-0.535c-0.002-0.056-0.003-0.126-0.003-0.211
						c0-0.085,0.001-0.155,0.003-0.207c0.003-0.173,0.027-0.321,0.075-0.447c0.047-0.125,0.112-0.22,0.196-0.287
						c0.084-0.066,0.184-0.098,0.3-0.098c0.116,0,0.247,0.042,0.391,0.126c0.143,0.083,0.273,0.191,0.39,0.326
						c0.117,0.135,0.217,0.282,0.3,0.445c0.084,0.163,0.148,0.333,0.194,0.512C421.083,82.399,421.108,82.577,421.112,82.754z
						 M419.826,82.403c0.007,0.142,0.039,0.269,0.097,0.38c0.058,0.112,0.134,0.195,0.228,0.249
						c0.094,0.054,0.169,0.059,0.228,0.015c0.057-0.045,0.09-0.134,0.097-0.269c0.005-0.051,0.006-0.111,0.006-0.18
						c0-0.069-0.002-0.132-0.006-0.189c-0.007-0.142-0.04-0.269-0.097-0.38c-0.058-0.112-0.134-0.194-0.228-0.249
						c-0.095-0.055-0.17-0.059-0.228-0.014c-0.058,0.045-0.09,0.134-0.097,0.268c-0.005,0.051-0.007,0.112-0.007,0.18
						C419.819,82.283,419.822,82.345,419.826,82.403z"/>
					<path style="fill:#455A64;" d="M419.914,86.082l0.466-0.514c0.012-0.012,0.03-0.021,0.054-0.029
						c0.024-0.008,0.051-0.003,0.085,0.016l0.519,0.299c0.024,0.014,0.044,0.038,0.06,0.073s0.026,0.071,0.026,0.107
						c0,0.018-0.002,0.033-0.006,0.043c-0.004,0.011-0.016,0.024-0.034,0.043l-0.629,0.714l0.742,1.707
						c0.015,0.034,0.024,0.058,0.028,0.074c0.005,0.016,0.007,0.032,0.007,0.05c0,0.036-0.008,0.062-0.026,0.078
						c-0.016,0.015-0.035,0.016-0.059,0.004l-0.527-0.304c-0.035-0.021-0.064-0.046-0.087-0.075
						c-0.022-0.029-0.042-0.064-0.057-0.102l-0.563-1.298v0.919c0,0.04-0.009,0.069-0.028,0.087
						c-0.019,0.018-0.041,0.02-0.067,0.005l-0.445-0.257c-0.025-0.015-0.048-0.042-0.067-0.082c-0.018-0.04-0.028-0.08-0.028-0.119
						v-3.569c0-0.04,0.01-0.069,0.028-0.087c0.019-0.018,0.042-0.019,0.067-0.005l0.445,0.258c0.026,0.015,0.048,0.042,0.067,0.082
						c0.019,0.04,0.028,0.08,0.028,0.12V86.082z"/>
					<path style="fill:#455A64;" d="M420.471,89.433c0,0.04-0.01,0.069-0.029,0.087c-0.018,0.017-0.041,0.019-0.066,0.005
						l-0.445-0.258c-0.026-0.015-0.048-0.042-0.067-0.082c-0.019-0.04-0.028-0.08-0.028-0.12v-0.549c0-0.04,0.009-0.069,0.028-0.087
						s0.041-0.019,0.067-0.005l0.445,0.257c0.026,0.016,0.048,0.043,0.066,0.083c0.019,0.04,0.029,0.079,0.029,0.119V89.433z
						 M420.471,92.56c0,0.04-0.01,0.069-0.029,0.087c-0.018,0.018-0.041,0.02-0.066,0.005l-0.445-0.257
						c-0.026-0.016-0.048-0.043-0.067-0.083c-0.019-0.04-0.028-0.079-0.028-0.119v-2.535c0-0.04,0.009-0.069,0.028-0.087
						c0.019-0.018,0.041-0.02,0.067-0.004l0.445,0.258c0.026,0.014,0.048,0.042,0.066,0.082c0.019,0.04,0.029,0.08,0.029,0.119
						V92.56z"/>
					<path style="fill:#455A64;" d="M421.102,97.278c0,0.039-0.009,0.068-0.028,0.087c-0.019,0.018-0.041,0.02-0.067,0.005
						l-0.445-0.258c-0.026-0.015-0.048-0.043-0.067-0.082c-0.018-0.04-0.028-0.08-0.028-0.12v-1.376
						c0-0.156-0.025-0.295-0.074-0.418c-0.05-0.123-0.127-0.215-0.233-0.277c-0.107-0.061-0.183-0.058-0.231,0.008
						c-0.049,0.066-0.073,0.177-0.073,0.334v1.376c0,0.04-0.009,0.068-0.028,0.087c-0.019,0.018-0.041,0.02-0.067,0.005
						l-0.445-0.257c-0.026-0.015-0.048-0.042-0.067-0.082c-0.018-0.04-0.028-0.08-0.028-0.12v-2.535c0-0.04,0.01-0.068,0.028-0.086
						c0.019-0.018,0.041-0.02,0.067-0.005l0.427,0.247c0.026,0.016,0.049,0.043,0.068,0.083c0.018,0.04,0.027,0.079,0.027,0.119
						v0.125c0.019-0.025,0.043-0.049,0.071-0.073c0.028-0.024,0.063-0.039,0.103-0.047c0.04-0.007,0.086-0.005,0.139,0.005
						c0.053,0.011,0.115,0.037,0.186,0.077c0.113,0.065,0.217,0.149,0.311,0.253c0.094,0.104,0.175,0.226,0.241,0.366
						c0.067,0.14,0.12,0.299,0.157,0.477c0.037,0.178,0.056,0.373,0.056,0.587V97.278z"/>
					<path style="fill:#455A64;" d="M420.109,101.584c0.09,0.051,0.168,0.066,0.237,0.041c0.068-0.024,0.102-0.099,0.102-0.227
						v-0.381c-0.02,0.028-0.044,0.053-0.068,0.077c-0.025,0.024-0.056,0.041-0.092,0.05c-0.036,0.01-0.082,0.009-0.135-0.002
						c-0.053-0.01-0.117-0.038-0.196-0.083c-0.106-0.061-0.206-0.143-0.3-0.247c-0.094-0.104-0.177-0.227-0.247-0.369
						c-0.071-0.142-0.128-0.302-0.172-0.48c-0.044-0.177-0.067-0.371-0.073-0.581c-0.002-0.056-0.003-0.12-0.003-0.195
						c0-0.075,0.001-0.138,0.003-0.191c0.005-0.204,0.029-0.37,0.073-0.5c0.044-0.128,0.101-0.223,0.172-0.281
						c0.07-0.059,0.153-0.087,0.247-0.084c0.095,0.004,0.195,0.036,0.3,0.097c0.078,0.046,0.145,0.095,0.202,0.149
						c0.056,0.055,0.105,0.109,0.145,0.166c0.039,0.055,0.073,0.11,0.098,0.163c0.026,0.053,0.047,0.1,0.064,0.143v-0.126
						c0-0.039,0.01-0.068,0.028-0.087c0.019-0.018,0.041-0.02,0.067-0.005l0.41,0.237c0.026,0.016,0.048,0.043,0.067,0.083
						c0.019,0.04,0.028,0.079,0.028,0.119v2.649c0,0.203-0.025,0.368-0.072,0.494c-0.048,0.126-0.116,0.216-0.2,0.271
						c-0.085,0.054-0.186,0.073-0.304,0.055c-0.117-0.016-0.247-0.066-0.389-0.147c-0.184-0.106-0.333-0.228-0.45-0.366
						c-0.117-0.138-0.208-0.277-0.275-0.414c-0.066-0.137-0.112-0.269-0.138-0.392c-0.025-0.124-0.04-0.227-0.042-0.308
						c-0.003-0.041,0.006-0.071,0.025-0.088c0.021-0.017,0.044-0.018,0.07-0.004l0.459,0.265c0.049,0.029,0.086,0.087,0.109,0.173
						c0.016,0.057,0.042,0.113,0.076,0.168C419.972,101.485,420.03,101.537,420.109,101.584z M419.799,99.419
						c-0.005,0.052-0.007,0.095-0.007,0.129s0.003,0.08,0.007,0.137c0.007,0.131,0.036,0.253,0.086,0.365
						c0.051,0.113,0.128,0.199,0.232,0.259c0.097,0.055,0.17,0.057,0.22,0.005c0.051-0.052,0.082-0.127,0.094-0.226
						c0.012-0.106,0.012-0.219,0-0.343c-0.009-0.11-0.04-0.22-0.092-0.33c-0.051-0.109-0.126-0.192-0.222-0.249
						c-0.101-0.058-0.178-0.062-0.229-0.009C419.835,99.208,419.806,99.296,419.799,99.419z"/>
				</g>
			</g>
		</g>
	</g>
</g>
</svg>
