<?xml version="1.0" encoding="UTF-8"?><svg id="svg2" xmlns="http://www.w3.org/2000/svg" viewBox="0 0 48.01 48"><defs><style>.cls-1,.cls-2{fill:#1b2939;}.cls-3{fill:#fff;}.cls-2{fill-rule:evenodd;}</style></defs><g id="layer1"><g id="g27653"><path class="cls-3" d="M48.01,24c0,13.26-10.75,24-24,24S0,37.26,0,24,10.75,0,24.01,0s24,10.74,24,24Z"/><g id="g27651"><path class="cls-1" d="M34.56,19.36c-.52.69-.6,1.86-.29,2.67,1.45,3.88.61,8.21-2.23,11.24l3.49,3.48h-2.76l-2.19-2.19c-3.89,2.91-9.23,2.92-13.13.01l-2.18,2.18h-2.75l3.48-3.48c-2.83-3.06-3.53-7.46-1.99-11.38.29-.73.19-1.77-.33-2.37l-.23-.27h-.92c-.27.02-.51-.19-.53-.47-.01-.28.2-.52.48-.53h23.03c.28,0,.51.22.51.5s-.23.5-.51.5h-.87l-.08.11Z"/><path id="path27642" class="cls-2" d="M12.48,11.38h1.82l5.05,5.89h-2.83l-4.04-5.89Z"/><path id="path27644" class="cls-2" d="M24.49,11.25c-.15.01-.28.09-.37.21l-1,1.33c-.13.18-.13.42,0,.6l.78,1.03-.78,1.03c-.17.22-.12.54.1.7.22.17.54.12.7-.1h0s.99-1.34.99-1.34c.13-.18.13-.41,0-.59l-.77-1.03.77-1.03c.17-.22.13-.53-.09-.7-.1-.07-.22-.11-.34-.1h0Z"/><path id="path27646" class="cls-2" d="M28.48,11.25c-.14.01-.28.09-.36.21l-1,1.33c-.13.18-.13.42,0,.6l.77,1.03-.77,1.03c-.17.22-.12.54.1.7.22.17.54.12.7-.1h0s.99-1.34.99-1.34c.13-.18.13-.41,0-.59l-.77-1.03.77-1.03c.17-.22.13-.53-.09-.7-.1-.08-.22-.11-.35-.1Z"/><path id="path27648" class="cls-2" d="M32.49,11.25c-.15.01-.28.09-.37.21l-.99,1.33c-.13.18-.13.42,0,.6l.77,1.03-.77,1.03c-.17.22-.12.54.1.7.22.17.54.12.7-.1,0,0,0,0,0,0l.99-1.34c.13-.18.13-.41,0-.59l-.77-1.03.77-1.03c.17-.22.13-.53-.09-.7-.1-.08-.22-.11-.35-.1h0Z"/></g></g></g></svg>