<?xml version="1.0" encoding="utf-8"?>
<!-- Generator: Adobe Illustrator 27.5.0, SVG Export Plug-In . SVG Version: 6.00 Build 0)  -->
<svg version="1.1" id="Layer_1" xmlns="http://www.w3.org/2000/svg" xmlns:xlink="http://www.w3.org/1999/xlink" x="0px" y="0px"
	 viewBox="0 0 2065 2065" style="enable-background:new 0 0 2065 2065;" xml:space="preserve">
<g>
	<path style="fill:#FEFEFE;" d="M0,0h2065.336v2065.336H0V0z"/>
	<path style="fill:#BFD8FE;" d="M1527.183,1155.745c-1.638-10.244,1.791-7.787,1.993-13.209c0.799-21.438,1.234-42.579-2.188-63.862
		l-0.337-2.019l1.023-1.033c5.464,5.716,3.306,58.529,4.758,68.797l1.543,1.001c-1.031,2.816-1.245,3.156-0.549,6.035
		c1.565,1.545,3.112,3.11,4.72,4.609C1534.495,1156.034,1530.834,1155.858,1527.183,1155.745z"/>
	<path style="fill:#BFD8FE;" d="M498.863,971.908l1.406,2.164c-1.027,13.265,0.264,27.287,0.591,40.607
		c0.29,11.912-0.159,24.058,0.567,35.922c-0.262,2.4-0.678,4.653-1.19,7.007l-1.958-8.007
		C497.306,1023.771,496.782,997.681,498.863,971.908z"/>
	<path style="fill:#F2F2F2;" d="M1533.974,1145.421c4.256,0.99,8.217,2.384,12.297,3.935l0.928-0.663l-0.894-0.654
		c0.192-0.288,0.416-0.557,0.575-0.863c2.168-4.155,7.303-46.151,10.962-57.543l1.501-0.204l0.272,0.26
		c-0.248,1.716-0.525,3.33-0.958,5.008c-2.574,9.972-2.864,20.615-5.157,30.7c-2.787,12.249-0.139,25.782-2.114,38.273
		c-3.889-3.054-10.097-4.26-13.241-7.606c-1.607-1.499-3.154-3.064-4.72-4.609
		C1532.73,1148.577,1532.944,1148.236,1533.974,1145.421z"/>
	<path style="fill:#E6E7E7;" d="M1687.614,1096.216c0.687-0.061,1.375-0.112,2.063-0.155c4.425-0.258,8.16,0.333,11.42,3.53
		c2.083,2.043,3.276,4.625,3.257,7.586c-0.03,5.044-2.856,8.463-6.273,11.823c-0.387,0.051-0.772,0.125-1.162,0.151
		c-4.04,0.281-8.433-1.016-11.462-3.77c-2.138-1.944-3.399-4.786-3.532-7.662
		C1681.694,1102.666,1684.252,1099.626,1687.614,1096.216z"/>
	<path style="fill:#E6E7E7;" d="M498.279,1049.6l1.958,8.007c0.512-2.354,0.928-4.607,1.19-7.007
		c3.528,24.673,1.716,57.908,1.781,83.386c0.022,8.356,1.44,17.82,0.583,26.026c-0.24,2.299-0.972,4.086-2.275,5.996
		C499.118,1163.236,498.329,1061.91,498.279,1049.6z"/>
	<path style="fill:#F0AD8A;" d="M251.683,1225.489c4.457,22.039,12.422,40.917,23.298,60.53c-0.319-0.135-0.647-0.246-0.954-0.405
		c-10.817-5.571-21.93-21.494-25.371-32.928C245.585,1242.483,246.509,1234.64,251.683,1225.489z"/>
	<path style="fill:#E6E7E7;" d="M458.458,1067.351c1.079,0.69,1.934,1.196,2.65,2.34c2.781,4.443,19.088,90.679,18.582,95.82
		l-3.033-1.202C472.329,1157.468,456.794,1075.32,458.458,1067.351z"/>
	<path style="fill:#F0AD8A;" d="M1329.308,1234.787c4.371,3.75,5.093,8.415,6.386,13.84c-4.278,12.935-9.512,26.845-20.799,35.389
		c2.773-9.383,4.984-42.856,8.57-47.521C1324.397,1235.283,1327.79,1235.097,1329.308,1234.787z"/>
	<path style="fill:#E6E7E7;" d="M538.789,1008.201l1.023,1.005c1.162,2.977,1.204,5.706,1.125,8.872
		c-0.682,27.62-3.935,55.764-6.093,83.358c-1.678,21.438-2.164,43.203-4.911,64.52l-2.281-1.091
		C523.397,1156.722,537.459,1028.548,538.789,1008.201z"/>
	<path style="fill:#F0AD8A;" d="M345.23,1292.406c12.779-18.965,13.257-47.654,21.984-65.498c1.081-2.213,2.852-3.665,4.78-5.117
		c4.736,4.353,8.036,7.432,8.397,14.129c0.853,15.762-11.595,37.777-22.329,48.943c-3.038,3.161-6.273,5.531-10.119,7.598
		L345.23,1292.406z"/>
	<path style="fill:#F0AD8A;" d="M1034.849,613.447c5.928,0.081,11.997,0.353,17.9-0.254c13.993-1.438,21.272-7.402,29.867-17.729
		c0.518,7.404,1.043,14.784,1.902,22.158c-12.301,7.378-30.672,16.779-37.146,29.879l-1.307,0.466
		c-1.567-1.051-1.795-2.749-2.166-4.562c-0.139-0.674-0.212-1.359-0.349-2.033c-1.521-7.463-11.24-16.686-15.284-23.505
		l-0.732-1.184l1.333-2.011L1034.849,613.447z"/>
	<path style="fill:#007CFE;" d="M955.587,668.794c3.249,8.259,0.766,36.831,0.539,47.474c-8.885,4.312-40.536,21.327-47.232,22.949
		c4.05-8.292,10.496-16.468,15.585-24.217C934.661,699.492,944.575,683.731,955.587,668.794z"/>
	<path style="fill:#E6E7E7;" d="M416.863,729.205c2.777-0.232,5.559-0.464,8.318,0.057c5.25,0.99,10.125,4.145,13.029,8.645
		c2.842,4.403,3.594,9.762,2.305,14.818c-1.769,6.946-6.503,11.563-12.475,15.103c-4.272,0.651-8.382,0.869-12.564-0.397
		c-4.449-1.347-8.366-4.353-10.53-8.507c-2.517-4.833-2.674-10.666-1.023-15.799C406.278,735.814,410.3,732.71,416.863,729.205z"/>
	<path style="fill:#BFD8FE;" d="M134.381,1103.517c3.665-0.065,7.521,0.012,10.892,1.638c4.755,2.291,8.465,6.823,10.088,11.805
		c0.225,0.687,0.414,1.384,0.567,2.09c0.153,0.706,0.269,1.418,0.348,2.136c0.079,0.718,0.121,1.439,0.126,2.162
		c0.005,0.722-0.028,1.443-0.098,2.162c-0.07,0.719-0.177,1.433-0.321,2.14c-0.144,0.709-0.324,1.408-0.54,2.098
		c-0.217,0.69-0.468,1.366-0.755,2.029s-0.606,1.31-0.96,1.94c-3.417,6.047-8.785,9.149-15.343,10.778
		c-4.329,0.05-8.182-0.599-12.022-2.727c-0.558-0.304-1.098-0.636-1.621-0.996c-0.523-0.36-1.026-0.747-1.508-1.16
		c-0.482-0.413-0.942-0.85-1.378-1.311c-0.436-0.461-0.848-0.944-1.233-1.45c-0.386-0.504-0.744-1.027-1.075-1.569
		c-0.331-0.542-0.632-1.1-0.904-1.674c-0.272-0.574-0.513-1.161-0.724-1.761c-0.21-0.598-0.389-1.207-0.535-1.825
		c-1.373-5.74-0.111-12.013,3.034-16.958C123.839,1107.682,128.244,1104.866,134.381,1103.517z"/>
	<path style="fill:#BFD8FE;" d="M260.339,797.893c4.435-0.228,8.641-0.185,12.676,1.926c0.579,0.305,1.142,0.638,1.686,0.998
		c0.546,0.362,1.072,0.75,1.579,1.164c0.506,0.414,0.99,0.853,1.452,1.315c0.463,0.463,0.901,0.947,1.315,1.454
		c0.414,0.507,0.801,1.033,1.162,1.579c0.362,0.545,0.695,1.107,1,1.686c0.304,0.58,0.578,1.173,0.823,1.779
		c0.246,0.607,0.461,1.224,0.643,1.852c0.203,0.719,0.369,1.448,0.498,2.184c0.128,0.737,0.218,1.478,0.27,2.225
		c0.052,0.745,0.067,1.491,0.042,2.239c-0.024,0.747-0.087,1.492-0.188,2.233c-0.102,0.741-0.241,1.475-0.417,2.202
		c-0.176,0.726-0.389,1.441-0.639,2.146c-0.25,0.705-0.536,1.395-0.857,2.071c-0.321,0.675-0.676,1.332-1.065,1.971
		c-3.576,5.843-8.199,8.501-14.695,10.121c-3.483-0.141-6.638-0.367-9.843-1.868c-5.143-2.408-9.248-6.67-11.184-12.033
		c-0.235-0.648-0.437-1.307-0.605-1.977c-0.167-0.67-0.299-1.346-0.397-2.029c-0.098-0.683-0.161-1.369-0.19-2.057
		c-0.028-0.69-0.021-1.379,0.022-2.067c0.043-0.688,0.122-1.373,0.236-2.055c0.113-0.68,0.26-1.353,0.442-2.019
		c0.183-0.664,0.399-1.318,0.65-1.962c0.249-0.643,0.53-1.271,0.845-1.886C248.853,802.76,253.881,800.138,260.339,797.893z"/>
	<path style="fill:#E6E7E7;" d="M1618.201,738.249c4.322-0.184,7.902-0.02,11.773,2.12c0.674,0.366,1.326,0.766,1.958,1.2
		c0.632,0.433,1.24,0.898,1.825,1.396c0.584,0.497,1.14,1.023,1.668,1.577c0.53,0.555,1.029,1.136,1.496,1.743
		c0.469,0.608,0.905,1.238,1.307,1.89c0.403,0.652,0.772,1.323,1.105,2.013c0.333,0.691,0.63,1.397,0.89,2.118
		c0.26,0.721,0.481,1.454,0.666,2.198c1.277,5.365,0.44,10.932-2.592,15.563c-3.695,5.643-8.842,7.64-15.137,9.169
		c-4.457-0.048-8.864-0.375-12.929-2.394c-4.814-2.39-8.449-6.567-9.925-11.765c-0.182-0.659-0.33-1.326-0.446-2.001
		c-0.114-0.675-0.195-1.353-0.242-2.035c-0.047-0.683-0.059-1.366-0.036-2.049c0.021-0.684,0.077-1.366,0.167-2.043
		c0.092-0.678,0.216-1.35,0.373-2.017c0.159-0.666,0.35-1.321,0.573-1.966c0.225-0.647,0.481-1.281,0.769-1.902
		c0.288-0.62,0.606-1.224,0.954-1.813C1606.089,742.906,1611.416,740.262,1618.201,738.249z"/>
	<path style="fill:#E6E7E7;" d="M1729.606,973.314c3.786-0.274,7.473-0.424,11.13,0.782c5.787,1.908,10.75,6.081,13.352,11.624
		c2.414,5.147,2.683,11.321,0.403,16.565c-2.658,6.111-7.442,9.748-13.425,12.273c-4.046,0.442-8.225,0.563-12.106-0.869
		c-0.725-0.27-1.434-0.576-2.128-0.918c-0.694-0.341-1.368-0.717-2.023-1.125c-0.656-0.41-1.29-0.852-1.902-1.325
		c-0.612-0.473-1.197-0.976-1.757-1.509c-0.561-0.533-1.093-1.092-1.597-1.678c-0.504-0.586-0.977-1.196-1.42-1.829
		c-0.444-0.635-0.854-1.29-1.23-1.965c-0.376-0.675-0.718-1.367-1.025-2.078c-0.274-0.637-0.516-1.287-0.724-1.95
		c-0.208-0.663-0.383-1.334-0.523-2.015c-0.138-0.679-0.243-1.364-0.313-2.055c-0.07-0.691-0.104-1.384-0.103-2.08
		c0.001-0.694,0.038-1.386,0.111-2.077c0.071-0.69,0.178-1.375,0.321-2.055c0.143-0.679,0.319-1.349,0.529-2.011
		c0.211-0.662,0.455-1.311,0.732-1.948C1718.767,978.619,1723.344,975.934,1729.606,973.314z"/>
	<path style="fill:#E6E7E7;" d="M1912.998,1084.247c4.328-0.361,8.657-0.843,12.806,0.744c5.206,1.993,9.647,6.248,11.912,11.327
		c0.303,0.691,0.57,1.396,0.803,2.114c0.231,0.719,0.426,1.448,0.583,2.186c0.159,0.738,0.279,1.482,0.361,2.233
		c0.083,0.75,0.129,1.503,0.135,2.257c0.007,0.756-0.025,1.509-0.095,2.261c-0.07,0.752-0.177,1.498-0.323,2.239
		c-0.145,0.741-0.327,1.472-0.547,2.194c-0.221,0.722-0.476,1.431-0.766,2.128c-2.941,7.065-8.163,11.043-15.026,13.933
		c-3.608,0.232-6.981,0.224-10.456-0.92c-0.715-0.241-1.417-0.517-2.104-0.829c-0.687-0.312-1.356-0.658-2.007-1.039
		c-0.652-0.382-1.283-0.795-1.892-1.24s-1.194-0.92-1.755-1.426c-0.561-0.504-1.094-1.037-1.599-1.597
		c-0.505-0.559-0.981-1.144-1.428-1.753c-0.446-0.608-0.86-1.237-1.242-1.888c-0.382-0.651-0.729-1.32-1.043-2.007
		c-0.309-0.68-0.585-1.374-0.827-2.081c-0.242-0.707-0.449-1.425-0.621-2.152c-0.172-0.729-0.308-1.464-0.407-2.204
		c-0.101-0.741-0.165-1.484-0.192-2.231c-0.027-0.748-0.017-1.495,0.028-2.241c0.044-0.746,0.126-1.489,0.244-2.227
		c0.118-0.738,0.272-1.469,0.462-2.192c0.189-0.722,0.414-1.434,0.674-2.136C1901.374,1090.546,1906.261,1087.214,1912.998,1084.247
		z"/>
	<path style="fill:#E6E7E7;" d="M846.31,551.699c3.352-0.214,6.827-0.526,10.147,0.137c5.787,1.158,11.44,5.18,14.558,10.167
		c3.169,5.067,4.191,11.184,2.481,16.948c-2.354,7.922-8.078,11.747-15.046,15.373c-3.723,0.621-7.12,0.893-10.831-0.028
		c-5.942-1.474-10.916-4.895-13.844-10.333c-0.355-0.658-0.676-1.331-0.962-2.021c-0.286-0.691-0.537-1.394-0.752-2.11
		c-0.217-0.715-0.396-1.439-0.539-2.172s-0.248-1.472-0.317-2.217c-0.069-0.744-0.1-1.489-0.093-2.237
		c0.007-0.746,0.051-1.491,0.133-2.235c0.082-0.742,0.201-1.479,0.357-2.211c0.156-0.73,0.348-1.451,0.577-2.162
		C834.614,558.909,839.515,555.461,846.31,551.699z"/>
	<path style="fill:#E6E7E7;" d="M544.833,576.33l52.725-0.089c9.28-0.006,18.919-0.535,28.144,0.29
		c3.586,0.321,5.986,0.48,8.346,3.306c0.355,2.717,0.603,3.076-0.696,5.436c-9.574,5.335-28.917,2.636-39.99,2.485h-55.581
		c-9.82,0.069-21.325,1.484-30.952-0.397c-3.598-0.704-4.264-1.319-6.333-4.308c0.456-1.603,0.258-1.664,1.359-2.85
		C507.819,573.782,535.539,576.366,544.833,576.33z"/>
	<path style="fill:#1A2C34;" d="M807.359,690.066l1.128,0.7c0.089,0.43,0.119,0.875,0.268,1.287c0.99,2.751,3.528,4.581,5.649,6.474
		l-3.475,0.307c-2.259,2.971-2.158,5.676-1.694,9.31c1.037,8.104,12.771,22.023,12.67,25.56c-0.022,0.839-1.468,3.503-1.948,4.336
		c1.295,30.246,1.015,60.657,0.976,90.929c-1.676-0.216-3.159-0.621-4.772-1.125c-3.931-6.934-1.5-21.904-2.126-30.179
		c-0.153-20.409-0.16-40.817-0.02-61.224c-8.058-6.24-14.705-11.944-20.849-20.153l-11.035,4.298
		c-6.96,3.691-18.915,11.801-26.569,11.692l-0.704-1.503c0.165-0.43,0.293-0.879,0.498-1.293
		c2.687-5.353,13.548-8.844,18.995-10.912c5.954-3.862,12.866-6.775,19.234-9.938c0.087-1.414,0.153-2.826,0.417-4.221
		C795.481,696.609,801.389,694.187,807.359,690.066z"/>
	<path style="fill:#F0AD8A;" d="M807.359,690.066c0.726-2.795,2.285-4.351,4.675-5.871c7.598-4.829,18.85-3.737,27.087-1.519
		c1.128,0.304,2.249,0.631,3.362,0.98c2.297,8.199,4.084,18.681,8.927,25.74c-3.159,7.313-8.866,13.719-13.651,20.042l-7.025,9.851
		l-10.779-1.249c0.48-0.833,1.926-3.497,1.948-4.336c0.101-3.538-11.634-17.456-12.67-25.56c-0.464-3.635-0.565-6.339,1.694-9.31
		l3.475-0.307c-2.122-1.894-4.659-3.723-5.649-6.474c-0.149-0.411-0.18-0.857-0.268-1.287L807.359,690.066z"/>
	<path style="fill:#E6E7E7;" d="M905.501,407.67c4.127,0.004,8.152,0.869,11.831,2.793c5.522,2.886,9.252,7.767,10.897,13.759
		c0.244,0.897,0.44,1.804,0.589,2.721c0.149,0.917,0.251,1.839,0.305,2.765c0.054,0.928,0.06,1.855,0.018,2.783
		c-0.043,0.929-0.134,1.853-0.272,2.771c-0.137,0.918-0.322,1.827-0.555,2.727c-0.233,0.9-0.511,1.784-0.835,2.654
		c-0.324,0.871-0.692,1.723-1.105,2.555c-0.413,0.832-0.867,1.641-1.364,2.426c-4.445,6.884-9.847,8.915-17.586,10.569
		c-4.748-0.438-8.943-1.529-13.056-4.034c-6.081-3.705-10.49-9.512-11.88-16.553c-0.145-0.744-0.253-1.493-0.323-2.249
		c-0.071-0.754-0.104-1.511-0.099-2.269c0.004-0.757,0.046-1.513,0.125-2.267c0.079-0.754,0.196-1.503,0.349-2.245
		c0.153-0.742,0.342-1.475,0.567-2.199c0.226-0.723,0.487-1.434,0.785-2.132c0.296-0.698,0.626-1.38,0.99-2.045
		c0.363-0.664,0.758-1.31,1.186-1.936C891.007,411.07,897.249,409.007,905.501,407.67z"/>
	<path style="fill:#F0AD8A;" d="M281.791,1293.032c20.801,1.073,41.4,0.627,62.206-0.141c-0.075,11.129,0.145,22.352-0.684,33.453
		c-19.949-0.293-39.898-0.335-59.848-0.127C283.546,1315.004,283.492,1304.147,281.791,1293.032z"/>
	<path style="fill:#97BEFD;" d="M536.473,444.751c3.987,0.115,7.741,1.025,11.432,2.527c7.198,2.933,13.031,8.245,15.764,15.629
		c2.328,6.285,1.87,13.011-1.138,18.985c-4.104,8.152-11.299,12.564-19.709,15.337c-5.474,0.22-10.117-0.046-15.157-2.477
		c-6.567-3.169-11.656-8.447-13.927-15.452c-0.262-0.808-0.482-1.628-0.659-2.459c-0.176-0.831-0.31-1.669-0.401-2.515
		c-0.091-0.844-0.139-1.692-0.143-2.541c-0.004-0.85,0.036-1.698,0.119-2.543c0.083-0.846,0.211-1.685,0.381-2.517
		c0.169-0.834,0.381-1.656,0.635-2.467c0.254-0.811,0.55-1.606,0.888-2.386c0.336-0.78,0.711-1.541,1.125-2.283
		C520.33,451.119,527.693,447.514,536.473,444.751z"/>
	<path style="fill:#E6E7E7;" d="M501.437,546.828c42.247-0.819,84.584-0.319,126.843-0.444c21.811-0.066,48.83-1.811,70.139,0.026
		c2.801,0.242,3.33,0.702,5.06,2.88c0.367,3.243,0.385,3.959-0.831,6.964c-12.217,1.285-24.893,0.843-37.176,0.986
		c-23.646,0.254-47.294,0.348-70.943,0.282l-58.784,0.188c-9.828,0.03-19.949,0.595-29.736-0.147
		c-1.757-0.133-2.481-0.301-3.879-1.349C500.544,553.292,501.217,550.029,501.437,546.828z"/>
	<path style="fill:#97BEFD;" d="M1430.054,935.103c30.28,7.87,60.115,17.678,77.018,46.159c7.882,13.279,12.721,29.205,8.657,44.542
		c-0.82,2.978-1.719,5.933-2.697,8.864c-9.923-37.93-41.67-54.465-67.404-80.147
		C1439.683,948.588,1434.884,941.951,1430.054,935.103z"/>
	<path style="fill:#E6E7E7;" d="M679.972,1053.108c6.466-0.135,12.273,0.518,17.902,3.965c0.752,0.465,1.478,0.968,2.178,1.507
		c0.701,0.539,1.372,1.112,2.015,1.718c0.643,0.606,1.254,1.244,1.833,1.912c0.578,0.667,1.122,1.362,1.632,2.086
		c0.508,0.723,0.98,1.47,1.414,2.239c0.433,0.771,0.827,1.56,1.182,2.37c0.354,0.811,0.666,1.636,0.938,2.477
		c0.27,0.842,0.498,1.695,0.684,2.56c1.66,7.424,0.389,15.52-3.747,21.938c-4.663,7.239-10.9,10.335-19.024,12.311
		c-6.002,0.278-11.279-0.565-16.575-3.584c-0.756-0.437-1.487-0.911-2.195-1.424c-0.707-0.511-1.387-1.057-2.039-1.638
		c-0.651-0.581-1.271-1.193-1.862-1.837c-0.589-0.643-1.144-1.314-1.666-2.015c-0.522-0.701-1.006-1.425-1.454-2.174
		c-0.446-0.75-0.854-1.521-1.224-2.311c-0.37-0.791-0.698-1.598-0.984-2.422c-0.288-0.824-0.532-1.661-0.734-2.511
		c-1.894-7.67-0.645-16.48,3.54-23.211C666.154,1058.037,672.106,1054.893,679.972,1053.108z"/>
	
		<linearGradient id="SVGID_1_" gradientUnits="userSpaceOnUse" x1="804.1226" y1="1557.0128" x2="855.1422" y2="1562.7566" gradientTransform="matrix(2.0169 0 0 -2.0169 -33.7742 4133.6343)">
		<stop  offset="0" style="stop-color:#4397FF"/>
		<stop  offset="1" style="stop-color:#76B8FF"/>
	</linearGradient>
	<path style="fill:url(#SVGID_1_);" d="M1586.802,1023.269c18.854-10.022,38.392-18.358,54.691-32.555
		c14.736-12.834,36.498-39.072,51.228-48.771c-11.19,28.673-26.097,69.743-56.103,82.946c-13.804,6.075-30.177,6.208-44.245,0.845
		C1590.474,1025.01,1588.631,1024.149,1586.802,1023.269z"/>
	<path style="fill:#E6E7E7;" d="M625.045,512.808c18.637-0.305,37.274-0.428,55.913-0.369c9.092-0.028,18.467-0.756,27.519-0.188
		c3.37,0.214,6.971,0.815,9.31,3.427c0.474,2.525,0.504,3.52-0.599,5.859c-1.827,1.468-3.322,2.307-5.698,2.562
		c-10.645,1.133-23.029-0.28-33.866-0.288l-82.293-0.032l-57.464,0.347c-8.231,0.081-17.291,1.446-25.393,0.222
		c-3.747-0.567-8.165-1.751-10.381-5.085c-0.94-1.418-0.601-1.073-0.198-2.953c2.275-2.005,4.508-2.501,7.465-2.773
		c12.723-1.172,26.627-0.085,39.461-0.105C574.23,513.359,599.638,513.151,625.045,512.808z"/>
	<path style="fill:#97BEFD;" d="M1551.911,851.405c3.047,0.678,5.296,5.23,6.989,7.88c14.883,23.33,31.018,59.709,24.036,88.055
		c-2.906,11.805-10.004,21.272-20.411,27.535c-5.089,3.062-10.494,5.19-16.478,5.214c2.584-1.959,3.844-5.514,5.034-8.451
		c3.142-7.765,4.631-16.519,5.113-24.857C1556.713,937.77,1553.466,855.12,1551.911,851.405z"/>
	<path style="fill:#97BEFD;" d="M520.201,861.794c17.041,19.234,34.01,43.981,32.547,70.901
		c-0.859,15.807-8.281,30.292-20.046,40.772c-3.939,3.507-8.177,6.73-12.404,9.883C521.009,942.943,520.102,902.243,520.201,861.794
		z"/>
	<path style="fill:#F0AD8A;" d="M1470.265,1238.006c3.096,0.744,8.179,1.384,10.068,4.048c3.52,4.964,2.689,13.066,3.489,18.949
		c2.503,18.362,16.218,32.876,33.874,37.584c12.356,3.294,28.251,3.148,40.022-1.975c-5.787,11.813-4.885,21.787-2.789,34.506
		c-20.454,0.163-40.904-0.057-61.349-0.66c0.115-6.105,2.138-21.783-0.492-26.868c-0.172-0.329-12.198-5.067-17.932-15.187
		C1467.036,1274.071,1465.838,1253.583,1470.265,1238.006z"/>
	<path style="fill:#4896FE;" d="M498.863,971.908c-3.612-4.141-7.005-9.096-9.528-13.992c-7.547-14.647-7.799-30.373-2.824-45.825
		c3.891-12.085,20.942-45.601,32.039-51.363l1.65,1.065c-0.099,40.45,0.809,81.149,0.097,121.556
		c-1.004,0.53-2.047,1.027-3.223,0.992c-5.553-0.157-12.565-6.969-16.805-10.27L498.863,971.908z"/>
	<path style="fill:#007CFE;" d="M1513.032,1034.669l-1.743,3.792c-2.366,1.615-3.588,2.059-6.499,1.829
		c-18.86-1.488-38.667-14.379-50.512-28.574c-14.01-16.789-27.838-53.465-26.031-75.179l1.805-1.434
		c4.83,6.847,9.629,13.485,15.575,19.419C1471.363,980.204,1503.109,996.739,1513.032,1034.669z"/>
	<path style="fill:#4896FE;" d="M1551.911,851.405c1.555,3.715,4.802,86.365,4.282,95.377c-0.482,8.338-1.971,17.091-5.113,24.857
		c-1.19,2.937-2.451,6.492-5.034,8.451c-2.67-1.396-5.389-2.798-7.882-4.496c-11.192-7.628-17.856-20.565-19.843-33.711
		C1513.163,907.736,1532.421,877.494,1551.911,851.405z"/>
	<path style="fill:#4896FE;" d="M1586.802,1023.269c-2.354-2.628-4.016-5.099-4.195-8.743c-0.674-13.636,9.78-31.149,18.788-40.784
		c17.545-18.767,40.078-24.356,64.391-28.965c8.643-1.638,17.608-3.635,26.404-3.885l0.532,1.051
		c-14.73,9.699-36.492,35.938-51.228,48.771C1625.194,1004.911,1605.656,1013.247,1586.802,1023.269z"/>
	<path style="fill:#1A2C34;" d="M1014.968,512.631l-1.178-0.565c-6.406-3.144-12.509-8.08-14.738-15.187
		c-1.065-3.403-0.633-5.91,0.508-9.197c4.133-1.2,7.426,4.26,11.468,2.253c3.413-7.795,5.772-10.875,14.024-14.122
		c16.357-6.438,37.313-6.825,53.394,0.658c18.096,8.423,11.595,15.456,18.925,21.765c5.728,4.931,10.26,2.233,13.57,11.043
		c4.665,12.418-0.587,32.208-6.293,43.812c-0.95,1.932-1.964,3.83-2.957,5.74c0.071-4.718,0.307-9.544-1.934-13.87
		c-1.311-2.531-2.162-3.035-4.827-3.818c-7.293,2.237-12.61,12.319-17.101,18.158l-1.87,0.155c-0.617-0.522-1.599-0.801-1.849-1.571
		c-1.196-3.675,2.955-13.689,3.963-17.559c2.392-9.183,1.797-17.547,0.877-26.841c-20.984,2.071-28.132,0.143-47.515-5.052
		C1025.938,510.983,1021.073,512.48,1014.968,512.631z"/>
	<path style="fill:#4896FE;" d="M383.872,951.239l-0.066-3.637c5.077-4.369,25.329-1.722,32.204-1.218
		c19.689,1.44,38.047,8.907,51.129,24.08c12.926,14.99,17.118,37.753,16.454,57.142l-1.378,1.89
		c-5.006-0.081-10.373,1.39-15.369,1.985c-17.126,2.041-31.456,0.821-47.099-6.763c-3.713-4.522-10.071-7.604-14.086-12.38
		c-13.461-16.014-17.098-39.066-21.377-58.904L383.872,951.239z"/>
	<path style="fill:#4896FE;" d="M640.502,946.711l1.583,1.291c1.309,22.033-2.007,49.661-17.261,66.678
		c-10.038,11.198-23.737,17.124-38.642,17.838c-11.503,0.551-23.108-1.398-34.409-3.32l-3.645-0.779
		c-1.963-2.82-1.954-5.666-2.092-9.074c-0.75-18.752,4.482-40.308,17.461-54.391C583.815,942.913,613.552,947.314,640.502,946.711z"
		/>
	<path style="fill:#F0AD8A;" d="M1031.436,508.43c19.383,5.196,26.531,7.124,47.515,5.052c0.92,9.294,1.515,17.658-0.877,26.841
		c-1.008,3.87-5.159,13.885-3.963,17.559c0.25,0.77,1.232,1.049,1.849,1.571l1.87-0.155c4.492-5.839,9.808-15.922,17.101-18.158
		c2.664,0.783,3.516,1.287,4.827,3.818c2.241,4.326,2.005,9.153,1.934,13.87c-3.52,8.62-14.504,9.689-16.031,17.703
		c-0.98,6.303-1.827,12.674-3.046,18.933c-8.594,10.327-15.873,16.291-29.867,17.729c-5.904,0.607-11.973,0.335-17.9,0.254
		l-5.982,1.224c-0.452-3.55-0.218-7.279-0.19-10.859c-4.893-3.294-10.966-4.385-14.54-9.578
		c-8.947-12.999-1.928-65.685,0.831-81.603C1021.073,512.48,1025.938,510.983,1031.436,508.43z"/>
	<path style="fill:#D18570;" d="M1032.118,603.808c17.303-3.298,30.175-7.531,42.936-20.44c2.933-2.965,5.908-7.184,9.748-8.897
		l0.859,2.059c-0.98,6.303-1.827,12.674-3.046,18.933c-8.594,10.327-15.873,16.291-29.867,17.729
		c-5.904,0.607-11.973,0.335-17.9,0.254l-5.982,1.224c-0.452-3.55-0.218-7.279-0.19-10.859L1032.118,603.808z"/>
	<path style="fill:#F2F2F2;" d="M1380.094,1031.051c1.476-0.242,1-0.21,2.384-0.276c32.299-1.535,64.505,5.863,88.989,27.969
		c21.605,19.506,23.411,34.883,24.899,62.62c-10.161,7.668-22.109,15.643-34.365,19.179c-1.366,0.297-2.742,0.537-4.127,0.72
		c-24.959,3.483-50.742-5.157-70.613-20.038c-20.01-14.986-39.843-40.363-42.848-65.956c-0.615-5.24,0.073-10.627,3.671-14.72
		C1355.167,1032.493,1370.165,1032.065,1380.094,1031.051z"/>
	<path style="fill:#2959A5;" d="M837.76,729.439c4.784-6.323,10.492-12.729,13.651-20.042c8.445,7.134,17.993,12.969,27.085,19.237
		c8.074,5.563,15.837,11.7,24.102,16.96c3.384-1.121,4.383-3.594,6.295-6.378c6.696-1.622,38.348-18.636,47.232-22.949
		c-0.057,15.994,1.263,33.257-0.643,49.08c0.402,8.975,0.536,17.954,0.401,26.936c-1.307,11.993-0.851,24.381-0.843,36.44
		c-44.702,0.355-89.404,0.437-134.108,0.246c0.038-30.272,0.319-60.683-0.976-90.929l10.779,1.249L837.76,729.439z"/>
	<path style="fill:#4896FE;" d="M837.76,729.439c4.784-6.323,10.492-12.729,13.651-20.042c8.445,7.134,17.993,12.969,27.085,19.237
		c8.074,5.563,15.837,11.7,24.102,16.96c-16.841,2.053-32.418-3.987-47.626-10.377C849.297,732.833,843.94,730.155,837.76,729.439z"
		/>
	<path style="fill:#FEFEFE;" d="M819.957,738.041l10.779,1.249c-1.599,3.947-3.251,7.872-4.637,11.9
		c13.935,13.477,29.937,24.905,45.22,36.783c6.716,5.222,13.158,11.531,20.54,15.75c3.167,1.811,6.615,3.294,10.317,3.362
		c13.332,0.25,26.436-12.67,35.062-21.664c6.256-6.523,12.116-13.431,18.245-20.072c0.402,8.975,0.536,17.954,0.401,26.936
		c-1.307,11.993-0.851,24.381-0.843,36.44c-44.702,0.355-89.404,0.437-134.108,0.246
		C820.971,798.698,821.252,768.287,819.957,738.041z"/>
	<path style="fill:#1A2C34;" d="M251.683,1225.489c-1.172-8.453-2.408-16.888-1.283-25.421c1.557-11.799,7.392-21.96,16.958-29.062
		c30.04-22.301,72.476-12.892,106.31-7.614l-1.674,58.4c-1.928,1.452-3.699,2.904-4.78,5.117
		c-8.727,17.844-9.205,46.532-21.984,65.498l-1.232,0.484c-20.807,0.769-41.405,1.214-62.206,0.141
		c-2.894-1.845-4.71-4.365-6.811-7.013C264.105,1266.406,256.14,1247.528,251.683,1225.489z"/>
	<path style="fill:#1A2C34;" d="M1527.183,1155.745c3.651,0.113,7.311,0.288,10.962,0.319c3.144,3.346,9.353,4.552,13.241,7.606
		c16.67,14.09,39.126,22.473,41.712,47.668c0.966,9.411-1.644,17.132-5.038,25.677c-0.514,12.967-5.799,39.048-16.736,47.45
		c-0.966,0.742-1.686,1.012-2.741,1.493c-3.509,3.709-6.997,7.301-10.863,10.653c-11.771,5.123-27.666,5.268-40.022,1.975
		c-17.656-4.708-31.371-19.221-33.874-37.584c-0.801-5.883,0.03-13.985-3.489-18.949c-1.89-2.664-6.972-3.304-10.068-4.048
		c-2.162-16.382-13.316-41.5-3.919-56.547C1473.916,1169.341,1512.804,1158.807,1527.183,1155.745z"/>
	<path style="fill:#F0AD8A;" d="M1588.06,1237.016c-0.514,12.967-5.799,39.048-16.736,47.45c-0.966,0.742-1.686,1.012-2.741,1.493
		c2.255-5.309,4.643-10.664,6.291-16.196c2.362-7.922,2.961-26.672,8.632-31.928
		C1584.968,1236.479,1586.186,1237.001,1588.06,1237.016z"/>
	<path style="fill:#1A2C34;" d="M758.793,1171.796c18.302-11.394,38.8-15.385,60.026-10.47
		c13.762,3.185,26.886,10.815,34.514,22.985c7.541,12.029,8.078,26.355,4.572,39.78c-0.352,1.328-0.739,2.647-1.16,3.955
		c0.583,22.749-4.766,56.466-21.246,73.656c-1.32,1.361-2.673,2.689-4.058,3.983c-0.444,4.181-0.91,8.253-2.17,12.281l-0.811,0.841
		c-0.514,0.524-2.307,2.533-2.977,2.745c-0.833,0.266-42.993-1.448-49.227-1.359l-4.163-7.824c-4.802,1.335-9.718,1.838-14.691,1.94
		c-14.155,0.297-27.816-4.342-37.9-14.528c-0.532-0.528-1.051-1.07-1.557-1.626c-0.506-0.555-0.997-1.122-1.474-1.7
		c-0.477-0.579-0.94-1.17-1.388-1.773c-0.448-0.602-0.881-1.215-1.299-1.839c-0.417-0.624-0.818-1.257-1.204-1.9
		c-0.386-0.644-0.755-1.298-1.107-1.96c-0.354-0.662-0.69-1.332-1.01-2.011c-0.32-0.679-0.622-1.365-0.908-2.059
		c-0.286-0.695-0.555-1.396-0.805-2.104c-0.251-0.707-0.485-1.421-0.7-2.14c-0.215-0.718-0.412-1.441-0.591-2.17
		c-0.179-0.73-0.339-1.463-0.482-2.198c-0.142-0.738-0.267-1.478-0.373-2.221c-0.105-0.743-0.192-1.489-0.26-2.237
		c-0.069-0.746-0.118-1.495-0.149-2.245c-0.032-0.75-0.045-1.501-0.038-2.251c0.395-32.739,21.468-27.473,30.887-45.026
		C747.466,1202.899,738.194,1191.798,758.793,1171.796z"/>
	<path style="fill:#F0AD8A;" d="M838.022,1246.443c7.092-5.415,12.787-11.795,18.723-18.396
		c0.583,22.749-4.766,56.466-21.246,73.656c-1.32,1.361-2.673,2.689-4.058,3.983c-0.444,4.181-0.91,8.253-2.17,12.281l-0.811,0.841
		c-0.514,0.524-2.307,2.533-2.977,2.745c-0.833,0.266-42.993-1.448-49.227-1.359l-4.163-7.824
		c14.566-7.392,31.519-5.619,43.303-18.723c21.946-24.403,4.839-27.081,4.383-49.298c-0.073-3.612,0.407-5.994,2.923-8.626
		c1.938-0.476,2.967-0.587,4.962-0.097C832.738,1236.87,835.362,1242.407,838.022,1246.443z"/>
	<path style="fill:#E6E7E7;" d="M1866.096,786.93c17.37-1.67,33.935,0.801,49.259,9.467c17.445,9.863,31.458,26.458,36.739,45.93
		c5.686,20.976,2.495,42.376-8.388,61.069c-13.425,23.06-30.934,32.077-55.946,38.499c-1.237,0.175-2.478,0.319-3.723,0.434
		c-1.244,0.116-2.49,0.201-3.737,0.256c-1.249,0.055-2.498,0.08-3.747,0.075c-1.249-0.005-2.498-0.04-3.745-0.105
		c-1.248-0.066-2.493-0.161-3.735-0.286c-1.244-0.125-2.484-0.28-3.719-0.464c-1.236-0.184-2.466-0.399-3.691-0.643
		c-1.226-0.243-2.445-0.516-3.657-0.819c-1.213-0.303-2.417-0.634-3.614-0.994c-1.195-0.36-2.382-0.749-3.56-1.166
		c-1.178-0.418-2.345-0.864-3.501-1.337c-1.156-0.473-2.301-0.975-3.433-1.505c-1.132-0.528-2.251-1.084-3.356-1.666
		c-1.105-0.582-2.196-1.191-3.271-1.827c-1.077-0.635-2.137-1.295-3.181-1.981c-1.045-0.686-2.072-1.396-3.082-2.132
		c-16.43-12.023-29.994-31.704-32.829-52.101c-2.797-20.131,2.12-43.092,14.53-59.388
		C1825.703,799.178,1845.174,789.84,1866.096,786.93z"/>
	<path style="fill:#E6E7E7;" d="M419.747,1024.718c-0.738,3.915-0.411,8.076-0.462,12.061c-0.137,10.339-2.963,18.757-7.88,27.765
		c-10.557,19.338-27.926,35.454-49.356,41.589c-20.799,5.952-44.627,4.022-63.527-6.747c-19.883-11.329-35.591-29.375-41.619-51.688
		c-6.019-22.275-2.126-46.051,9.316-65.937c11.061-19.221,30.601-33.187,51.96-38.796c23.051-6.051,45.851-1.351,66.105,10.468
		c4.28,19.839,7.916,42.89,21.377,58.904C409.677,1017.114,416.034,1020.195,419.747,1024.718z"/>
	<path style="fill:#BFD8FE;" d="M343.314,1326.343c9.215,4.04,18.836,7.031,27.779,11.706
		c22.485,11.751,47.783,33.945,57.051,58.178c5.234,13.685,6.174,28.241,0.631,41.948l-168.589,0.109
		c-20.327-0.103-40.911,1.714-61.2,0.248c-2.52-28.709-6.01-45.56,12.515-70.115c14.637-19.403,48.521-39.026,71.964-42.202
		C303.416,1326.008,323.365,1326.05,343.314,1326.343z"/>
	<path style="fill:#F6C139;" d="M1693.366,1225.414c-0.365-21.021,3.748-39.544,19.056-54.883
		c12.882-12.908,32.233-18.772,50.173-18.33c17.67,0.436,33.751,7.88,45.72,20.855c14.119,15.304,16.412,31.89,15.988,51.958
		c11.021,4.306,21.055,11.611,26.137,22.632c3.754,8.138,3.655,17.021,0.464,25.325c-2.14,5.567-5.446,9.921-9.185,14.453
		c11.882,6.892,28.677,14.712,32.88,28.882c2.622,8.836-0.528,17.688-5.01,25.323c-7.213,12.287-17.511,22.484-28.288,31.656
		c-17.124,14.659-39.114,21.819-61.167,24.637c-38.064,4.863-72.376-4.25-102.634-27.575
		c-11.583-11.638-29.074-29.266-29.397-46.849c-0.147-7.999,3.598-14.667,9.27-20.077c6.975-6.65,16.002-10.92,24.701-14.839
		c-7.931-7.6-14.07-16.44-14.462-27.84c-0.335-9.77,4.151-18.374,10.879-25.208
		C1682.898,1231.06,1687.88,1228.282,1693.366,1225.414z"/>
	<path style="fill:#1A2C34;" d="M513.918,1333.877c-20.629-30.736-24.419-62.002-17.342-98.376
		c4.55-23.368,16.559-47.513,36.775-61.109c14.544-9.782,32.505-12.441,49.518-8.879c18.588,3.891,34.229,16.375,44.302,32.214
		c16.866,26.521,19.346,66.428,12.42,96.407c-0.403,1.815-0.871,3.614-1.404,5.395c-0.531,1.782-1.126,3.542-1.783,5.28
		c-0.656,1.74-1.374,3.454-2.152,5.143c-0.78,1.688-1.618,3.346-2.515,4.976c-0.897,1.628-1.85,3.223-2.86,4.784
		c-1.01,1.561-2.074,3.084-3.193,4.568c-1.119,1.486-2.289,2.93-3.509,4.332c-1.221,1.401-2.49,2.758-3.808,4.07l-0.115,16.557
		c16.563-0.375,30.778,2.205,43.34,14.108c8.681,8.227,12.759,17.697,14.778,29.278c-1.995,14.633-0.66,30.922-0.664,45.754
		c-73.662-0.986-147.422,1.156-221.058-0.214c-0.125-5.789,0.143-11.983-0.698-17.694c-0.117-18.247,2.291-35.803,14.342-50.331
		c11.636-14.024,27.664-19.379,45.101-21.305C515.253,1345.139,514.178,1338.088,513.918,1333.877z"/>
	<path style="fill:#4896FE;" d="M955.587,668.794c17.539-28.17,41.472-41.611,71.946-52.111l0.732,1.184
		c-1.751,2.733-3.439,5.547-5.282,8.219c4.96,14.096,13.128,30.68,21.978,42.694c11.666-9.75,40.238-31.742,46.002-45.119
		c-0.018-2.051-0.004-3.985-0.361-6.01c14.857,2.324,28.261,4.526,41.712,11.682c8.158,4.341,16.632,9.722,23.705,15.7
		c15.641,13.217,29.435,29.701,43.237,44.79c18.8,20.546,38.505,41.143,55.083,63.562c4.479,6.059,10.452,15.722,9.389,23.471
		c-2.894,21.129-28.18,37.23-42.303,51.619c-9.143,0.591-19.284,0.442-28.414-0.333l-0.863-1.329
		c-5.92,3.491-21.613,2.295-28.398,1.166c-30.536-0.708-61.22-0.101-91.772-0.095c-38.648-0.159-77.296-0.034-115.941,0.375
		c0.123-11.973,0.532-24.018-0.151-35.974c0.135-8.982,0.001-17.961-0.401-26.936c1.906-15.823,0.587-33.086,0.643-49.08
		C956.354,705.625,958.836,677.053,955.587,668.794z"/>
	<path style="fill:#F0AD8A;" d="M1178.696,806.488c4.262,6.779,9.832,13.271,13.451,20.325c-5.92,3.491-21.613,2.295-28.398,1.166
		l0.238-7.787L1178.696,806.488z"/>
	<path style="fill:#FEFEFE;" d="M1164.406,742.422c10.819,12.075,24.179,31.212,38.783,38.039
		c-1.275,5.639-19.54,20.849-24.493,26.026l-14.71,13.703C1163.119,794.806,1162.264,767.702,1164.406,742.422z"/>
	<path style="fill:#007CFE;" d="M1164.715,699.588c15.718,21.049,33.419,48.265,51.92,66.415
		c-3.106,4.55-7.674,13.332-13.445,14.457c-14.604-6.827-27.965-25.964-38.783-38.039
		C1163.21,728.549,1163.448,713.435,1164.715,699.588z"/>
	<path style="fill:#97BEFD;" d="M955.041,828.724c-0.008-12.059-0.464-24.447,0.843-36.44c0.684,11.956,0.274,24.001,0.151,35.974
		c38.646-0.409,77.293-0.534,115.941-0.375c30.552-0.006,61.236-0.613,91.772,0.095c6.785,1.129,22.479,2.325,28.398-1.166
		l0.863,1.329c9.131,0.774,19.272,0.924,28.414,0.333c51.972,1.422,104.182,0.809,156.171,0.494
		c1.489,20.583,0.847,41.331,1.174,61.958c-16.414,0.98-32.989-0.615-49.451,0.02c-0.167,5.228-0.026,10.643-1.047,15.783
		c-0.248,5.712-0.355,11.456-1.069,17.132c-22.291,0.678-44.711,0.048-67.019,0.151c-52.24,0.375-104.48,0.474-156.722,0.297
		l-360.548-0.04c-1.289-10.631-1.553-21.482-1.872-32.18c-20.71-2.426-43.427-0.676-64.336-0.643
		c0.105-21.148,0.04-42.296-0.194-63.443c45.862-0.143,91.723,0.064,137.583,0.619c-0.198-10.319-0.526-20.643-0.06-30.956
		c0.625,8.276-1.805,23.245,2.126,30.179c1.614,0.504,3.096,0.91,4.772,1.125C865.636,829.161,910.339,829.079,955.041,828.724z"/>
	<path style="fill:#007CFE;" d="M741.042,892.088c35.93,1.047,72.061,0.363,108.009,0.377l193.841,0.016l186.992-0.069
		c32.777-0.01,65.788,0.803,98.543-0.188c-0.127,4.798-0.492,9.717-0.155,14.504c-0.248,5.712-0.355,11.456-1.069,17.132
		c-22.291,0.678-44.711,0.048-67.019,0.151c-52.24,0.375-104.48,0.474-156.722,0.297l-360.548-0.04
		C741.625,913.637,741.361,902.786,741.042,892.088z"/>
	<path style="fill:#97BEFD;" d="M1430.344,1625.523c59.318-0.462,119.303-1.914,178.589,0.129
		c18.473-0.034,36.945,0.027,55.417,0.182l122.769-0.186c20.831-0.024,43.364-1.642,64.039,0.726
		c29.427,0.879,68.061,3.487,95.881,13.181c-31.533,13.784-111.068,14.096-146.859,15.835c-77.516,3.832-155.076,6.222-232.681,7.17
		c-307.724,6.229-615.464,7.055-923.22,2.477c-120.317-1.61-240.59-4.848-360.819-9.716c-28.198-1.304-56.388-2.756-84.571-4.355
		c-20.984-1.21-42.934-2.033-63.607-5.918c-4.028-0.756-8.583-1.618-11.548-4.637l0.342-1.92
		c12.062-8.897,79.776-10.952,97.983-12.42c61.752-1.396,123.731-0.194,185.509-0.282c17.897-0.333,35.794-0.376,53.691-0.129
		c62.22-0.067,124.574-0.897,186.778,0.19c16.677-0.254,33.355-0.28,50.034-0.079c63.977,0.016,128.281,1.297,192.225-0.184
		l53.031-0.042l189.868,0.02l55.24,0.188c62.519-0.246,125.144,0.696,187.643-0.309L1430.344,1625.523z"/>
	<path style="fill:#4896FE;" d="M1296.317,406.827c67.521-0.649,135.151,0.49,202.693,0.359l72.906-0.23
		c13.469-0.052,27.418-0.855,40.819,0.381c3.741,0.343,6.886,1.793,9.465,4.56c2.816,3.019,2.81,7.384,3.086,11.299
		c1.337,18.881,0.113,38.608,0.218,57.598c0.356,41.646,0.356,83.291,0,124.937c-1.436,2.309-2.882,4.724-4.841,6.634
		c-6.567,6.404-60.72,3.608-72.922,3.582c-53.225,0.293-106.45,0.217-159.674-0.228c-8.128,5.335-15.433,12.434-22.876,18.685
		l-38.427,31.948c4.312-17.11,10.657-34.034,15.724-50.98c-12.346-0.196-40.673,2.725-51.135-1.795
		c-3.173-1.372-5.549-4.881-6.622-8.072c-2.019-5.996-1.398-163.64-0.452-181.62c0.206-3.895,0.198-8.584,2.455-11.93
		C1288.984,408.618,1292.612,407.612,1296.317,406.827z"/>
	<path style="fill:#FEFEFE;" d="M1428.212,493.983c1.107,0.101,2.221,0.175,3.32,0.359c0.429,0.07,0.853,0.161,1.273,0.274
		c0.42,0.113,0.832,0.247,1.236,0.401c0.406,0.155,0.803,0.329,1.19,0.524c0.389,0.196,0.766,0.411,1.132,0.645
		c0.366,0.234,0.719,0.486,1.059,0.756c0.34,0.269,0.666,0.555,0.976,0.859c0.311,0.303,0.605,0.621,0.883,0.954
		c0.278,0.333,0.539,0.68,0.783,1.041c1.9,2.757,2.315,6.323,1.583,9.548c-1.15,5.056-4.338,7.684-8.52,10.359
		c-0.808-0.101-1.614-0.219-2.418-0.353c-4.365-0.754-7.697-2.638-10.113-6.45c-0.227-0.358-0.434-0.726-0.621-1.105
		c-0.188-0.379-0.356-0.767-0.502-1.164c-0.147-0.398-0.272-0.802-0.377-1.212s-0.187-0.824-0.248-1.242
		c-0.061-0.42-0.099-0.84-0.115-1.263c-0.016-0.424-0.01-0.846,0.018-1.269c0.027-0.422,0.077-0.842,0.149-1.259
		c0.073-0.417,0.167-0.829,0.282-1.236C1420.574,498.111,1423.85,496.221,1428.212,493.983z"/>
	<path style="fill:#FEFEFE;" d="M1476.613,494.075c0.787,0.038,1.572,0.091,2.356,0.161c4.115,0.385,7.509,1.837,10.065,5.204
		c2.037,2.686,2.705,6.085,2.094,9.381c-0.934,5.02-3.985,7.574-8.021,10.304c-1.636,0.077-3.259,0.139-4.893-0.032
		c-3.207-0.335-6.216-2.16-8.09-4.778c-2.245-3.134-2.517-6.948-1.626-10.593C1469.729,498.69,1472.397,496.778,1476.613,494.075z"
		/>
	<path style="fill:#FEFEFE;" d="M1527.923,494.057c1.959-0.087,4.03-0.228,5.978,0.028c2.852,0.377,5.823,2.445,7.553,4.683
		c2.007,2.596,2.705,5.845,2.162,9.058c-0.881,5.224-3.576,7.683-7.729,10.647c-1.208,0.046-2.41,0.042-3.618-0.038
		c-4.169-0.284-8.338-2.003-10.819-5.549c-2.088-2.981-2.727-6.23-1.785-9.754C1520.906,498.486,1524.041,496.498,1527.923,494.057z
		"/>
	<path style="fill:#FEFEFE;" d="M1378.771,494.337c1.811,0.238,3.657,0.595,5.371,1.238c2.971,1.12,5.52,3.725,6.634,6.694
		c1.178,3.144,0.7,6.573-0.769,9.53c-2.37,4.77-5.722,6.242-10.585,7.826c-1.751-0.472-3.471-0.99-5.145-1.7
		c-3.235-1.37-5.982-4.038-7.204-7.368c-1.121-3.05-0.885-6.297,0.728-9.149C1370.218,497.135,1374.304,495.642,1378.771,494.337z"
		/>
	<path style="fill:#4896FE;" d="M1327.203,923.861c-0.613,12.588-2.158,25.135-3.475,37.666
		c-6.928,46.595-10.667,93.874-15.45,140.74c-2.257,22.13-3.152,46.075-8.336,67.654c11.097,3.239,22.517,8.094,28.405,18.737
		c7.426,13.425,3.939,31.88,0.962,46.129c-1.519,0.311-4.911,0.496-5.843,1.708c-3.586,4.665-5.797,38.138-8.57,47.521
		c-2.037,3.673-3.848,6.313-7.057,9.046c-3.378,9.127-4.306,19.937-3.78,29.615c-19.006-0.841-38.334-1.174-57.299,0.424
		c-26.66,7.424-55.361,18.947-76.665,37.079c-16.345,19.262-11.2,55.452-11.733,79.078c-24.139-1.047-48.598-0.325-72.771-0.327
		c-56.214-0.004-112.518,0.694-168.72-0.149c-0.504-20.494-3.901-41.597-7.104-61.843c-12.862-45.968-72.027-45.518-80.496-58.971
		c1.261-4.028,1.727-8.1,2.17-12.281c1.385-1.295,2.738-2.623,4.058-3.983c16.48-17.19,21.829-50.907,21.246-73.656
		c0.421-1.308,0.807-2.627,1.16-3.955c3.506-13.425,2.969-27.751-4.572-39.78c-7.628-12.17-20.752-19.8-34.514-22.985
		c-21.226-4.915-41.724-0.924-60.026,10.47c0.383-24.092-2.073-48.824-3.624-72.865l-9.708-139.311
		c-0.282-11.771-1.557-23.618-2.547-35.351l360.548,0.04c52.241,0.177,104.482,0.079,156.722-0.297
		C1282.491,923.909,1304.911,924.539,1327.203,923.861z"/>
	<path style="fill:#F0AD8A;" d="M988.879,1225.928c1.813,2.9,3.713,5.375,6.033,7.888c1.021,9.661,2.376,19.564,4.933,28.947
		c-3.721-2.878-7.438-5.766-10.678-9.199c-3.907-4.139-8.516-10.536-7.832-16.603
		C981.906,1231.891,984.968,1228.843,988.879,1225.928z"/>
	<path style="fill:#F0AD8A;" d="M1219.396,1234.918c2.563,0.419,3.786,0.046,5.49,2.16c1.874,16.158,3.378,31.886,8.162,47.501
		c-4.201-3.752-20.897-33.427-20.843-39.477C1212.242,1241.158,1216.844,1237.469,1219.396,1234.918z"/>
	<path style="fill:#1A2C34;" d="M1219.396,1234.918c-3.36-9.278-4.966-21.503-3.935-31.373c1.059-10.141,5.377-19.151,13.457-25.526
		c19.51-15.395,48.279-10.772,71.024-8.098c11.097,3.239,22.517,8.094,28.405,18.737c7.426,13.425,3.939,31.88,0.962,46.129
		c-1.519,0.311-4.911,0.496-5.843,1.708c-3.586,4.665-5.797,38.138-8.57,47.521c-2.037,3.673-3.848,6.313-7.057,9.046
		c-3.378,9.127-4.306,19.937-3.78,29.615c-19.006-0.841-38.334-1.174-57.299,0.424c0.123-9.568-0.131-19.171-0.208-28.743
		c-5.375-2.598-9.26-5.553-13.503-9.778c-4.784-15.615-6.289-31.343-8.162-47.501
		C1223.181,1234.964,1221.959,1235.337,1219.396,1234.918z"/>
	<path style="fill:#F0AD8A;" d="M1246.552,1294.357c20.79,4.014,40.942,5.24,61.286-1.295c-3.378,9.127-4.306,19.937-3.78,29.615
		c-19.006-0.841-38.334-1.174-57.299,0.424C1246.882,1313.532,1246.628,1303.929,1246.552,1294.357z"/>
	<path style="fill:#1A2C34;" d="M988.879,1225.928c-1.291-15.446-8.11-51.299,2.455-62.92c8.294-9.123,21.878-6.688,32.372-10.774
		c9.32-3.628,15.855-11.533,26.569-11.529c13.366,0.006,20.681,9.102,30.811,15.954c6.13-0.016,12.287-0.153,18.412,0.022
		c8.389,7.521,12.699,16.299,13.501,27.642c0.66,9.304-1.484,39.116-3.104,48.495c0.716,8.721,0.601,16.904-5.766,23.856
		c-2.079,2.273-5.762,5.908-8.673,6.71c-2.281,10.541-7.971,17.672-15.341,25.115c-3.023,1.436-6.355,2.309-9.641,2.925
		c-15.23,2.85-43.812,4.395-56.966-4.663c-6.281-7.517-9.984-14.945-13.663-23.997c-2.557-9.383-3.913-19.286-4.933-28.947
		C992.592,1231.304,990.692,1228.829,988.879,1225.928z"/>
	<path style="fill:#F0AD8A;" d="M1095.455,1263.385c1.267-7.569,2.283-23.058,7.41-28.649c2.281-2.487,3.949-1.894,7.029-1.918
		c0.716,8.721,0.601,16.904-5.766,23.856C1102.049,1258.948,1098.366,1262.582,1095.455,1263.385z"/>
	<path style="fill:#2959A5;" d="M1013.507,1286.761c13.154,9.058,41.736,7.513,56.966,4.663c3.286-0.615,6.617-1.489,9.641-2.925
		c-0.171,9.845,0.095,18.507,2.396,28.13c23.582,5.018,67.833,10.639,82.035,32.705c2.196,3.438,4.045,7.053,5.549,10.845
		c-16.345,19.262-11.2,55.452-11.733,79.078c-24.139-1.047-48.598-0.325-72.771-0.327c-56.214-0.004-112.518,0.694-168.72-0.149
		c-0.504-20.494-3.901-41.597-7.104-61.843c0.942-1.442,1.142-2.287,1.46-4.02c1.456-7.929,3.12-17.342,7.739-24.092
		c12.634-18.459,66.639-28.735,88.12-33.336C1009.594,1305.93,1011.825,1296.511,1013.507,1286.761z"/>
	<path style="fill:#F0AD8A;" d="M1013.507,1286.761c13.154,9.058,41.736,7.513,56.966,4.663c3.286-0.615,6.617-1.489,9.641-2.925
		c-0.171,9.845,0.095,18.507,2.396,28.13c-24.824-3.433-50.534-4.639-75.425-1.14
		C1009.594,1305.93,1011.825,1296.511,1013.507,1286.761z"/>
	<path style="fill:#E6E7E7;" d="M1246.759,1323.1c18.965-1.597,38.294-1.265,57.299-0.424c34.372,7.035,76.296,22.477,96.691,53.102
		c4.042,6.071,7.223,12.951,7.576,20.333c4.054-6.085,6.612-13.275,11.537-18.735c14.851-16.464,52.967-37.616,73.719-46.918
		c20.445,0.602,40.895,0.822,61.349,0.66l1.216,0.871c30.565,21.609,77.41,32.45,85.173,75.31
		c1.537,8.491,1.309,17.194,3.314,25.609l1.061-8.175c-0.21-5.317-0.363-11.091,0.438-16.359
		c2.711-17.799,17.789-28.388,31.369-38.027c30.258,23.326,64.57,32.438,102.634,27.575c22.053-2.818,44.044-9.978,61.167-24.637
		c13.711,10.286,22.205,18.967,24.762,36.68c0.335,2.201,0.6,4.411,0.797,6.628c1.321,7.346,0.884,15.077,0.853,22.525l22.941-0.024
		l-25.042,121.195l-9.214,42.164c-1.793,7.872-4.244,15.916-5.24,23.921c-20.675-2.368-43.209-0.75-64.039-0.726l-122.769,0.186
		c-18.473-0.155-36.945-0.215-55.417-0.182c-59.286-2.043-119.271-0.591-178.589-0.129l-54.266-0.079
		c-62.499,1.004-125.124,0.063-187.643,0.309l-55.24-0.188l-189.868-0.02l-53.031,0.042c-63.945,1.48-128.248,0.2-192.225,0.184
		c-16.679-0.202-33.357-0.175-50.034,0.079c-62.204-1.087-124.557-0.256-186.778-0.19c-17.897-0.247-35.794-0.204-53.691,0.129
		c-61.779,0.089-123.757-1.113-185.509,0.282c-9.518-35.476-16.819-71.573-25.337-107.303c-6.38-26.763-14.126-53.126-20.009-80.026
		l22.272-0.21c20.288,1.466,40.873-0.351,61.2-0.248l168.589-0.109h24.77c-0.115-5.95-0.008-11.767,0.405-17.703
		c0.841,5.712,0.573,11.906,0.698,17.694c73.636,1.37,147.395-0.773,221.058,0.214c0.004-14.833-1.331-31.121,0.664-45.754
		c2.719,10.976,0.623,34.451,0.407,46.484c23.298,0.875,46.714,0.301,70.032,0.214l105.443-0.347
		c21.033-0.107,43.707-1.979,64.618-0.198c56.202,0.843,112.506,0.145,168.72,0.149c24.173,0.002,48.632-0.72,72.771,0.327
		c0.533-23.626-4.613-59.816,11.733-79.078C1191.399,1342.047,1220.099,1330.524,1246.759,1323.1z"/>
	<path style="fill:#BFD8FE;" d="M670.601,1479.201c5.196,25.806,10.216,51.646,15.06,77.521c4.109,22.985,7.495,46.226,12.41,69.05
		c-16.679-0.202-33.357-0.175-50.034,0.079C653.794,1576.749,666.45,1528.496,670.601,1479.201z"/>
	<path style="fill:#BFD8FE;" d="M914.331,1478.942l28.997,146.603l-53.031,0.042l12.303-70.278
		C907.286,1529.813,912.348,1504.848,914.331,1478.942z"/>
	<path style="fill:#BFD8FE;" d="M1403.947,1478.242c4.064,32.864,9.742,66.038,16.246,98.507
		c3.219,16.067,8.376,32.549,10.151,48.773l-54.266-0.079C1385.383,1577.1,1396.98,1526.715,1403.947,1478.242z"/>
	<path style="fill:#BFD8FE;" d="M407.569,1625.789c8.092-48.878,18.187-97.966,22.701-147.318
		c6.901,30.171,13.565,60.393,19.994,90.667c3.965,18.172,9.365,38.037,10.996,56.522
		C443.363,1625.412,425.466,1625.456,407.569,1625.789z"/>
	<path style="fill:#BFD8FE;" d="M1608.933,1625.652c5.865-28.131,11.391-56.327,16.577-84.59
		c3.955-20.934,8.302-41.843,11.188-62.958c5.133,36.853,13.526,73.678,20.547,110.235c2.37,12.346,5.645,25.042,7.106,37.495
		C1645.878,1625.679,1627.406,1625.618,1608.933,1625.652z"/>
	<path style="fill:#BFD8FE;" d="M1159.704,1478.499c9.189,49.161,18.766,98.245,28.731,147.254l-55.24-0.188
		c4.03-34.697,12.797-69.788,19.443-104.162C1155.382,1507.209,1158.476,1492.922,1159.704,1478.499z"/>
	<path style="fill:#F6C139;" d="M1246.759,1323.1c18.965-1.597,38.294-1.265,57.299-0.424c34.372,7.035,76.296,22.477,96.691,53.102
		c4.042,6.071,7.223,12.951,7.576,20.333c-1.212,14.354-2.527,28.699-2.507,43.12c-7.428,1.258-15.809,0.577-23.368,0.589
		l-43.695,0.131c-59.978,0.31-120.461,1.359-180.394-0.694c0.533-23.626-4.613-59.816,11.733-79.078
		C1191.399,1342.047,1220.099,1330.524,1246.759,1323.1z"/>
	<path style="fill:#97BEFD;" d="M1493.581,1330.458c20.445,0.602,40.895,0.822,61.349,0.66l1.216,0.871
		c30.565,21.609,77.41,32.45,85.173,75.31c1.537,8.491,1.309,17.194,3.314,25.609l1.061-8.175
		c-0.21-5.317-0.363-11.091,0.438-16.359c2.711-17.799,17.789-28.388,31.369-38.027c30.258,23.326,64.57,32.438,102.634,27.575
		c22.053-2.818,44.044-9.978,61.167-24.637c13.711,10.286,22.205,18.967,24.762,36.68c0.335,2.201,0.6,4.411,0.797,6.628
		c0.059,7.676,0.23,15.371,0.143,23.045c-47.233,1.019-94.624,0.331-141.871,0.123c-26.232-0.117-52.906,1.032-79.062-0.157
		c-19.6,0.893-39.471,0.3-59.098,0.258l-100.453-0.093c-13.663,0.004-71.645,2.029-80.701-0.538
		c-0.02-14.421,1.295-28.766,2.507-43.12c4.054-6.085,6.612-13.275,11.537-18.735
		C1434.713,1360.911,1472.829,1339.76,1493.581,1330.458z"/>
</g>
</svg>
